<svg width="23.379639" height="23.379639" viewBox="0 0 23.3796 23.3796" fill="none" xmlns="http://www.w3.org/2000/svg" xmlns:xlink="http://www.w3.org/1999/xlink">
	<desc>
			Created with Pixso.
	</desc>
	<defs/>
	<path id="Vector" d="M15.62 7.22L12.87 0.75C12.44 -0.26 11 -0.26 10.57 0.75L7.88 7.09C7.75 7.39 7.52 7.63 7.22 7.75L0.75 10.5C-0.26 10.93 -0.26 12.37 0.75 12.8L7.09 15.49C7.39 15.62 7.63 15.85 7.75 16.15L10.5 22.62C10.93 23.63 12.37 23.63 12.8 22.62L15.49 16.28C15.62 15.98 15.85 15.74 16.15 15.62L22.62 12.87C23.63 12.44 23.63 11 22.62 10.57L16.28 7.88C15.96 7.75 15.72 7.5 15.62 7.22ZM13.76 7.97L11.72 3.16L9.72 7.87Q9.46 8.49 9.02 8.92Q8.59 9.34 8.01 9.59L3.16 11.65L7.87 13.64Q8.49 13.91 8.92 14.35Q9.34 14.78 9.59 15.36L11.65 20.21L13.65 15.5Q13.91 14.88 14.35 14.45Q14.78 14.03 15.36 13.78L20.21 11.72L15.5 9.72Q14.91 9.49 14.48 9.08Q14.02 8.63 13.76 7.97Z" fill="#CC0955" fill-opacity="1.000000" fill-rule="evenodd"/>
</svg>
