<svg width="35.848633" height="35.848633" viewBox="0 0 35.8486 35.8486" fill="none" xmlns="http://www.w3.org/2000/svg" xmlns:xlink="http://www.w3.org/1999/xlink">
	<desc>
			Created with Pixso.
	</desc>
	<defs/>
	<path id="Vector" d="M23.95 11.07L19.73 1.16C19.07 -0.39 16.87 -0.39 16.21 1.16L12.09 10.87C11.89 11.33 11.53 11.7 11.07 11.89L1.16 16.11C-0.39 16.77 -0.39 18.97 1.16 19.63L10.87 23.75C11.33 23.95 11.69 24.31 11.89 24.77L16.11 34.68C16.77 36.23 18.97 36.23 19.63 34.68L23.75 24.97C23.95 24.51 24.31 24.14 24.77 23.95L34.68 19.73C36.23 19.07 36.23 16.87 34.68 16.21L24.97 12.09C24.47 11.89 24.11 11.5 23.95 11.07ZM22.09 11.82L17.97 2.12L13.93 11.65Q13.61 12.39 13.08 12.92Q12.57 13.43 11.86 13.73L2.12 17.87L11.65 21.91Q12.39 22.23 12.92 22.76Q13.43 23.27 13.73 23.98L17.87 33.72L21.91 24.19Q22.23 23.44 22.76 22.92Q23.27 22.41 23.98 22.11L33.72 17.97L24.19 13.93Q23.45 13.64 22.94 13.13Q22.4 12.59 22.09 11.82Z" fill="#FFFFFF" fill-opacity="1.000000" fill-rule="evenodd"/>
</svg>
