<svg width="53.833496" height="53.833496" viewBox="0 0 53.8335 53.8335" fill="none" xmlns="http://www.w3.org/2000/svg" xmlns:xlink="http://www.w3.org/1999/xlink">
	<desc>
			Created with Pixso.
	</desc>
	<defs/>
	<path id="Vector" d="M35.96 16.62L29.63 1.74C28.64 -0.59 25.33 -0.59 24.34 1.74L18.16 16.33C17.86 17.02 17.32 17.56 16.62 17.86L1.74 24.19C-0.59 25.18 -0.59 28.49 1.74 29.48L16.33 35.67C17.02 35.96 17.56 36.51 17.86 37.2L24.19 52.09C25.18 54.41 28.49 54.41 29.48 52.09L35.67 37.5C35.96 36.8 36.51 36.26 37.2 35.96L52.09 29.63C54.41 28.64 54.41 25.33 52.09 24.34L37.5 18.16C36.75 17.86 36.21 17.27 35.96 16.62Z" fill="#CC0955" fill-opacity="1.000000" fill-rule="nonzero"/>
</svg>
