<svg width="23.000000" height="23.000000" viewBox="0 0 23 23" fill="none" xmlns="http://www.w3.org/2000/svg" xmlns:xlink="http://www.w3.org/1999/xlink">
	<desc>
			Created with Pixso.
	</desc>
	<defs/>
	<path id="Vector" d="M15.36 7.1L12.66 0.74C12.23 -0.25 10.82 -0.25 10.4 0.74L7.76 6.97C7.63 7.27 7.4 7.5 7.1 7.63L0.74 10.33C-0.25 10.76 -0.25 12.17 0.74 12.59L6.97 15.24C7.27 15.36 7.5 15.59 7.63 15.89L10.33 22.25C10.76 23.24 12.17 23.24 12.59 22.25L15.24 16.02C15.36 15.72 15.59 15.49 15.89 15.36L22.25 12.66C23.24 12.23 23.24 10.82 22.25 10.4L16.02 7.75C15.72 7.63 15.47 7.37 15.36 7.1Z" fill="#F6B096" fill-opacity="1.000000" fill-rule="nonzero"/>
</svg>
