<svg width="178.885742" height="108.279785" viewBox="0 0 178.886 108.28" fill="none" xmlns="http://www.w3.org/2000/svg" xmlns:xlink="http://www.w3.org/1999/xlink">
	<desc>
			Created with Pixso.
	</desc>
	<defs/>
	<path id="Vector" d="M45.44 56.93C45.44 56.93 36.22 58.27 33.03 52.06C29.83 45.84 28.68 39.31 30.23 37.9C31.77 36.49 45.68 35.76 48.75 38.1C51.81 40.44 52.47 45.15 52.47 45.15C52.47 45.15 47.89 52.61 45.44 56.93Z" fill="#B60949" fill-opacity="1.000000" fill-rule="nonzero"/>
	<path id="Vector" d="M59.95 36.2C59.95 36.2 49.85 35.68 48.59 30.19C47.33 24.7 47.86 17.29 49.03 14.95C50.22 12.64 59.88 15.35 64.27 16.67C68.63 17.99 68.96 29.68 68.96 29.68C68.96 29.68 63.91 31.95 59.95 36.2Z" fill="#B60949" fill-opacity="1.000000" fill-rule="nonzero"/>
	<path id="Vector" d="M78.44 25.95C78.44 25.95 71.41 16.6 71.81 14.27C72.2 11.93 78.13 2.1 80.45 0.25C82.76 -1.58 92.2 7.12 93.63 10.01C95.07 12.88 91.03 24.87 90.46 25.42C90.46 25.42 84.06 24.06 78.44 25.95Z" fill="#B60949" fill-opacity="1.000000" fill-rule="nonzero"/>
	<path id="Vector" d="M102.34 28.93C102.34 28.93 99.5 18.32 100.12 14.69C100.73 11.05 109.38 6 113.5 6.37C117.62 6.75 120.31 17.38 120.42 20.37C120.53 23.37 109.68 33.18 109.68 33.18L102.34 28.93Z" fill="#B60949" fill-opacity="1.000000" fill-rule="nonzero"/>
	<path id="Vector" d="M120.95 40.06C120.95 40.06 122.05 31.33 123.29 29.96C124.52 28.6 131.8 27.58 133.54 28.24C135.28 28.91 135.77 35.87 134.75 38.3C133.74 40.72 126.02 43.06 126.02 43.06L120.95 40.06Z" fill="#B60949" fill-opacity="1.000000" fill-rule="nonzero"/>
	<path id="Vector" d="M66.49 80.81C66.49 80.81 74.87 92.27 76.33 98.27C77.78 104.26 85.54 103.14 89.18 102.06C92.82 101 96.35 99.96 96.23 96.52C96.12 93.08 92.07 80.17 92.97 74.65L66.49 80.81Z" fill="#C0D810" fill-opacity="1.000000" fill-rule="nonzero"/>
	<path id="Vector" d="M112.04 68.88C112.04 68.88 120.42 80.34 121.88 86.34C123.33 92.34 131.09 91.21 134.73 90.13C138.37 89.07 141.89 88.04 141.78 84.6C141.67 81.16 137.62 68.24 138.52 62.73L112.04 68.88Z" fill="#C0D810" fill-opacity="1.000000" fill-rule="nonzero"/>
	<path id="Vector" d="M59.35 91.1C60.83 90.73 61.62 90.44 61.62 90.44C68.06 88.1 75.8 86.93 84.35 85.88C84.75 83.91 85.28 81.95 85.85 80.01C76.46 82.5 67.49 85.99 59.35 91.1Z" fill="#B60949" fill-opacity="1.000000" fill-rule="nonzero"/>
	<path id="Vector" d="M91.63 78.6C91.12 80.78 90.66 82.97 90.22 85.15C92.33 84.88 94.49 84.62 96.7 84.35C97.14 81.97 97.67 79.61 98.22 77.3C95.99 77.7 93.81 78.12 91.63 78.6Z" fill="#B60949" fill-opacity="1.000000" fill-rule="nonzero"/>
	<path id="Vector" d="M98.2 77.28C97.67 79.62 97.14 81.95 96.68 84.33C98.42 84.11 100.18 83.87 101.97 83.61C102.32 81.2 102.74 78.8 103.2 76.42C101.53 76.71 99.87 76.97 98.2 77.28Z" fill="#B60949" fill-opacity="1.000000" fill-rule="nonzero"/>
	<path id="Vector" d="M103.22 76.42C102.76 78.8 102.34 81.2 101.99 83.61C109.22 82.55 116.76 81.18 124.46 78.98C125.38 78.71 126.26 78.45 127.12 78.16C127.34 76.55 127.59 74.94 127.83 73.35C119.58 74.24 111.32 75.14 103.22 76.42Z" fill="#B60949" fill-opacity="1.000000" fill-rule="nonzero"/>
	<path id="Vector" d="M127.81 73.38C127.56 74.96 127.32 76.57 127.1 78.18C128.82 77.63 130.41 77.04 131.91 76.42C131.97 75.25 132.04 74.08 132.08 72.91C130.67 73.07 129.24 73.22 127.81 73.38Z" fill="#B60949" fill-opacity="1.000000" fill-rule="nonzero"/>
	<path id="Vector" d="M132.11 72.93C132.04 74.1 131.97 75.27 131.93 76.44C135.26 75.07 138.06 73.6 140.39 72.05C137.64 72.34 134.86 72.63 132.11 72.93Z" fill="#B60949" fill-opacity="1.000000" fill-rule="nonzero"/>
	<path id="Vector" d="M85.85 80.01C85.28 81.95 84.75 83.89 84.35 85.88C86.27 85.63 88.21 85.41 90.19 85.17C90.63 83.01 91.1 80.81 91.6 78.62C89.69 79.04 87.77 79.5 85.85 80.01Z" fill="#B60949" fill-opacity="1.000000" fill-rule="nonzero"/>
	<path id="Vector" d="M153.56 3.77C144.63 6.11 137.02 12.44 138.1 24.23C139.18 36.05 147.21 41.1 137.77 46.04C128.31 50.98 102.5 19.89 79.41 25.71C56.33 31.53 50.11 49.72 41.49 63.83C32.87 77.94 8.99 70.53 3.99 68.5C-1.01 66.45 -5.58 76.37 18.43 86.89C37.57 95.27 53.64 92.53 59.39 91.1C82.57 76.57 112.37 75.2 140.42 72.03C150.27 65.46 152.23 57.46 154.59 50.95C157.9 41.89 157.37 42.18 159.55 40.86C161.74 39.53 177.35 41.56 178.8 23.13C180.21 4.7 162.51 1.43 153.56 3.77Z" fill="#C0D810" fill-opacity="1.000000" fill-rule="nonzero"/>
	<path id="Vector" d="M56.26 86.16C56.26 86.16 64.64 97.63 66.1 103.62C67.55 109.62 75.31 108.5 78.95 107.42C82.59 106.36 86.12 105.32 86.01 101.88C85.89 98.44 81.84 85.52 82.74 80.01L56.26 86.16Z" fill="#C0D810" fill-opacity="1.000000" fill-rule="nonzero"/>
	<path id="Vector" d="M101.81 74.24C101.81 74.24 110.19 85.7 111.65 91.7C113.1 97.69 120.86 96.57 124.5 95.49C128.14 94.43 131.66 93.39 131.55 89.95C131.44 86.52 127.39 73.6 128.29 68.08L101.81 74.24Z" fill="#C0D810" fill-opacity="1.000000" fill-rule="nonzero"/>
	<path id="Vector" d="M79.66 34.86C80.01 36.25 77.65 38.08 74.39 38.92C71.12 39.78 68.17 39.33 67.79 37.95C67.44 36.56 69.78 34.73 73.06 33.89C76.35 33.03 79.3 33.47 79.66 34.86Z" fill="#B60949" fill-opacity="1.000000" fill-rule="nonzero"/>
	<path id="Vector" d="M98.33 32.65C98.68 34.04 96.35 35.85 93.06 36.71C89.8 37.57 86.84 37.13 86.47 35.74C86.12 34.35 88.45 32.52 91.74 31.68C95 30.85 97.95 31.27 98.33 32.65Z" fill="#B60949" fill-opacity="1.000000" fill-rule="nonzero"/>
	<path id="Vector" d="M69.78 46.02C70.02 46.98 68.39 48.24 66.12 48.84C63.85 49.43 61.8 49.12 61.55 48.18C61.31 47.21 62.94 45.95 65.21 45.35C67.46 44.76 69.51 45.07 69.78 46.02Z" fill="#B60949" fill-opacity="1.000000" fill-rule="nonzero"/>
	<path id="Vector" d="M77.34 50.14C77.58 51.11 76.3 52.28 74.47 52.74C72.64 53.22 70.95 52.83 70.7 51.86C70.46 50.89 71.74 49.72 73.57 49.26C75.38 48.79 77.08 49.17 77.34 50.14Z" fill="#B60949" fill-opacity="1.000000" fill-rule="nonzero"/>
	<path id="Vector" d="M84.37 42.2C84.62 43.17 83.34 44.34 81.51 44.8C79.68 45.29 77.98 44.89 77.74 43.92C77.5 42.95 78.77 41.78 80.6 41.32C82.41 40.86 84.11 41.25 84.37 42.2Z" fill="#B60949" fill-opacity="1.000000" fill-rule="nonzero"/>
	<path id="Vector" d="M100.14 39.75C100.47 40.99 98.66 42.53 96.12 43.19C93.59 43.85 91.25 43.39 90.94 42.18C90.61 40.94 92.42 39.4 94.98 38.74C97.49 38.08 99.83 38.52 100.14 39.75Z" fill="#B60949" fill-opacity="1.000000" fill-rule="nonzero"/>
	<path id="Vector" d="M170.4 30.87C170.4 33.23 168.48 35.15 166.12 35.15C163.77 35.15 161.85 33.23 161.85 30.87C161.85 28.51 163.77 26.59 166.12 26.59C168.48 26.59 170.4 28.51 170.4 30.87Z" fill="#F6B096" fill-opacity="1.000000" fill-rule="nonzero"/>
	<path id="Vector" d="M172.61 24.92C172.61 25.84 171.86 26.59 170.93 26.59C170.01 26.59 169.26 25.84 169.26 24.92C169.26 23.99 170.01 23.24 170.93 23.24C171.86 23.24 172.61 23.99 172.61 24.92Z" fill="#890737" fill-opacity="1.000000" fill-rule="evenodd"/>
</svg>
