<svg width="810.131348" height="518.281372" viewBox="0 0 810.131 518.281" fill="none" xmlns="http://www.w3.org/2000/svg" xmlns:xlink="http://www.w3.org/1999/xlink">
	<desc>
			Created with Pixso.
	</desc>
	<defs/>
	<mask id="mask387_1775" mask-type="alpha" maskUnits="userSpaceOnUse" x="0.000000" y="0.000000" width="810.131226" height="518.281372">
		<rect id="Rectangle 18" width="810.131226" height="518.281372" fill="#D9D9D9" fill-opacity="1.000000"/>
	</mask>
	<g mask="url(#mask387_1775)">
		<ellipse id="Ellipse 32" cx="404.650391" cy="427.023804" rx="362.274048" ry="361.553070" fill="#F6B096" fill-opacity="0.500000"/>
	</g>
	<g mask="url(#mask387_1775)">
		<path id="Vector" d="M195.62 181.61L188.97 166.01C187.93 163.58 184.46 163.58 183.42 166.01L176.93 181.3C176.62 182.02 176.05 182.59 175.32 182.9L159.7 189.53C157.26 190.57 157.26 194.04 159.7 195.08L175.01 201.55C175.74 201.86 176.31 202.43 176.62 203.16L183.26 218.75C184.3 221.18 187.78 221.18 188.82 218.75L195.31 203.47C195.62 202.74 196.19 202.17 196.91 201.86L212.54 195.23C214.98 194.19 214.98 190.72 212.54 189.69L197.23 183.21C196.45 182.9 195.88 182.28 195.62 181.61Z" fill="#CC0955" fill-opacity="1.000000" fill-rule="nonzero"/>
	</g>
	<g mask="url(#mask387_1775)">
		<path id="Vector" d="M168.45 430.49L163.66 419.25C162.92 417.5 160.41 417.5 159.66 419.25L154.99 430.27C154.76 430.79 154.35 431.2 153.83 431.42L142.57 436.2C140.81 436.95 140.81 439.45 142.57 440.2L153.6 444.86C154.13 445.09 154.54 445.5 154.76 446.02L159.55 457.25C160.3 459.01 162.8 459.01 163.55 457.25L168.23 446.24C168.45 445.72 168.86 445.31 169.39 445.09L180.64 440.31C182.4 439.56 182.4 437.06 180.64 436.31L169.61 431.65C169.09 431.42 168.68 431.01 168.45 430.49Z" fill="#CC0955" fill-opacity="1.000000" fill-rule="nonzero"/>
	</g>
	<g mask="url(#mask387_1775)">
		<path id="Vector" d="M657.85 323.52L653.07 312.28C652.32 310.53 649.81 310.53 649.06 312.28L644.39 323.29C644.16 323.82 643.75 324.23 643.23 324.45L631.97 329.23C630.21 329.97 630.21 332.48 631.97 333.22L643 337.89C643.53 338.11 643.94 338.52 644.16 339.05L648.95 350.28C649.7 352.04 652.21 352.04 652.95 350.28L657.63 339.27C657.85 338.75 658.27 338.34 658.79 338.11L670.05 333.33C671.81 332.59 671.81 330.09 670.05 329.34L659.01 324.67C658.49 324.45 658.08 324.04 657.85 323.52Z" fill="#CC0955" fill-opacity="1.000000" fill-rule="nonzero"/>
	</g>
</svg>
