<svg width="131.144775" height="113.902954" viewBox="0 0 131.145 113.903" fill="none" xmlns="http://www.w3.org/2000/svg" xmlns:xlink="http://www.w3.org/1999/xlink">
	<desc>
			Created with Pixso.
	</desc>
	<defs/>
	<path id="Vector" d="M52.91 38.42C52.91 38.42 32.72 34.47 27.32 45.31C21.92 56.15 21.6 57.99 23.37 60.62C25.68 64.08 40.9 58.71 40.9 58.71L52.91 38.42Z" fill="#03A678" fill-opacity="1.000000" fill-rule="nonzero"/>
	<path id="Vector" d="M81.45 63.81C81.45 63.81 89 82.92 79.31 90.19C69.62 97.46 67.86 98.11 64.94 96.86C61.12 95.21 63.65 79.3 63.65 79.3L81.45 63.81Z" fill="#03A678" fill-opacity="1.000000" fill-rule="nonzero"/>
	<path id="Vector" d="M106.73 30.94C111.35 21.81 115.21 9.61 109.39 4.77C102.18 -1.24 90.53 5.02 81.53 11.05C88.53 19.37 97.17 25.99 106.73 30.94Z" fill="#CF3A3A" fill-opacity="1.000000" fill-rule="nonzero"/>
	<path id="Vector" d="M38.35 61.45C38.35 61.45 17.35 73.22 18.36 82.82C19.38 92.41 29.5 86.63 29.5 86.63C29.5 86.63 13.24 99.38 20.84 107.44C28.46 115.49 37.73 100.25 37.73 100.25C37.73 100.25 37.24 103.19 41.77 107.16C49.8 114.2 62.18 82.36 62.18 82.36L38.35 61.45Z" fill="#CF3A3A" fill-opacity="1.000000" fill-rule="nonzero"/>
	<path id="Vector" d="M42.29 64.9C42.29 64.9 27.87 72.97 28.57 79.57C29.27 86.16 36.22 82.2 36.22 82.2C36.22 82.2 25.05 90.95 30.27 96.48C35.49 102.01 41.86 91.55 41.86 91.55C41.86 91.55 41.53 93.56 44.63 96.29C50.15 101.13 58.65 79.27 58.65 79.27L42.29 64.9Z" fill="#F2B705" fill-opacity="1.000000" fill-rule="nonzero"/>
	<path id="Vector" d="M81.52 11.05C43.26 41.11 38.37 61.45 38.37 61.45C44.23 76.71 62.21 82.36 62.21 82.36C61.26 83.43 82.22 77.19 106.71 30.94C97.15 25.99 88.51 19.37 81.52 11.05Z" fill="#0455BF" fill-opacity="1.000000" fill-rule="nonzero"/>
	<path id="Vector" d="M82.53 56.72C78.26 61.59 69.53 63.33 64.12 58.58C58.69 53.82 56.31 45.78 61.71 39.66C65.98 34.79 74.24 33.86 79.67 38.61C85.09 43.36 86.81 51.86 82.53 56.72Z" fill="#03A678" fill-opacity="1.000000" fill-rule="nonzero"/>
	<path id="Vector" d="M78.2 40.45C75.54 38.11 72.03 37.46 68.89 38.2C66.84 38.67 64.96 39.74 63.58 41.31C59.19 46.29 61.12 52.83 65.54 56.7C69.14 59.87 74.54 59.49 78.29 57.1C79.13 56.56 79.88 55.93 80.52 55.2C84.02 51.24 82.63 44.32 78.2 40.45Z" fill="#F2F2F2" fill-opacity="1.000000" fill-rule="nonzero"/>
</svg>
