<svg width="110.563721" height="110.343750" viewBox="0 0 110.564 110.344" fill="none" xmlns="http://www.w3.org/2000/svg" xmlns:xlink="http://www.w3.org/1999/xlink">
	<desc>
			Created with Pixso.
	</desc>
	<defs/>
	<path id="Vector" d="M95.86 40.5C103.98 62.87 92.39 87.57 69.97 95.67C47.56 103.77 22.81 92.2 14.69 69.84C6.58 47.47 18.17 22.76 40.58 14.66C62.99 6.56 87.74 18.13 95.86 40.5Z" fill="#CF3A3A" fill-opacity="1.000000" fill-rule="evenodd"/>
	<path id="Vector" d="M62.92 45.09C62.07 46.8 59.46 47.11 57.74 46.26C56.02 45.41 55.32 43.33 56.15 41.63C57.01 39.92 59.08 39.22 60.79 40.05C62.53 40.9 63.77 43.37 62.92 45.09Z" fill="#F2B705" fill-opacity="1.000000" fill-rule="nonzero"/>
	<path id="Vector" d="M71.25 70.72C70.4 72.43 68.32 73.13 66.62 72.3C64.9 71.45 64.2 69.37 65.03 67.67C65.88 65.95 67.96 65.26 69.67 66.09C71.39 66.92 72.09 69 71.25 70.72Z" fill="#F2B705" fill-opacity="1.000000" fill-rule="nonzero"/>
	<path id="Vector" d="M40.88 88.64C40.03 90.36 37.95 91.06 36.25 90.22C34.53 89.37 33.83 87.3 34.66 85.6C35.52 83.88 37.6 83.18 39.3 84.02C41.04 84.85 41.74 86.92 40.88 88.64Z" fill="#F2B705" fill-opacity="1.000000" fill-rule="nonzero"/>
	<path id="Vector" d="M29.02 52.23C28.51 53.27 27.25 53.69 26.21 53.18C25.17 52.67 24.75 51.41 25.26 50.38C25.77 49.34 27.32 48.34 28.34 48.85C29.4 49.36 29.53 51.19 29.02 52.23Z" fill="#F2B705" fill-opacity="1.000000" fill-rule="nonzero"/>
	<path id="Vector" d="M87.42 31.91C87.02 32.76 85.98 33.1 85.14 32.69C84.29 32.28 83.95 31.24 84.36 30.41C84.77 29.56 85.81 29.22 86.64 29.63C87.49 30.04 87.83 31.06 87.42 31.91Z" fill="#F2B705" fill-opacity="1.000000" fill-rule="nonzero"/>
	<path id="Vector" d="M90.82 62.66C90.2 63.9 88.7 64.41 87.46 63.79C86.21 63.18 85.7 61.69 86.32 60.44C86.93 59.2 88.43 58.69 89.67 59.3C90.92 59.92 91.43 61.41 90.82 62.66Z" fill="#F2B705" fill-opacity="1.000000" fill-rule="nonzero"/>
	<path id="Vector" d="M27.97 45.85C26.57 47.16 23.96 46.38 22.65 44.98C21.34 43.59 21.41 41.4 22.8 40.1C24.2 38.79 26.4 38.86 27.69 40.26C29.01 41.63 29.36 44.54 27.97 45.85Z" fill="#F2B705" fill-opacity="1.000000" fill-rule="nonzero"/>
	<path id="Vector" d="M55.66 53.71C54.67 54.63 53.14 54.58 52.22 53.61C51.3 52.62 51.16 50.84 52.13 49.92C53.1 49 54.84 49.3 55.76 50.29C56.7 51.24 56.65 52.79 55.66 53.71Z" fill="#F2B705" fill-opacity="1.000000" fill-rule="nonzero"/>
	<path id="Vector" d="M34.58 67.67C33.59 68.59 32.06 68.54 31.14 67.57C30.22 66.58 30.08 64.8 31.05 63.88C32.04 62.96 33.76 63.27 34.68 64.25C35.62 65.22 35.57 66.75 34.58 67.67Z" fill="#F2B705" fill-opacity="1.000000" fill-rule="nonzero"/>
	<path id="Vector" d="M72.39 92.45C71 93.76 68.8 93.69 67.5 92.3C66.19 90.9 66.26 88.71 67.66 87.42C69.05 86.11 71.25 86.18 72.55 87.57C73.86 88.95 73.79 91.14 72.39 92.45Z" fill="#F2B705" fill-opacity="1.000000" fill-rule="nonzero"/>
	<path id="Vector" d="M47.43 86.92C46.59 87.71 45.28 87.67 44.5 86.84C43.71 86.01 43.75 84.7 44.58 83.91C45.42 83.13 46.73 83.17 47.51 84C48.31 84.83 48.26 86.14 47.43 86.92Z" fill="#F2B705" fill-opacity="1.000000" fill-rule="nonzero"/>
	<path id="Vector" d="M46.71 25.44C45.32 26.75 43.12 26.68 41.82 25.29C40.53 23.9 40.58 21.7 41.98 20.41C43.37 19.1 45.57 19.17 46.87 20.56C48.18 21.96 48.11 24.13 46.71 25.44Z" fill="#F2B705" fill-opacity="1.000000" fill-rule="nonzero"/>
</svg>
