<svg width="19.110840" height="19.072754" viewBox="0 0 19.1108 19.0728" fill="none" xmlns="http://www.w3.org/2000/svg" xmlns:xlink="http://www.w3.org/1999/xlink">
	<desc>
			Created with Pixso.
	</desc>
	<defs/>
	<path id="Vector" d="M12.76 5.89L10.52 0.61C10.16 -0.21 8.99 -0.21 8.64 0.61L6.44 5.78C6.34 6.03 6.14 6.22 5.9 6.32L0.61 8.57C-0.21 8.92 -0.21 10.09 0.61 10.44L5.79 12.63C6.04 12.74 6.23 12.93 6.34 13.18L8.58 18.45C8.94 19.27 10.11 19.27 10.46 18.45L12.66 13.28C12.76 13.04 12.96 12.84 13.2 12.74L18.49 10.5C19.31 10.14 19.31 8.97 18.49 8.62L13.31 6.43C13.04 6.32 12.85 6.11 12.76 5.89ZM10.91 6.65L9.58 3.51L8.28 6.56Q8.14 6.9 7.93 7.19Q7.79 7.36 7.64 7.52Q7.44 7.72 7.22 7.87Q6.97 8.04 6.68 8.16L3.53 9.5L6.57 10.79Q6.91 10.94 7.2 11.15Q7.37 11.28 7.53 11.44Q7.73 11.63 7.88 11.86Q8.05 12.11 8.18 12.39L9.52 15.55L10.82 12.5Q10.96 12.16 11.18 11.88Q11.31 11.7 11.46 11.54Q11.66 11.35 11.89 11.19Q12.13 11.02 12.42 10.9L15.57 9.56L12.53 8.27Q12.47 8.25 12.41 8.22Q11.93 8 11.54 7.6Q11.29 7.35 11.11 7.04Q11 6.85 10.91 6.65Z" fill="#F6B096" fill-opacity="1.000000" fill-rule="evenodd"/>
</svg>
