<svg width="56.501465" height="56.388977" viewBox="0 0 56.5015 56.389" fill="none" xmlns="http://www.w3.org/2000/svg" xmlns:xlink="http://www.w3.org/1999/xlink">
	<desc>
			Created with Pixso.
	</desc>
	<defs/>
	<path id="Vector" d="M37.74 17.41L31.1 1.82C30.06 -0.61 26.58 -0.61 25.55 1.82L19.06 17.1C18.75 17.83 18.18 18.4 17.45 18.71L1.82 25.34C-0.61 26.38 -0.61 29.85 1.82 30.88L17.14 37.36C17.86 37.67 18.44 38.24 18.75 38.96L25.39 54.56C26.43 56.99 29.91 56.99 30.95 54.56L37.43 39.28C37.74 38.55 38.32 37.98 39.04 37.67L54.67 31.04C57.11 30 57.11 26.53 54.67 25.5L39.35 19.02C38.58 18.71 38 18.09 37.74 17.41ZM35.89 18.17Q36.27 19.12 36.93 19.79Q37.6 20.48 38.58 20.86L53.88 27.34Q54.19 27.46 54.34 27.69Q54.5 27.93 54.5 28.27Q54.5 28.61 54.34 28.84Q54.19 29.07 53.89 29.2L38.26 35.83Q37.34 36.22 36.67 36.88Q36 37.55 35.59 38.49L29.11 53.77Q28.98 54.07 28.76 54.22Q28.52 54.38 28.17 54.38Q27.82 54.38 27.58 54.22Q27.36 54.07 27.23 53.77L20.58 38.18Q20.19 37.26 19.54 36.6Q18.87 35.92 17.92 35.52L2.61 29.04Q2.31 28.91 2.15 28.69Q2 28.45 2 28.11Q2 27.77 2.15 27.54Q2.31 27.31 2.61 27.18L18.24 20.55Q19.16 20.15 19.82 19.5Q20.49 18.83 20.9 17.89L27.39 2.61Q27.51 2.31 27.74 2.16Q27.97 2 28.32 2Q28.67 2 28.91 2.16Q29.13 2.31 29.26 2.61L29.26 2.61L35.89 18.17Z" fill="#F6B096" fill-opacity="1.000000" fill-rule="evenodd"/>
</svg>
