<svg width="39.883301" height="39.804016" viewBox="0 0 39.8833 39.804" fill="none" xmlns="http://www.w3.org/2000/svg" xmlns:xlink="http://www.w3.org/1999/xlink">
	<desc>
			Created with Pixso.
	</desc>
	<defs/>
	<path id="Vector" d="M26.64 12.29L21.95 1.28C21.22 -0.43 18.76 -0.43 18.03 1.28L13.45 12.07C13.23 12.58 12.83 12.99 12.32 13.21L1.29 17.89C-0.44 18.62 -0.44 21.07 1.29 21.8L12.1 26.37C12.61 26.59 13.01 26.99 13.23 27.5L17.92 38.51C18.65 40.23 21.11 40.23 21.84 38.51L26.42 27.72C26.64 27.21 27.05 26.81 27.56 26.59L38.59 21.91C40.31 21.18 40.31 18.73 38.59 18L27.78 13.42C27.23 13.21 26.83 12.77 26.64 12.29ZM24.79 13.05Q25.11 13.85 25.67 14.41Q26.22 14.95 27 15.27L37.81 19.84Q37.84 19.85 37.86 19.88Q37.88 19.91 37.88 19.95Q37.88 20 37.86 20.03Q37.84 20.05 37.81 20.07L26.77 24.75Q26.02 25.07 25.48 25.61Q24.92 26.16 24.58 26.94L20 37.73Q19.99 37.76 19.97 37.77Q19.93 37.8 19.88 37.8Q19.83 37.8 19.8 37.77Q19.77 37.76 19.76 37.73L15.07 26.71Q14.75 25.97 14.21 25.43Q13.66 24.86 12.87 24.53L2.07 19.96Q2.04 19.94 2.02 19.92Q2 19.89 2 19.84Q2 19.8 2.02 19.77Q2.04 19.74 2.07 19.73L13.1 15.04Q13.86 14.72 14.4 14.19Q14.96 13.63 15.29 12.85L19.87 2.07Q19.88 2.04 19.91 2.02Q19.94 2 19.99 2Q20.04 2 20.08 2.02Q20.1 2.04 20.11 2.07L20.11 2.07L24.79 13.05Z" fill="#F6B096" fill-opacity="1.000000" fill-rule="evenodd"/>
</svg>
