<svg width="125.141113" height="106.051758" viewBox="0 0 125.141 106.052" fill="none" xmlns="http://www.w3.org/2000/svg" xmlns:xlink="http://www.w3.org/1999/xlink">
	<desc>
			Created with Pixso.
	</desc>
	<defs/>
	<path id="Vector" d="M85.4 31.14C79.41 15.37 61.74 7.95 45.93 14.54C30.14 21.15 22.17 39.3 28.17 55.07C31.14 62.9 36.99 68.66 44.05 71.68C48.02 73.39 51.18 76.54 52.73 80.59L52.93 81.13C56.13 89.53 65.59 93.46 74.07 89.92L74.42 89.78C82.91 86.22 87.2 76.55 84.01 68.15L84 68.1C82.42 63.95 82.7 59.29 84.57 55.12C87.88 47.71 88.42 39.12 85.4 31.14Z" fill="#F2B705" fill-opacity="1.000000" fill-rule="nonzero"/>
	<g opacity="0.200000">
		<path id="Vector" d="M63.28 80.49L40.46 43.96" stroke="#FFFFFF" stroke-opacity="1.000000" stroke-width="1.174800"/>
	</g>
	<g opacity="0.200000">
		<path id="Vector" d="M74.46 78.33L71.2 35.15" stroke="#FFFFFF" stroke-opacity="1.000000" stroke-width="1.174800"/>
	</g>
	<path id="Vector" d="M81.9 92.55L72.43 96.51C66.14 99.15 59.11 96.23 56.75 89.99L53.31 80.93L84.59 67.86L88.42 77.92C90.55 83.6 87.64 90.16 81.9 92.55Z" fill="#B60949" fill-opacity="1.000000" fill-rule="nonzero"/>
	<path id="Vector" d="M40.37 45.97C43.01 46.99 46.2 46.42 47.61 43.7C48.16 42.66 48.23 41.35 47.67 40.35C47.1 39.37 45.73 38.87 44.73 39.48C43.73 40.09 43.51 41.57 44.03 42.6C44.55 43.61 45.6 44.23 46.68 44.6C50.55 45.89 55.31 44.18 57.66 40.66C58.68 39.12 59.02 36.65 57.41 35.91C55.77 35.17 53.91 37.48 54.47 39.22C55.02 40.96 56.97 41.8 58.78 41.93C61.1 42.1 63.65 41.29 65.09 39.38C66.53 37.46 66.78 32.59 64.48 33.13C62.22 33.64 63.53 38.64 65.74 39.17C67.95 39.7 71.22 37.02 71.09 34.73" stroke="#B60949" stroke-opacity="1.000000" stroke-width="0.692500" stroke-linejoin="round" stroke-linecap="round"/>
	<path id="Vector" d="M54.49 84.71C54.11 84.72 53.77 84.51 53.63 84.12C53.46 83.64 53.7 83.09 54.16 82.88C54.31 82.82 69.17 76.56 84.74 69.73C85.21 69.52 85.73 69.75 85.92 70.23C86.11 70.71 85.86 71.27 85.4 71.48C69.8 78.31 54.94 84.58 54.79 84.64C54.69 84.69 54.59 84.72 54.49 84.71Z" fill="#F2B705" fill-opacity="1.000000" fill-rule="nonzero"/>
	<path id="Vector" d="M56.13 88.74C55.75 88.76 55.4 88.54 55.26 88.16C55.1 87.67 55.33 87.12 55.8 86.92C55.94 86.86 70.8 80.59 86.38 73.76C86.84 73.56 87.37 73.78 87.56 74.26C87.74 74.74 87.5 75.31 87.04 75.51C71.44 82.35 56.58 88.61 56.43 88.67C56.33 88.7 56.22 88.73 56.13 88.74Z" fill="#F2B705" fill-opacity="1.000000" fill-rule="nonzero"/>
	<path id="Vector" d="M57.71 92.38C57.33 92.39 56.98 92.17 56.84 91.79C56.68 91.3 56.91 90.75 57.38 90.55C57.52 90.49 72.38 84.23 87.96 77.39C88.42 77.19 88.95 77.41 89.14 77.9C89.32 78.38 89.08 78.94 88.62 79.14C73.02 85.98 58.16 92.24 58.01 92.3C57.91 92.36 57.8 92.38 57.71 92.38Z" fill="#F2B705" fill-opacity="1.000000" fill-rule="nonzero"/>
	<path id="Vector" d="M60.01 95.66C59.63 95.67 59.28 95.45 59.14 95.07C58.98 94.58 59.21 94.03 59.67 93.83C59.82 93.77 73 88.58 88.6 81.76C89.06 81.55 89.59 81.78 89.77 82.26C89.96 82.74 89.72 83.3 89.25 83.51C73.65 90.35 60.47 95.53 60.32 95.59C60.21 95.64 60.1 95.64 60.01 95.66Z" fill="#F2B705" fill-opacity="1.000000" fill-rule="nonzero"/>
</svg>
