<svg width="369.627930" height="491.071045" viewBox="0 0 369.628 491.071" fill="none" xmlns="http://www.w3.org/2000/svg" xmlns:xlink="http://www.w3.org/1999/xlink">
	<desc>
			Created with Pixso.
	</desc>
	<defs/>
	<path id="Vector" d="M309.09 278.45L314.19 292.75C310.91 291.88 300.05 302.52 288.09 315.63C290.19 317.26 292.28 318.86 294.32 320.33C296.54 321.96 296.95 324.52 297.2 327.93C295.01 326.78 296.2 326.87 294.51 325.77C293.44 325.09 293.04 325.12 291.94 325.12C290.19 328.43 291.16 333.22 291.5 336.85C291.91 341.14 291.94 345.68 291.94 351.41L285.59 344.8C284.65 343.74 284.58 343.33 283.02 342.89C279.51 345.24 278.07 358.14 277.26 362.21C276.89 364.11 275.88 367.31 275.73 369.19C272.85 365.87 270.06 355.98 266.96 361.64C266.37 362.74 266.34 363.71 266.21 364.62L263.99 384.18C262.21 382.86 261.67 379.29 260.36 377.29C258.89 377.64 258.51 377.64 257.64 381.05C256.7 384.65 256.95 386.74 255.57 391.5C254.51 395.16 255.35 395.63 253.91 396.73C249.22 340.17 235.79 390.91 209.69 398.98C148.31 417.95 122.02 375.51 98.7 361.14C98.7 399.14 90.94 405.49 89.78 416.1C89.62 417.7 89.25 418.48 89.25 420.2L88.43 420.2C87.65 410.75 81.89 400.33 81.14 391.47C73.69 391.47 76.2 408.78 73.04 413.72C72.41 406.15 71.31 395.73 67.78 389.06C64.02 389.06 57.92 400.48 54.82 404.02C54.82 400.2 57.14 379.42 55.23 378.14C50.56 381.36 47.75 388.4 44.71 393.1C44.71 386.49 46.53 374.16 42.68 368.43C37.14 369.72 33.94 374.1 30.53 376.92C29.84 368.59 31.35 359.92 31.35 351.44C26.56 351.44 26.9 356.01 22.86 357.1C22.86 351.03 26.71 328.93 24.9 325.15C21.52 325.15 16.32 333.5 14.38 332.85C14.94 324.05 24.18 307.9 23.68 305.74C16.85 305.74 13.1 313.72 7.09 314.22C8.12 312.25 7.9 312.44 8.56 310.03C10.78 302.02 25.62 291.75 24.08 285.09C15.48 285.09 9.25 292.32 1.42 294.38C5.15 288.93 21.11 271.41 21.24 265.24C17.1 263.05 6.71 268.97 2.61 270.5C6.06 265.05 36.76 239.76 22.52 243.08C17.54 244.24 12.53 247.62 8.65 248.65C11.31 244.68 32.22 232.35 29.28 226.81C22.3 226.81 12.88 234.41 6.62 237.73C8.4 231.03 25.18 223.46 23.61 216.7C17.98 216.82 14.29 221.83 9.06 221.96C13.35 216.1 20.39 209.78 26.87 205.77L26.87 203.33C20.86 201.92 13.85 209.69 7.87 209.81C11.28 204.84 18.86 203.77 20.36 197.1C22.46 187.81 7.96 195.95 3.93 196.04C10.41 190.75 21.17 185.43 24.55 179.04C21.46 174.44 9.12 177.82 4.33 177.82C17.57 169.25 23.21 164.52 37.98 161.08C38.2 160.14 42.77 160.74 42.8 159.51C36.07 155.95 8.5 163.43 0.7 164.08C7.15 158.48 34.1 153.57 35.51 148.31C32.69 145.37 14.16 144.27 9.22 143.86L9.22 143.05C11.75 142.36 32.35 132.07 32.28 131.35C32.1 128.03 7.18 127.31 3.96 126.87C4.55 124.68 31.16 115.79 35.48 114.69C37.64 114.13 43.43 115.98 42.39 112.85C42.11 112 25.9 108.78 21.77 108.68C28.31 104.15 43.14 103.83 50.91 103.83L52.03 102.52C50.72 96.04 36.01 95.13 32.28 90.06C57.92 83.86 69.87 87.87 43.21 76.32C50.37 76.32 64.18 75.76 68.68 77.95C69.84 76.23 69.91 77.51 69.91 74.73C66.06 72.28 57.57 67.78 56.54 63.4C82.14 63.4 94.91 69.15 59.76 45.59C71.31 45.59 82.99 55.7 94.57 55.7C95.57 51.35 87.87 45.12 85.27 41.96C87.9 42.17 95.01 45.9 99.01 43.99C99.01 39.3 90.66 32.16 87.28 28.22C99.3 30.75 116.38 49.25 103.87 27.4C106.74 28.18 117.39 41.55 115.26 31.78C114.63 28.87 113.79 27.37 113.57 24.96C130.78 36.48 129.12 36.7 118.89 15.2C118.45 14.22 118.29 14.01 118.01 12.82C125.62 19.8 135.01 37.23 135.01 22.52C137.82 24.4 145.59 37.23 144.02 26.87C143.24 21.77 142.3 11.81 142.3 7.15C143.68 10.97 146.43 24.58 150 26.96C153.38 24.68 153.22 13.79 153.22 9.97C160.86 12 158.33 65.09 169.4 22.52L170.63 22.52C171.72 26.68 174.91 30.84 175.88 35.07C179.2 35.01 180.33 13.94 180.33 8.78L180.74 8.78C180.74 12.94 182.99 28.68 187.21 29.81C190.25 27.59 191.16 14.32 192.07 10.41C194.63 15.76 193.69 22.46 196.51 27.81C200.99 27.71 205.05 4.74 206.21 0.7C206.21 11.6 207.75 22.05 208.65 32.66C213.66 32.53 216.13 15.95 219.17 12.44C218.7 18.23 216.51 32.57 220.39 38.32C226.43 36.92 228.9 23.61 231.31 19.33C231.31 20.73 227.68 43.21 234.54 43.21C238.67 37.04 240.55 27.03 245.46 21.36C244.43 27.06 239.67 40.01 242.61 45.65C249.03 44.15 252.85 29.81 257.17 26.62C257.17 58.01 257.1 41.83 266.46 31.06C266.46 50.53 272.28 57.51 273.76 39.95C275.26 43.86 274.66 53.13 277.39 55.73C282.11 54.48 284.24 46.49 287.09 43.18C287.09 45.87 285.74 73.44 290.31 67.43C291.75 65.55 292.75 62.68 292.75 59.36C295.19 63.08 296.67 79.11 298.42 80.39C301.96 77.79 300.92 67.34 304.08 65.02C307.78 83.21 306.9 97.79 306.9 97.79C310.81 97.79 311.81 93.63 315.38 93.35C314.41 95.35 306.71 109.4 308.5 112.75C312.28 112.66 316.85 109.53 320.23 107.9C319.8 113.22 311.75 116.51 311.75 121.64C315.41 123.4 321.45 122.46 326.31 122.46C324.46 129.34 305.9 129 329.94 134.6L329.94 135.41C325.15 136.54 321.24 139.23 316.98 141.49C316.98 147.62 326.99 145.96 329.94 149.97C316.7 154.63 322.77 160.67 332.38 162.92C330.81 165.24 323.27 166.43 320.64 168.18L320.64 171.03C323.46 172.91 327.5 172.91 330.34 174.26C328.34 178.04 321.86 180.3 321.86 184.77L331.97 188.81C328.87 189.06 322.27 190.94 322.27 194.48C324.55 195.13 329.44 195.48 330.75 197.29C327.84 197.98 324.74 200.17 321.99 201.49C315.7 204.49 314.98 202.42 315.38 207.43C321.14 208.78 326.56 211.19 331.97 213.5C323.18 221.14 302.17 215.01 316.7 229.19C317.79 230.25 318.48 230.41 318.61 232.13C302.27 233.47 313.1 239.58 314.57 245.87C312.35 245.87 304.21 243.68 303.68 245.15L312.47 262.52C313.82 265.68 315.45 269.19 316.23 272.53C309.25 272.38 301.8 257.32 309.09 278.45Z" stroke="#663300" stroke-opacity="1.000000" stroke-width="1.417300" stroke-linejoin="round"/>
	<path id="Vector" d="M316.23 272.53C309.25 272.38 301.8 257.32 309.09 278.45L314.19 292.75C310.91 291.88 300.05 302.52 288.09 315.63C290.19 317.26 292.28 318.86 294.32 320.33C296.54 321.96 296.95 324.52 297.2 327.93C295.01 326.78 296.2 326.87 294.51 325.77C293.44 325.09 293.04 325.12 291.94 325.12C290.19 328.43 291.16 333.22 291.5 336.85C291.91 341.14 291.94 345.68 291.94 351.41L285.59 344.8C284.65 343.74 284.58 343.33 283.02 342.89C279.51 345.24 278.07 358.14 277.26 362.21C276.89 364.11 275.88 367.31 275.73 369.19C272.85 365.87 270.06 355.98 266.96 361.64C266.37 362.74 266.34 363.71 266.21 364.62L263.99 384.18C262.21 382.86 261.67 379.29 260.36 377.29C258.89 377.64 258.51 377.64 257.64 381.05C256.7 384.65 256.95 386.74 255.57 391.5C254.51 395.16 255.35 395.63 253.91 396.73C249.22 340.17 235.79 390.91 209.69 398.98C148.31 417.95 122.02 375.51 98.7 361.14C98.7 399.14 90.94 405.49 89.78 416.1C89.62 417.7 89.25 418.48 89.25 420.2L88.43 420.2C87.65 410.75 81.89 400.33 81.14 391.47C73.69 391.47 76.2 408.78 73.04 413.72C72.41 406.15 71.31 395.73 67.78 389.06C64.02 389.06 57.92 400.48 54.82 404.02C54.82 400.2 57.14 379.42 55.23 378.14C50.56 381.36 47.75 388.4 44.71 393.1C44.71 386.49 46.53 374.16 42.68 368.43C37.14 369.72 33.94 374.1 30.53 376.92C29.84 368.59 31.35 359.92 31.35 351.44C26.56 351.44 26.9 356.01 22.86 357.1C22.86 351.03 26.71 328.93 24.9 325.15C21.52 325.15 16.32 333.5 14.38 332.85C14.94 324.05 24.18 307.9 23.68 305.74C16.85 305.74 13.1 313.72 7.09 314.22C8.12 312.25 7.9 312.44 8.56 310.03C10.78 302.02 25.62 291.75 24.08 285.09C15.48 285.09 9.25 292.32 1.42 294.38C5.15 288.93 21.11 271.41 21.24 265.24C17.1 263.05 6.71 268.97 2.61 270.5C6.06 265.05 36.76 239.76 22.52 243.08C17.54 244.24 12.53 247.62 8.65 248.65C11.31 244.68 32.22 232.35 29.28 226.81C22.3 226.81 12.88 234.41 6.62 237.73C8.4 231.03 25.18 223.46 23.61 216.7C17.98 216.82 14.29 221.83 9.06 221.96C13.35 216.1 20.39 209.78 26.87 205.77L26.87 203.33C20.86 201.92 13.85 209.69 7.87 209.81C11.28 204.84 18.86 203.77 20.36 197.1C22.46 187.81 7.96 195.95 3.93 196.04C10.41 190.75 21.17 185.43 24.55 179.04C21.46 174.44 9.12 177.82 4.33 177.82C17.57 169.25 23.21 164.52 37.98 161.08C38.2 160.14 42.77 160.74 42.8 159.51C36.07 155.95 8.5 163.43 0.7 164.08C7.15 158.48 34.1 153.57 35.51 148.31C32.69 145.37 14.16 144.27 9.22 143.86L9.22 143.05C11.75 142.36 32.35 132.07 32.28 131.35C32.1 128.03 7.18 127.31 3.96 126.87C4.55 124.68 31.16 115.79 35.48 114.69C37.64 114.13 43.43 115.98 42.39 112.85C42.11 112 25.9 108.78 21.77 108.68C28.31 104.15 43.14 103.83 50.91 103.83L52.03 102.52C50.72 96.04 36.01 95.13 32.28 90.06C57.92 83.86 69.87 87.87 43.21 76.32C50.37 76.32 64.18 75.76 68.68 77.95C69.84 76.23 69.91 77.51 69.91 74.73C66.06 72.28 57.57 67.78 56.54 63.4C82.14 63.4 94.91 69.15 59.76 45.59C71.31 45.59 82.99 55.7 94.57 55.7C95.57 51.35 87.87 45.12 85.27 41.96C87.9 42.17 95.01 45.9 99.01 43.99C99.01 39.3 90.66 32.16 87.28 28.22C99.3 30.75 116.38 49.25 103.87 27.4C106.74 28.18 117.39 41.55 115.26 31.78C114.63 28.87 113.79 27.37 113.57 24.96C130.78 36.48 129.12 36.7 118.89 15.2C118.45 14.22 118.29 14.01 118.01 12.82C125.62 19.8 135.01 37.23 135.01 22.52C137.82 24.4 145.59 37.23 144.02 26.87C143.24 21.77 142.3 11.81 142.3 7.15C143.68 10.97 146.43 24.58 150 26.96C153.38 24.68 153.22 13.79 153.22 9.97C160.86 12 158.33 65.09 169.4 22.52L170.63 22.52C171.72 26.68 174.91 30.84 175.88 35.07C179.2 35.01 180.33 13.94 180.33 8.78L180.74 8.78C180.74 12.94 182.99 28.68 187.21 29.81C190.25 27.59 191.16 14.32 192.07 10.41C194.63 15.76 193.69 22.46 196.51 27.81C200.99 27.71 205.05 4.74 206.21 0.7C206.21 11.6 207.75 22.05 208.65 32.66C213.66 32.53 216.13 15.95 219.17 12.44C218.7 18.23 216.51 32.57 220.39 38.32C226.43 36.92 228.9 23.61 231.31 19.33C231.31 20.73 227.68 43.21 234.54 43.21C238.67 37.04 240.55 27.03 245.46 21.36C244.43 27.06 239.67 40.01 242.61 45.65C249.03 44.15 252.85 29.81 257.17 26.62C257.17 58.01 257.1 41.83 266.46 31.06C266.46 50.53 272.28 57.51 273.76 39.95C275.26 43.86 274.66 53.13 277.39 55.73C282.11 54.48 284.24 46.49 287.09 43.18C287.09 45.87 285.74 73.44 290.31 67.43C291.75 65.55 292.75 62.68 292.75 59.36C295.19 63.08 296.67 79.11 298.42 80.39C301.96 77.79 300.92 67.34 304.08 65.02C307.78 83.21 306.9 97.79 306.9 97.79C310.81 97.79 311.81 93.63 315.38 93.35C314.41 95.35 306.71 109.4 308.5 112.75C312.28 112.66 316.85 109.53 320.23 107.9C319.8 113.22 311.75 116.51 311.75 121.64C315.41 123.4 321.45 122.46 326.31 122.46C324.46 129.34 305.9 129 329.94 134.6L329.94 135.41C325.15 136.54 321.24 139.23 316.98 141.49C316.98 147.62 326.99 145.96 329.94 149.97C316.7 154.63 322.77 160.67 332.38 162.92C330.81 165.24 323.27 166.43 320.64 168.18L320.64 171.03C323.46 172.91 327.5 172.91 330.34 174.26C328.34 178.04 321.86 180.3 321.86 184.77L331.97 188.81C328.87 189.06 322.27 190.94 322.27 194.48C324.55 195.13 329.44 195.48 330.75 197.29C327.84 197.98 324.74 200.17 321.99 201.49C315.7 204.49 314.98 202.42 315.38 207.43C321.14 208.78 326.56 211.19 331.97 213.5C323.18 221.14 302.17 215.01 316.7 229.19C317.79 230.25 318.48 230.41 318.61 232.13C302.27 233.47 313.1 239.58 314.57 245.87C312.35 245.87 304.21 243.68 303.68 245.15L312.47 262.52C313.82 265.68 315.45 269.19 316.23 272.53Z" fill="#CC0955" fill-opacity="1.000000" fill-rule="evenodd"/>
	<path id="Vector" d="M278.23 301.92L290.88 284.74C289.72 281.39 288.53 277.92 287.68 274.47C286.37 268.97 286.65 263.36 288.97 258.64L276.35 240.7L289.31 239.04C285.37 229.53 280.17 228.28 282.58 226.24C282.99 224.74 298.67 228.65 299.29 227.37C298.42 223.18 292.35 217.35 294.57 212.69C295.07 211.63 295.66 210.63 296.29 209.69L296.23 208.97C295.7 202.55 296.6 196.88 300.92 191.69C301.52 190.97 302.08 190.37 302.61 189.81L302.61 184.71C302.61 183.86 312 185.71 312.1 184.87L301.39 181.24L295.1 165.65L318.2 158.58C318.2 158.48 303.05 156.51 303.05 156.42C299.73 152.6 285.84 146.99 285.84 140.73L309.47 137.95L292.47 133.72L281.77 129.87L298.11 120.17C292.63 117.45 280.08 122.08 280.74 117.35L288 101.55C287.75 100.23 273.35 104.65 273.35 102.64C280.77 93.38 277.45 90.72 285.46 82.74C281.58 80.7 264.49 93.72 262.71 90L274.13 73.57C273.38 72.85 254.82 82.14 254.19 81.36C252.35 80.52 258.54 65.43 257.07 64.11C256.32 64.08 244.3 76.42 243.55 76.29C242.21 76.07 252.19 63.36 251.06 62.99C249.78 63.52 248.4 63.99 246.96 64.33L232.47 67.71L229.34 61.83C227.78 61.45 233.41 49.87 231.97 49.15C230.56 48.47 222.17 58.76 221.02 57.92L211.69 60.08L209.66 42.08L190.84 52.28L190.72 50.69L189.28 37.95C186.09 40.52 181.08 54.19 176.23 54.29L174.38 54.32C170.44 57.23 163.74 42.96 158.23 42.27C158.92 49.94 149.34 60.3 146.43 56.07C143.02 56.6 137.76 40.67 134.79 39.55C130.63 42.39 130.78 59.98 126.78 59.48C126.68 59.55 124.21 52.1 124.08 52.16C122.08 53.25 115.66 41.02 113.76 41.39L118.17 56.04L119.33 68.28C119.23 68.87 103.15 60.77 102.99 61.36L109.72 74.91L85.56 66.74C83.4 69.62 91.41 79.7 88.34 80.98C87.62 84.15 75.85 82.36 73.51 84.96L75.23 102.49L65.84 96.76L72.63 107.87L55.26 108.4L59.2 123.02C58.76 123.83 58.26 124.65 57.7 125.43C55.76 128.06 39.39 129.56 37.14 130.84C37.17 132.78 51.22 134.88 50.81 136.48L56.79 142.77L56.26 144.77L62.24 147.93L45.4 152.5C45.24 159.33 58.98 171.78 54.51 175.07L32.07 174.47L51.69 181.17L27.84 191.34L46.24 188.06L33.16 205.81L55.76 213.35L34.04 224.43C34.76 225.77 59.3 223.8 59.73 225.27C58.61 227.18 39.58 238.83 36.38 244.11C45.52 249.65 53.07 249.81 55.57 254.69L29.87 271.28C29.84 272.47 55.76 264.65 55.57 265.84L33.91 287.34C43.43 288.43 45.3 288.81 55.48 288.4L36.38 306.62C47.71 305.21 48.09 306.34 52.88 306.15L35.2 325.46C37.39 330.03 51.81 323.39 51.6 328.9L34.57 353.07L50.56 343.86L51.03 367.68L58.26 356.88L61.61 383.36C65.24 377.29 71.28 366.81 72.72 369.78L80.33 385.43C80.42 382.52 79.45 363.99 79.45 361.17L79.45 326.62L108.84 344.74C123.36 353.69 134.63 367.12 149.66 375.91C167.31 386.21 184.68 386.52 203.99 380.55C206.28 379.83 208.97 377.64 210.72 376.07C215.01 372.25 218.73 367.71 222.64 363.52C229.81 355.88 239.73 340.42 251.03 342.39C251.38 342.46 263.27 360.73 263.61 360.8C263.05 349.84 264.12 336.01 263.21 330.37C267.68 333.22 265.52 329.44 275.92 336.7L269.78 321.49L285.21 329C282.55 315.85 272.22 307.4 278.23 301.92Z" fill="#B60949" fill-opacity="1.000000" fill-rule="evenodd"/>
	<path id="Vector" d="M269.06 279.51C269.03 279.33 268.97 279.14 268.94 278.95C267.43 272.72 267.21 266.43 268.28 260.45L261.86 247.78L267.37 232.22C268.84 228.06 270.78 224.46 273.07 221.36C273.13 216.04 274.29 210.59 276.79 205.09C276.95 197.54 263.46 169.5 266.78 163.68L285.99 149.12C284.52 145.87 267.46 142.99 258.04 142.86L277.1 128.18L256.01 124.12C267.46 112.85 263.68 113.13 269.75 108.59L242.3 111.25C240.08 108.87 259.36 92.53 258.07 90.09C253.29 91.19 241.39 97.67 237.07 96.54L245.02 80.7C244.9 80.58 222.17 97.67 222.05 97.54L232.38 76.2L212.72 92.66L216.01 67.71L198.14 89.59L201.24 63.43L191.53 84.21L187.18 61.52C184.37 62.42 175.48 83.96 172.13 84.24C169.25 73.97 167.81 68.5 167.06 58.14C164.59 67.15 155.48 86.21 152.13 84.74L150.47 59.08L142.64 81.14C140.23 79.95 140.52 70.91 138.48 69.28C136.32 70 139.23 89.06 137.01 89.37L130.41 71.56L125.15 94.16L98.29 78.86C98.23 78.89 114.35 101.89 116.57 105.93C110.13 103.43 86.68 96.13 84.84 95.01L99.92 115.04L80.55 108.87L94.13 128.28L74.85 123.58L91.22 134.82L61.67 134.19L84.43 146.68L62.89 151.19C69.31 157.79 72.88 159.08 84.24 171.78L56.63 180.86L80.67 185.3L52.79 202.49C61.77 202.68 72.97 204.02 82.64 204.55C73.91 209.91 66.31 213.79 60.42 218.04L85.87 228.87C85.87 229.53 56.07 244.49 56.01 245.12L76.98 254.54C78.42 260.73 51.66 276.57 50.75 281.83L81.86 270.63C110.81 288.47 158.79 373.38 196.89 362.33C197.23 362.05 197.57 361.74 197.86 361.49C201.64 358.11 205.09 353.85 208.56 350.12C217.86 340.2 228.81 332.78 241.96 331.66C242.58 331.09 243.24 330.53 243.9 330L231.41 320.33L259.54 289.44C262.68 286.24 265.84 282.83 269.06 279.51Z" fill="#9F0740" fill-opacity="1.000000" fill-rule="evenodd"/>
	<path id="Vector" d="M248.94 272.72C248.69 269.97 248.59 267.21 248.65 264.46L240.89 249.15L249.15 225.81C250.59 221.77 252.25 218.07 254.16 214.76C254.73 210.09 255.88 205.43 257.7 200.74C258.26 193.51 260.01 186.68 262.8 180.45L269 147.31C268.9 147.03 239.36 151.31 239.26 151.03L263.24 133.97L231.85 141.49C240.11 128.12 246.71 122.8 253.32 116.92C253.04 116.51 220.11 129.37 219.83 128.94C223.96 123.68 240.55 104.3 243.02 99.89L208.56 118.33L207.28 97.35L193.66 115.45L187.31 85.34C186.71 85.43 185.43 114.85 184.84 114.91C179.36 108.09 174.57 92.25 171.88 88.78C170.47 88.59 167.56 115.1 166.24 114.85L153.69 88.12L154.63 113.76C153.72 113.54 145.77 94.51 144.9 94.26L146.53 127.78L114.38 113.51L121.27 127.97L99.3 117.86L110.88 140.02L90.63 138.2C94.35 143.49 106.03 155.07 112.19 159.36L85.99 164.71L108.75 175.88L85.12 188.09C92.72 191.44 96.35 195.6 105.62 196.89C97.98 202.52 83.61 211.1 77.42 215.48L101.74 226.34C95.85 233.13 77.86 240.7 69.78 246.93L106.28 247.78C90.25 257.1 90.75 254.63 77.26 266.4C79.45 267.68 106.9 251.66 122.61 263.9C152.38 287.15 183.11 346.06 187.28 345.12C189.75 342.55 192.19 339.61 194.54 337.1C198.42 332.97 202.58 329.22 207 325.93L203.15 322.93L245.37 276.6C246.53 275.35 247.71 274.04 248.94 272.72Z" fill="#890737" fill-opacity="1.000000" fill-rule="evenodd"/>
	<path id="Vector" d="M218.39 139.89C219.89 140.02 219.11 141.02 219.11 145.49L219.3 146.87C219.55 149.12 219.11 151.31 219.11 153.6C224.62 153.6 224.43 149.66 228.4 148.75C228.25 150.47 222.02 165.34 224.77 165.34C226.9 165.34 228.72 163.74 230.13 162.61L240.95 154.82C240.23 157.89 241.8 157.64 244.18 157.64L255.48 155.16C257.17 155.01 257.79 154.79 259.95 154.79C260.64 157.73 263.77 158.14 266.24 157.86C269.59 157.48 271.69 156.95 274.95 157.23C276.45 160.39 275.07 159.76 281.33 159.45C285.31 159.26 285.24 160.42 282.02 167.93C280.05 172.5 283.68 172.6 287.09 172.6C287.09 176.17 285.31 179.36 284.21 182.68C283.33 185.3 282.46 185.09 283.83 187.96C286.37 187.75 287.71 186.59 291.91 186.34C295.88 186.09 295.7 184.96 299.29 187.06C300.89 188 302.18 188.78 303.43 190.22C306.96 194.22 306.71 202.14 304.37 206.84C303.52 208.5 303.43 208.47 302.43 209.75C300.01 212.79 295.76 214.63 291.85 215.7C285.68 217.39 287.43 217.07 279.83 217.07C276.79 217.07 272.13 211.72 272.13 219.89C273.63 220.3 273.6 221.49 274.23 223.05C275.41 226.06 275.76 231.22 274.63 234.54L271.53 243.18C271.25 243.68 271.19 243.83 270.97 244.24C269.15 247.46 266.87 250.03 264.18 252.44C258.48 257.54 251.31 259.51 243.96 261.36C242.3 261.77 241.05 262.39 239.61 262.68C238.17 262.96 238.45 262.77 237.29 263.18L230.81 264.8C229.19 265.4 228.25 265.55 226.4 266.06L217.54 268.53C215.79 269.03 214.88 269.4 213.38 270.03C212.38 270.44 212.28 270.53 211.47 270.94L207.9 273.04C207.15 273.5 206.78 273.72 206.15 274.13C205.34 274.66 205.31 274.63 204.34 275.13C196.2 279.58 192.13 280.14 182.71 278.95C178.86 278.45 173.1 274.04 170.44 271.38C168.44 269.37 167.06 267.81 165.18 265.71L160.67 260.48C156.54 255.38 154.82 253.97 149.5 250.22L147.81 249.09C142.83 246.15 137.51 244.58 132.1 242.55C130.66 242.02 129.81 241.33 128.31 240.67C123.52 238.48 118.67 235.48 115.16 231.6C113.29 229.5 111.88 227.28 110.91 224.52C110.25 222.64 109.91 222.3 109.41 220.36C107.5 212.91 105.9 210.69 107.72 202.39C108.34 199.51 109.88 194.22 111.19 191.72C111.6 190.91 111.13 191.78 111.66 190.97C112 190.44 112 190.47 112.32 190C113.32 188.4 113.57 188.25 114.82 186.84C115.38 186.21 115.54 185.9 116.04 185.24C121.21 178.48 127.25 179.39 127.25 176.23C127.25 174.48 123.21 174.51 121.96 174.22C119.52 173.72 116.85 173.51 114.57 172.69C109.97 171.06 108.12 170.88 104.74 166.74L102.36 163.05C99.3 158.11 99.89 152.03 102.68 146.81C104.4 143.55 106.84 140.92 110.38 139.92C117.11 138.01 121.52 137.61 128.06 140.99C130.47 142.24 133.69 144.12 135.51 146.09L136.67 147.34C137.98 148.75 138.2 150.97 140.2 151.5C141.27 149.28 140.8 149.19 142.49 146.53C146.28 140.55 145.74 143.93 149.5 144.24C150.47 143.33 150.59 142.93 151.31 141.61L154.23 137.23C154.82 136.54 154.73 136.54 155.29 135.85C156.32 134.6 156.67 134.44 158.01 133.72C158.11 137.42 160.86 135.35 162.17 133.85C163.36 132.5 163.27 132.88 164.71 131.94C166.28 130.91 168.75 128.97 170.56 128.5C171.66 130.56 172.29 134.88 176.98 131.28C177.89 130.59 178.58 130.12 179.64 129.47L185.52 126.46C185.52 132.6 190.69 129.06 194.07 127.31C195.92 126.37 199.33 125.77 201.3 124.84C204.96 132.44 199.17 132.13 210.19 132.13C210.66 134.16 210.25 138.76 212.5 139.92C213.26 140.33 212.72 140.23 213.85 140.23L218.39 139.89Z" stroke="#663300" stroke-opacity="1.000000" stroke-width="1.417300" stroke-linejoin="round"/>
	<path id="Vector" d="M213.85 140.23L218.39 139.89C219.89 140.02 219.11 141.02 219.11 145.49L219.3 146.87C219.55 149.12 219.11 151.31 219.11 153.6C224.62 153.6 224.43 149.66 228.4 148.75C228.25 150.47 222.02 165.34 224.77 165.34C226.9 165.34 228.72 163.74 230.13 162.61L240.95 154.82C240.23 157.89 241.8 157.64 244.18 157.64L255.48 155.16C257.17 155.01 257.79 154.79 259.95 154.79C260.64 157.73 263.77 158.14 266.24 157.86C269.59 157.48 271.69 156.95 274.95 157.23C276.45 160.39 275.07 159.76 281.33 159.45C285.31 159.26 285.24 160.42 282.02 167.93C280.05 172.5 283.68 172.6 287.09 172.6C287.09 176.17 285.31 179.36 284.21 182.68C283.33 185.3 282.46 185.09 283.83 187.96C286.37 187.75 287.71 186.59 291.91 186.34C295.88 186.09 295.7 184.96 299.29 187.06C300.89 188 302.18 188.78 303.43 190.22C306.96 194.22 306.71 202.14 304.37 206.84C303.52 208.5 303.43 208.47 302.43 209.75C300.01 212.79 295.76 214.63 291.85 215.7C285.68 217.39 287.43 217.07 279.83 217.07C276.79 217.07 272.13 211.72 272.13 219.89C273.63 220.3 273.6 221.49 274.23 223.05C275.41 226.06 275.76 231.22 274.63 234.54L271.53 243.18C271.25 243.68 271.19 243.83 270.97 244.24C269.15 247.46 266.87 250.03 264.18 252.44C258.48 257.54 251.31 259.51 243.96 261.36C242.3 261.77 241.05 262.39 239.61 262.68C238.17 262.96 238.45 262.77 237.29 263.18L230.81 264.8C229.19 265.4 228.25 265.55 226.4 266.06L217.54 268.53C215.79 269.03 214.88 269.4 213.38 270.03C212.38 270.44 212.28 270.53 211.47 270.94L207.9 273.04C207.15 273.5 206.78 273.72 206.15 274.13C205.34 274.66 205.31 274.63 204.34 275.13C196.2 279.58 192.13 280.14 182.71 278.95C178.86 278.45 173.1 274.04 170.44 271.38C168.44 269.37 167.06 267.81 165.18 265.71L160.67 260.48C156.54 255.38 154.82 253.97 149.5 250.22L147.81 249.09C142.83 246.15 137.51 244.58 132.1 242.55C130.66 242.02 129.81 241.33 128.31 240.67C123.52 238.48 118.67 235.48 115.16 231.6C113.29 229.5 111.88 227.28 110.91 224.52C110.25 222.64 109.91 222.3 109.41 220.36C107.5 212.91 105.9 210.69 107.72 202.39C108.34 199.51 109.88 194.22 111.19 191.72C111.6 190.91 111.13 191.78 111.66 190.97C112 190.44 112 190.47 112.32 190C113.32 188.4 113.57 188.25 114.82 186.84C115.38 186.21 115.54 185.9 116.04 185.24C121.21 178.48 127.25 179.39 127.25 176.23C127.25 174.48 123.21 174.51 121.96 174.22C119.52 173.72 116.85 173.51 114.57 172.69C109.97 171.06 108.12 170.88 104.74 166.74L102.36 163.05C99.3 158.11 99.89 152.03 102.68 146.81C104.4 143.55 106.84 140.92 110.38 139.92C117.11 138.01 121.52 137.61 128.06 140.99C130.47 142.24 133.69 144.12 135.51 146.09L136.67 147.34C137.98 148.75 138.2 150.97 140.2 151.5C141.27 149.28 140.8 149.19 142.49 146.53C146.28 140.55 145.74 143.93 149.5 144.24C150.47 143.33 150.59 142.93 151.31 141.61L154.23 137.23C154.82 136.54 154.73 136.54 155.29 135.85C156.32 134.6 156.67 134.44 158.01 133.72C158.11 137.42 160.86 135.35 162.17 133.85C163.36 132.5 163.27 132.88 164.71 131.94C166.28 130.91 168.75 128.97 170.56 128.5C171.66 130.56 172.29 134.88 176.98 131.28C177.89 130.59 178.58 130.12 179.64 129.47L185.52 126.46C185.52 132.6 190.69 129.06 194.07 127.31C195.92 126.37 199.33 125.77 201.3 124.84C204.96 132.44 199.17 132.13 210.19 132.13C210.66 134.16 210.25 138.76 212.5 139.92C213.26 140.33 212.72 140.23 213.85 140.23Z" fill="#F6B096" fill-opacity="1.000000" fill-rule="evenodd"/>
	<path id="Vector" d="M125.27 297.6C125.27 304.4 125.9 314.04 127 320.55C127.12 321.36 127.46 322.11 127.68 323.08C124.87 323.08 113.29 320.23 112.32 316.6C113.88 316.2 116.64 313.97 117.95 312.91C120.49 310.88 119.89 308.12 115.04 311.63L99.14 326.46C99.08 326.53 98.98 326.59 98.92 326.65L92.94 333.63C92.38 334.38 91.97 334.94 91.35 335.66C87.09 340.61 94.91 343.27 94.91 350.56C94.91 354.69 89.97 354.04 87.65 352.57C86.84 352.03 86.18 351.25 85.12 351.19L84.62 351.28C83.71 351.41 72.88 373.25 66.49 359.92C65.96 358.83 65.46 357.95 65.37 356.6C65.21 354.6 65.71 353.76 64.96 352.16C62.96 352.63 63.3 352.6 63.3 354.98C63.3 359.14 63.08 360.7 65.62 363.65C66.46 364.65 65.77 363.58 66.15 364.99C60.14 366.74 52 365.4 51.63 356.16C51.53 354.1 51.6 351.75 52.47 349.78C53.13 348.34 53.57 348.84 53.63 346.46C51.25 346.52 50.91 348.12 49.81 349.91C48.81 351.6 49.19 354.41 49.19 356.57C47.21 356.1 46.09 355.82 44.87 354.41C44.8 354.35 44.74 354.26 44.68 354.19L44.3 353.75C44.12 353.54 43.8 353.16 43.58 352.85C40.99 348.84 42.58 344.43 43.05 339.95C43.58 334.98 45.52 330.12 48.25 326.12C61.83 306.09 94.41 244.24 128.87 248.56C126.87 256.32 125.27 270.56 125.27 278.61L125.27 297.6Z" stroke="#663300" stroke-opacity="1.000000" stroke-width="1.417300" stroke-linejoin="round"/>
	<path id="Vector" d="M125.27 278.61L125.27 297.6C125.27 304.4 125.9 314.04 127 320.55C127.12 321.36 127.46 322.11 127.68 323.08C124.87 323.08 113.29 320.23 112.32 316.6C113.88 316.2 116.64 313.97 117.95 312.91C120.49 310.88 119.89 308.12 115.04 311.63L99.14 326.46C99.08 326.53 98.98 326.59 98.92 326.65L92.94 333.63C92.38 334.38 91.97 334.94 91.35 335.66C87.09 340.61 94.91 343.27 94.91 350.56C94.91 354.69 89.97 354.04 87.65 352.57C86.84 352.03 86.18 351.25 85.12 351.19L84.62 351.28C83.71 351.41 72.88 373.25 66.49 359.92C65.96 358.83 65.46 357.95 65.37 356.6C65.21 354.6 65.71 353.76 64.96 352.16C62.96 352.63 63.3 352.6 63.3 354.98C63.3 359.14 63.08 360.7 65.62 363.65C66.46 364.65 65.77 363.58 66.15 364.99C60.14 366.74 52 365.4 51.63 356.16C51.53 354.1 51.6 351.75 52.47 349.78C53.13 348.34 53.57 348.84 53.63 346.46C51.25 346.52 50.91 348.12 49.81 349.91C48.81 351.6 49.19 354.41 49.19 356.57C47.21 356.1 46.09 355.82 44.87 354.41C44.8 354.35 44.74 354.26 44.68 354.19L44.3 353.75C44.12 353.54 43.8 353.16 43.58 352.85C40.99 348.84 42.58 344.43 43.05 339.95C43.58 334.98 45.52 330.12 48.25 326.12C61.83 306.09 94.41 244.24 128.87 248.56C126.87 256.32 125.27 270.56 125.27 278.61Z" fill="#F6B096" fill-opacity="1.000000" fill-rule="evenodd"/>
	<path id="Vector" d="M148.37 310.5C144.3 309.81 140.08 310.75 136.38 312.78C133.69 314.26 133.03 315.23 131.56 317.67C130.78 318.95 130.06 319.54 129.72 321.08L128.87 316.6C129.03 314.54 128.56 313.69 128.5 311.75C128.37 307.37 127.71 310.16 127.71 301.61L127.31 291.5C127.31 283.08 127.21 279.61 127.93 271.85C128.03 270.84 128.4 268.9 128.5 267.62C128.72 264.77 128.4 261.05 129.37 257.57C130.44 253.72 130.47 244.58 132.57 244.58C134.88 244.58 134.6 245.65 139.73 247.53C142.77 248.65 143.36 248.75 146.4 250.56C147.12 251 147.75 251.35 148.4 251.81C149.34 252.47 149.28 252.5 150.38 253.1C150.38 255.82 149.72 259.54 149.84 264.05L150.22 274.47C151.47 287.62 150.47 291.97 153.54 306.62L154.79 313.79C153.03 313.32 151.56 311.03 148.37 310.5Z" stroke="#663300" stroke-opacity="1.000000" stroke-width="1.417300" stroke-linejoin="round"/>
	<path id="Vector" d="M154.79 313.79C153.03 313.32 151.56 311.03 148.37 310.5C144.3 309.81 140.08 310.75 136.38 312.78C133.69 314.26 133.03 315.23 131.56 317.67C130.78 318.95 130.06 319.54 129.72 321.08L128.87 316.6C129.03 314.54 128.56 313.69 128.5 311.75C128.37 307.37 127.71 310.16 127.71 301.61L127.31 291.5C127.31 283.08 127.21 279.61 127.93 271.85C128.03 270.84 128.4 268.9 128.5 267.62C128.72 264.77 128.4 261.05 129.37 257.57C130.44 253.72 130.47 244.58 132.57 244.58C134.88 244.58 134.6 245.65 139.73 247.53C142.77 248.65 143.36 248.75 146.4 250.56C147.12 251 147.75 251.35 148.4 251.81C149.34 252.47 149.28 252.5 150.38 253.1C150.38 255.82 149.72 259.54 149.84 264.05L150.22 274.47C151.47 287.62 150.47 291.97 153.54 306.62L154.79 313.79Z" fill="#C0D810" fill-opacity="1.000000" fill-rule="evenodd"/>
	<path id="Vector" d="M221.83 317.92C218.01 317.42 213.38 317.51 210.19 319.04C215.26 297.42 222.27 275.95 225.24 268.59C228.59 267.53 249.91 261.86 250.53 262.64C245.74 279.36 235.04 304.68 231.25 322.67C229.22 321.3 228.44 318.79 221.83 317.92Z" stroke="#663300" stroke-opacity="1.000000" stroke-width="1.417300" stroke-linejoin="round"/>
	<path id="Vector" d="M231.25 322.67C229.22 321.3 228.44 318.79 221.83 317.92C218.01 317.42 213.38 317.51 210.19 319.04C215.26 297.42 222.27 275.95 225.24 268.59C228.59 267.53 249.91 261.86 250.53 262.64C245.74 279.36 235.04 304.68 231.25 322.67Z" fill="#C0D810" fill-opacity="1.000000" fill-rule="evenodd"/>
	<path id="Vector" d="M151.56 254.32C151.63 254.41 151.72 254.41 151.72 254.57C151.72 254.73 151.85 254.79 151.85 254.85C151.97 255.41 151.94 255.38 151.94 255.95C154.1 256.2 157.07 260.26 158.45 261.99L158.98 262.64C159.05 262.71 159.11 262.8 159.17 262.86C162.74 267.03 164.37 269.19 168.31 273.13L176.42 279.61C179.92 281.49 185.71 281.92 189.75 282.49C191.91 282.8 193.47 282.24 195.23 281.83C199.58 280.8 200.3 280.3 204.59 278.23L208.72 275.88C209.47 275.45 209.06 275.73 209.72 275.29L210.41 274.76C212.5 273.25 218.95 270.19 223.36 269.19C221.71 273.29 211.63 305.74 209.03 318.54C208.75 319.92 207.81 320.77 207.28 321.39C206.53 322.24 205.56 322.89 204.8 323.77C203.24 325.65 203.15 328.12 202.08 330.34L175.1 327.81C168.25 326.81 168.34 326.53 162.33 325.21C155.85 323.8 161.77 323.05 157.04 316.76C155.38 314.57 156.01 313.63 155.38 309.03C154.66 303.55 152.66 295.54 152.32 289.09C151.91 280.08 151.16 271.41 151.16 260.39C151.16 257.7 151.56 256.88 151.56 254.32Z" stroke="#663300" stroke-opacity="1.000000" stroke-width="1.417300" stroke-linejoin="round"/>
	<path id="Vector" d="M151.16 260.39C151.16 257.7 151.56 256.88 151.56 254.32C151.63 254.41 151.72 254.41 151.72 254.57C151.72 254.73 151.85 254.79 151.85 254.85C151.97 255.41 151.94 255.38 151.94 255.95C154.1 256.2 157.07 260.26 158.45 261.99L158.98 262.64C159.05 262.71 159.11 262.8 159.17 262.86C162.74 267.03 164.37 269.19 168.31 273.13L176.42 279.61C179.92 281.49 185.71 281.92 189.75 282.49C191.91 282.8 193.47 282.24 195.23 281.83C199.58 280.8 200.3 280.3 204.59 278.23L208.72 275.88C209.47 275.45 209.06 275.73 209.72 275.29L210.41 274.76C212.5 273.25 218.95 270.19 223.36 269.19C221.71 273.29 211.63 305.74 209.03 318.54C208.75 319.92 207.81 320.77 207.28 321.39C206.53 322.24 205.56 322.89 204.8 323.77C203.24 325.65 203.15 328.12 202.08 330.34L175.1 327.81C168.25 326.81 168.34 326.53 162.33 325.21C155.85 323.8 161.77 323.05 157.04 316.76C155.38 314.57 156.01 313.63 155.38 309.03C154.66 303.55 152.66 295.54 152.32 289.09C151.91 280.08 151.16 271.41 151.16 260.39Z" fill="#F6B096" fill-opacity="1.000000" fill-rule="evenodd"/>
	<path id="Vector" d="M270.91 249.47C272.13 250.34 271.78 250.88 273.35 251.88C277.48 254.54 281.55 257.32 285.21 260.64C285.43 260.83 285.71 261.08 285.84 261.2L286.46 261.8C286.87 262.21 286.68 262.05 287.09 262.39L287.75 262.96C289.78 264.83 290.81 267.03 292.66 268.97C295.13 271.53 297.01 272.69 298.7 275.44L301.96 280.3C304.77 284.9 318.89 297.79 314.32 303.8L311.78 312.5C308.59 314.88 298.79 320.2 293.76 319.14C288.68 318.07 278.98 305.84 275.48 302.74L264.68 292.5C263.8 291.78 259.8 288 258.98 289.69C258.39 290.91 259.98 291.38 260.83 291.91C263.52 293.69 263.4 294.38 262.89 297.2C261.74 303.49 260.42 313.35 258.7 319.29C257.98 321.8 257.79 324.05 257.04 326.56C256.42 328.75 255.66 331.5 254.79 333.19C246.43 333.19 250.06 334.29 240.92 332.91C238.67 332.57 236.54 332.44 234.57 331.97C234.54 330.81 234.29 329.4 234.1 327.96C233.88 326.24 233.44 325.96 232.91 324.68C240.8 290.66 246.87 287.75 252.94 261.61C258.04 260.55 263.11 257.51 270.91 249.47Z" stroke="#663300" stroke-opacity="1.000000" stroke-width="1.417300" stroke-linejoin="round"/>
	<path id="Vector" d="M252.94 261.61C258.04 260.55 263.11 257.51 270.91 249.47C272.13 250.34 271.78 250.88 273.35 251.88C277.48 254.54 281.55 257.32 285.21 260.64C285.43 260.83 285.71 261.08 285.84 261.2L286.46 261.8C286.87 262.21 286.68 262.05 287.09 262.39L287.75 262.96C289.78 264.83 290.81 267.03 292.66 268.97C295.13 271.53 297.01 272.69 298.7 275.44L301.96 280.3C304.77 284.9 318.89 297.79 314.32 303.8L311.78 312.5C308.59 314.88 298.79 320.2 293.76 319.14C288.68 318.07 278.98 305.84 275.48 302.74L264.68 292.5C263.8 291.78 259.8 288 258.98 289.69C258.39 290.91 259.98 291.38 260.83 291.91C263.52 293.69 263.4 294.38 262.89 297.2C261.74 303.49 260.42 313.35 258.7 319.29C257.98 321.8 257.79 324.05 257.04 326.56C256.42 328.75 255.66 331.5 254.79 333.19C246.43 333.19 250.06 334.29 240.92 332.91C238.67 332.57 236.54 332.44 234.57 331.97C234.54 330.81 234.29 329.4 234.1 327.96C233.88 326.24 233.44 325.96 232.91 324.68C240.8 290.66 246.87 287.75 252.94 261.61Z" fill="#F6B096" fill-opacity="1.000000" fill-rule="evenodd"/>
	<path id="Vector" d="M137.17 337.1C130.85 334.01 128.53 322.49 135.26 316.54C139.05 313.19 141.71 313 146.68 313C148.78 313 149.78 313.85 151.82 315.16C153.35 316.13 153.69 316.13 154.6 317.23C156.6 319.58 157.64 322.17 157.04 325.81C156.51 329.09 155.01 332.47 152.72 334.85C151.03 336.57 147.68 338.07 145.09 338.07C141.83 338.07 139.83 338.39 137.17 337.1Z" stroke="#663300" stroke-opacity="1.000000" stroke-width="1.417300" stroke-linejoin="round"/>
	<path id="Vector" d="M145.09 338.07C141.83 338.07 139.83 338.39 137.17 337.1C130.85 334.01 128.53 322.49 135.26 316.54C139.05 313.19 141.71 313 146.68 313C148.78 313 149.78 313.85 151.82 315.16C153.35 316.13 153.69 316.13 154.6 317.23C156.6 319.58 157.64 322.17 157.04 325.81C156.51 329.09 155.01 332.47 152.72 334.85C151.03 336.57 147.68 338.07 145.09 338.07Z" fill="#FECC00" fill-opacity="1.000000" fill-rule="evenodd"/>
	<path id="Vector" d="M194.85 431.91C192.94 432.06 190.81 432.53 188.5 432.85L175.85 433.94C174.66 433.97 173.63 433.91 172.53 433.82C159.51 432.66 150.72 428.68 145.9 428.28C146.02 429.97 146.9 429.97 149.66 431C153.57 432.47 163.05 435.26 167.15 435.35C167.09 438.67 164.93 443.8 164.71 446.68C162.64 446.21 157.07 443.46 148.09 441.48C139.64 439.64 130.09 440.2 121.67 440.89C116.51 441.3 92.35 444.65 88 446.74C96.23 411.47 96.98 423.61 86.99 392.16L84.02 372.1C83.96 370.03 83.93 367.34 84.12 365.3C84.37 362.46 85.24 357.76 85.24 354.29C87.15 355.57 91.06 357.79 94.07 356.23C94.66 355.91 94.22 356.16 94.79 355.73C95.13 355.44 95.23 355.38 95.45 355.16C97.6 353.28 97.64 350.72 97.32 347.84C97.14 345.99 96.29 343.83 95.13 342.36C95.07 342.3 95.01 342.2 94.94 342.14C94.1 341.05 93.22 339.92 92.91 338.48L96.2 334.07C98.58 331.38 108.9 319.89 110.72 318.67C114.69 321.33 119.36 323.52 124.18 324.68C126.87 325.33 125.96 324.74 128.94 324.74C129.31 329.4 129.5 332.13 132.32 335.91C138.04 343.58 152.66 341.08 157.17 332.35C158.45 329.84 158.86 329.09 158.86 325.96C161.46 326.18 170.09 328.71 174.51 329.28L196.51 331.19C199.3 331.41 199.3 332 202.14 332C201.96 334.1 202.27 336.38 202.93 338.48C203.99 341.89 206.4 344.99 209.56 346.4C212.03 347.49 214.73 348.56 217.54 348.71C224.12 349.09 229.94 345.62 233 339.83C234.19 337.57 233.94 334.88 234.48 333.6C238.26 333.6 243.8 335.23 253.88 335.23C253.88 338.26 254.79 341.36 254.85 344.21L255.13 352.63C254.76 359.01 255.23 367.68 253.88 373.25C252.66 378.29 252.47 383.05 251 388.18L248.87 396.98C247.62 402.02 247.28 403.52 247.15 408.78C247.18 418.23 247.87 425.3 251.53 432.97C244.55 437.63 240.55 435.85 233.07 437.42C230.19 438.01 228.15 438.79 225.15 439.2C219.14 440.01 214.6 441.45 208.75 442.64C205.74 443.24 202.99 443.36 199.89 443.93C193.76 445.05 185.12 446.65 177.95 446.65C176.63 444.68 177.29 438.54 176.51 435.76C180.99 435.73 193.16 433.79 194.04 434.35C195.66 433.25 195.26 433.72 194.85 431.91Z" stroke="#663300" stroke-opacity="1.000000" stroke-width="1.417300" stroke-linejoin="round"/>
	<path id="Vector" d="M194.04 434.35C195.66 433.25 195.26 433.72 194.85 431.91C192.94 432.06 190.81 432.53 188.5 432.85L175.85 433.94C174.66 433.97 173.63 433.91 172.53 433.82C159.51 432.66 150.72 428.68 145.9 428.28C146.02 429.97 146.9 429.97 149.66 431C153.57 432.47 163.05 435.26 167.15 435.35C167.09 438.67 164.93 443.8 164.71 446.68C162.64 446.21 157.07 443.46 148.09 441.48C139.64 439.64 130.09 440.2 121.67 440.89C116.51 441.3 92.35 444.65 88 446.74C96.23 411.47 96.98 423.61 86.99 392.16L84.02 372.1C83.96 370.03 83.93 367.34 84.12 365.3C84.37 362.46 85.24 357.76 85.24 354.29C87.15 355.57 91.06 357.79 94.07 356.23C94.66 355.91 94.22 356.16 94.79 355.73C95.13 355.44 95.23 355.38 95.45 355.16C97.6 353.28 97.64 350.72 97.32 347.84C97.14 345.99 96.29 343.83 95.13 342.36C95.07 342.3 95.01 342.2 94.94 342.14C94.1 341.05 93.22 339.92 92.91 338.48L96.2 334.07C98.58 331.38 108.9 319.89 110.72 318.67C114.69 321.33 119.36 323.52 124.18 324.68C126.87 325.33 125.96 324.74 128.94 324.74C129.31 329.4 129.5 332.13 132.32 335.91C138.04 343.58 152.66 341.08 157.17 332.35C158.45 329.84 158.86 329.09 158.86 325.96C161.46 326.18 170.09 328.71 174.51 329.28L196.51 331.19C199.3 331.41 199.3 332 202.14 332C201.96 334.1 202.27 336.38 202.93 338.48C203.99 341.89 206.4 344.99 209.56 346.4C212.03 347.49 214.73 348.56 217.54 348.71C224.12 349.09 229.94 345.62 233 339.83C234.19 337.57 233.94 334.88 234.48 333.6C238.26 333.6 243.8 335.23 253.88 335.23C253.88 338.26 254.79 341.36 254.85 344.21L255.13 352.63C254.76 359.01 255.23 367.68 253.88 373.25C252.66 378.29 252.47 383.05 251 388.18L248.87 396.98C247.62 402.02 247.28 403.52 247.15 408.78C247.18 418.23 247.87 425.3 251.53 432.97C244.55 437.63 240.55 435.85 233.07 437.42C230.19 438.01 228.15 438.79 225.15 439.2C219.14 440.01 214.6 441.45 208.75 442.64C205.74 443.24 202.99 443.36 199.89 443.93C193.76 445.05 185.12 446.65 177.95 446.65C176.63 444.68 177.29 438.54 176.51 435.76C180.99 435.73 193.16 433.79 194.04 434.35Z" fill="#C0D810" fill-opacity="1.000000" fill-rule="evenodd"/>
	<path id="Vector" d="M211.88 345.3C208.34 343.99 207.87 342.61 206.53 340.95L205.99 340.27C202.02 334.1 205.71 325.12 207.28 323.4C208.25 322.33 214.44 319.48 215.48 319.48C221.36 319.48 228.25 320.8 231.31 326.31C232.1 327.71 232.16 330.47 232.28 332C232.97 339.64 225.87 346.56 221.14 346.56C216.82 346.56 216.2 346.9 211.88 345.3Z" stroke="#663300" stroke-opacity="1.000000" stroke-width="1.417300" stroke-linejoin="round"/>
	<path id="Vector" d="M221.14 346.56C216.82 346.56 216.2 346.9 211.88 345.3C208.34 343.99 207.87 342.61 206.53 340.95L205.99 340.27C202.02 334.1 205.71 325.12 207.28 323.4C208.25 322.33 214.44 319.48 215.48 319.48C221.36 319.48 228.25 320.8 231.31 326.31C232.1 327.71 232.16 330.47 232.28 332C232.97 339.64 225.87 346.56 221.14 346.56Z" fill="#FECC00" fill-opacity="1.000000" fill-rule="evenodd"/>
	<path id="Vector" d="M251.88 465.09L253.57 467.06C258.92 471.78 258.14 482.3 249.53 486.21C248.68 486.59 248.03 486.9 246.99 487.31C240.67 489.69 234.19 488.56 228.84 485.71C229.69 484.46 235.01 482.33 233.54 474.07C232.97 470.84 228.06 466.46 226.96 466.56C225.65 466.68 226.12 466.78 225.59 467.5C226.78 469.25 235.32 472.88 230.84 480.83L228.25 483.49C222.86 487.93 209.44 485.49 202.21 484.43C198.11 483.83 195.48 481.52 193.13 478.92C191.13 476.7 189.5 472 188.81 468.65C187.78 463.65 185.34 460.86 184.43 458.48L181.08 447.24C197.32 447.24 195.35 445.74 203.33 445.24C205.55 445.12 205.93 444.96 207.93 444.58C213.54 443.58 219.2 441.55 224.33 441.14C226.62 440.95 229.47 440.3 232.35 439.45C235.73 438.45 240.61 439.23 245.27 437.01C246.68 436.35 247.34 435.66 249.03 435.51C249.37 437.01 250.66 438.61 251.56 440.23L253.72 443.33C257.82 448.09 256.98 447.09 255.51 447.21L255.51 448.43C259.76 448.53 266.65 452.28 269.84 457.17C270.5 458.17 271.13 458.98 271.85 460.01C273.6 462.46 274.16 462.74 274.76 466.4C276.1 474.85 272.1 482.46 264.27 483.55C260.3 484.11 260.33 483.65 256.29 483.65C256.54 480.67 262.86 473.85 254.66 465.43C254.26 464.99 254.41 465.96 254.13 464.58C254.1 464.21 254.22 464.08 254.32 463.05C252.82 464.77 253.1 463.8 251.88 465.09Z" stroke="#663300" stroke-opacity="1.000000" stroke-width="1.417300" stroke-linejoin="round"/>
	<path id="Vector" d="M254.32 463.05C252.82 464.77 253.1 463.8 251.88 465.09L253.57 467.06C258.92 471.78 258.14 482.3 249.53 486.21C248.68 486.59 248.03 486.9 246.99 487.31C240.67 489.69 234.19 488.56 228.84 485.71C229.69 484.46 235.01 482.33 233.54 474.07C232.97 470.84 228.06 466.46 226.96 466.56C225.65 466.68 226.12 466.78 225.59 467.5C226.78 469.25 235.32 472.88 230.84 480.83L228.25 483.49C222.86 487.93 209.44 485.49 202.21 484.43C198.11 483.83 195.48 481.52 193.13 478.92C191.13 476.7 189.5 472 188.81 468.65C187.78 463.65 185.34 460.86 184.43 458.48L181.08 447.24C197.32 447.24 195.35 445.74 203.33 445.24C205.55 445.12 205.93 444.96 207.93 444.58C213.54 443.58 219.2 441.55 224.33 441.14C226.62 440.95 229.47 440.3 232.35 439.45C235.73 438.45 240.61 439.23 245.27 437.01C246.68 436.35 247.34 435.66 249.03 435.51C249.37 437.01 250.66 438.61 251.56 440.23L253.72 443.33C257.82 448.09 256.98 447.09 255.51 447.21L255.51 448.43C259.76 448.53 266.65 452.28 269.84 457.17C270.5 458.17 271.13 458.98 271.85 460.01C273.6 462.46 274.16 462.74 274.76 466.4C276.1 474.85 272.1 482.46 264.27 483.55C260.3 484.11 260.33 483.65 256.29 483.65C256.54 480.67 262.86 473.85 254.66 465.43C254.26 464.99 254.41 465.96 254.13 464.58C254.1 464.21 254.22 464.08 254.32 463.05Z" fill="#F6B096" fill-opacity="1.000000" fill-rule="evenodd"/>
	<path id="Vector" d="M158.17 453.22C157.32 452.22 156.01 453.5 159.45 457.6L161.36 460.14C162.05 461.14 162.24 461.74 162.86 462.67C163.8 464.11 164.71 466.21 164.87 468.37C165.31 474.19 165.62 478.14 162.05 482.52L160.64 483.96C158.17 486.15 150.63 489.4 147.87 489.4C143.52 489.4 140.39 487.53 137.76 485.77C141.05 480.89 141.8 478.79 141.8 472.03C141.8 470.91 141.61 471.28 140.99 470.81C139.7 471.75 140.27 472.1 140.02 474.29C139.64 477.2 139.11 480.86 137.29 483.3C136.39 484.52 132.63 488.09 131.03 488.75C123.65 491.91 111.41 490.41 109.62 482.39C107.72 473.85 108.97 473.1 109.47 467.18L107.84 467.18C107.78 470.12 107.25 469.59 107.06 471.63C106.65 475.85 107.12 483.08 109.47 486.59C106.56 486.65 109.25 486.81 105.21 488C101.02 489.22 97.2 489.69 93.04 488.09C92.91 488.06 92.57 487.9 92.47 487.87L90.94 486.99C90.88 486.96 90.75 486.9 90.69 486.84C88.56 485.55 87.18 484.62 85.59 482.64C81.55 477.6 82.14 474.88 83.21 468.4C83.8 464.83 85.3 462.14 86.78 459.04C87.84 456.85 88.62 454.63 90.09 452.66C93.79 447.81 91.56 447.59 94.66 446.31C98.98 444.46 106.46 443.74 111.16 443.36C119.36 442.74 131.38 442.02 138.33 442.24C141.67 442.33 147.34 443.36 150.69 443.93C152.35 444.21 154.29 444.93 156.23 445.62C158.11 446.27 160.11 447.43 161.74 447.81C161.67 450.31 160.86 450.47 160.86 456.2L158.17 453.22Z" stroke="#663300" stroke-opacity="1.000000" stroke-width="1.417300" stroke-linejoin="round"/>
	<path id="Vector" d="M160.86 456.2L158.17 453.22C157.32 452.22 156.01 453.5 159.45 457.6L161.36 460.14C162.05 461.14 162.24 461.74 162.86 462.67C163.8 464.11 164.71 466.21 164.87 468.37C165.31 474.19 165.62 478.14 162.05 482.52L160.64 483.96C158.17 486.15 150.63 489.4 147.87 489.4C143.52 489.4 140.39 487.53 137.76 485.77C141.05 480.89 141.8 478.79 141.8 472.03C141.8 470.91 141.61 471.28 140.99 470.81C139.7 471.75 140.27 472.1 140.02 474.29C139.64 477.2 139.11 480.86 137.29 483.3C136.39 484.52 132.63 488.09 131.03 488.75C123.65 491.91 111.41 490.41 109.62 482.39C107.72 473.85 108.97 473.1 109.47 467.18L107.84 467.18C107.78 470.12 107.25 469.59 107.06 471.63C106.65 475.85 107.12 483.08 109.47 486.59C106.56 486.65 109.25 486.81 105.21 488C101.02 489.22 97.2 489.69 93.04 488.09C92.91 488.06 92.57 487.9 92.47 487.87L90.94 486.99C90.88 486.96 90.75 486.9 90.69 486.84C88.56 485.55 87.18 484.62 85.59 482.64C81.55 477.6 82.14 474.88 83.21 468.4C83.8 464.83 85.3 462.14 86.78 459.04C87.84 456.85 88.62 454.63 90.09 452.66C93.79 447.81 91.56 447.59 94.66 446.31C98.98 444.46 106.46 443.74 111.16 443.36C119.36 442.74 131.38 442.02 138.33 442.24C141.67 442.33 147.34 443.36 150.69 443.93C152.35 444.21 154.29 444.93 156.23 445.62C158.11 446.27 160.11 447.43 161.74 447.81C161.67 450.31 160.86 450.47 160.86 456.2Z" fill="#F6B096" fill-opacity="1.000000" fill-rule="evenodd"/>
	<path id="Vector" d="M165.71 202.14C163.18 201.92 164.27 200.55 160.86 201.33L160.86 203.36C165.24 205.46 166.09 204.52 172.44 208.78C174.19 209.94 181.49 215.19 182.71 215.51C181.96 215.98 181.42 215.91 180.27 215.91C180.27 218.64 180.95 219.08 187.87 217.85C188.9 217.67 190.28 216.88 194.01 216.7C196.29 216.57 202.46 217.67 205.71 217.92C207.18 218.04 207.12 218.14 208.25 218.26C210.47 218.51 211.19 218.51 213.19 218.98C215.38 219.51 215.63 219.54 218.29 219.54L217.26 220.14C213 222.99 211.35 228 213.07 232.85C214.63 237.26 217.48 237.6 217.48 239.36C217.48 240.86 216.82 241.3 216.67 242.99C219.3 244.4 217.45 243.11 224.21 240.8L227.43 239.58C227.53 239.54 227.65 239.51 227.75 239.48C229.87 238.79 229.69 238.92 232 237.26L233.6 236.01C240.23 230.62 235.66 222.96 235.29 221.52C239.11 221.52 249.62 219.86 255.41 222.05C257.01 222.64 256.48 222.64 257.95 222.33L257.95 220.7C256.7 220.11 255.13 220.08 253.91 219.48C257.42 214.26 256.73 211.78 256.73 204.93C256.73 201.45 256.42 199.42 255.16 196.79C253.82 193.88 252.13 191.5 249.28 190.12C240.92 186.06 233.04 193.38 229.44 199.48L225.99 206.15C225.56 207.18 225.18 208.81 224.84 209.84C224.08 212.06 222.77 215.73 222.77 217.89C217.98 217.89 207.18 214.26 194.04 214.26C191.78 214.26 191.63 214.66 189.59 214.66C190.31 213.6 190.28 213.85 191.03 212.44C193.66 207.59 193.76 206.77 195.73 202.58C197.17 199.54 198.33 191.88 197.32 187.78C196.54 184.49 195.01 180.2 192.44 178.23C189.56 176.04 187.21 173.66 181.83 176.95C176.67 180.08 175.66 181.49 172.66 185.59C171.75 186.84 170.91 187.37 170.28 188.87L168.43 193.1C167.53 195.98 166.49 198.82 165.71 202.14Z" fill="#000000" fill-opacity="1.000000" fill-rule="evenodd"/>
	<path id="Vector" d="M153.6 219.51C155.1 220.23 156.45 219.48 158.04 219.11C158.73 221.67 168.97 226.71 172.79 243.61L176.29 264.4C176.48 265.12 177.2 267.46 177.48 268.06C177.79 268.65 177.98 268.84 178.54 269.44C181.67 272.85 187.37 273.07 191.31 270.97L195.85 268.21C199.26 265.12 199.58 265.84 203.21 263.43L212.28 257.54C214.44 256.16 215.35 256.1 217.17 255.16C220.49 253.41 222.49 252.97 225.9 251.75C230.22 250.22 233.47 249.44 238.54 249.44C239.8 247.59 240.2 248.25 239.36 244.58C236.48 243.93 236.2 244.49 234.38 246.09C232.41 247.78 231.75 246.9 227.81 248.4C225.96 249.12 217.1 250.19 216.73 250.19C212.54 250.06 201.17 247.75 197.17 246.31C191.69 244.37 189.66 244.96 183.18 240.08C179.01 236.95 176.98 235.07 173.69 231.34L172.41 230.19C172.35 230.12 172.25 230.06 172.19 230C172.13 229.94 172.03 229.87 171.97 229.81C171.91 229.75 171.82 229.69 171.75 229.62C169.09 227.09 167.06 223.02 163.77 219.39C162.02 217.48 162.89 219.48 162.89 215.44C160.52 215.44 159.77 216.26 157.86 216.88C155.51 217.67 154.23 217.14 153.6 219.51Z" fill="#000000" fill-opacity="1.000000" fill-rule="evenodd"/>
	<path id="Vector" d="M134.98 320.67C134.98 322.68 135.6 324.3 137.79 324.3C139.14 324.3 138.67 322.39 140.64 325.9C141.08 326.65 142.64 328.5 142.64 329.15C142.64 330.12 140.64 331.28 142.8 333.44C142.86 333.5 142.96 333.57 143.02 333.63C146.93 336.95 153.16 332.41 149.44 328C147.97 326.27 147.9 327.71 146.21 326.74C145.77 326.49 142.99 322.39 142.83 321.67C142.39 319.83 143.71 316.57 139.8 316.57C137.23 316.63 134.98 318.14 134.98 320.67Z" fill="#663300" fill-opacity="1.000000" fill-rule="evenodd"/>
	<path id="Vector" d="M212.25 340.48L216.7 340.08C216.95 339.58 217.1 339.39 217.26 338.64C217.7 336.32 217.1 338.98 217.1 336.85C217.1 335.48 217.45 336.16 218.11 335.44C218.86 334.63 218.58 335.07 219.11 334.04C227.59 336.01 227.34 329.78 225.71 327.84C224.9 326.87 223.05 326.34 221.55 326.4C217.73 326.56 217.76 330.22 217.39 331.13C215.98 334.44 212.75 332.91 212 333.07C209.19 333.63 209.53 340.48 212.25 340.48Z" fill="#663300" fill-opacity="1.000000" fill-rule="evenodd"/>
	<path id="Vector" d="M168.56 159.64C168.56 162.33 170.97 158.51 180.99 157.92C181.33 157.89 183.08 157.89 183.08 157.89C185.4 157.32 184.65 152.78 180.27 152.78C177.14 152.78 168.56 156.85 168.56 159.64Z" fill="#663300" fill-opacity="1.000000" fill-rule="evenodd"/>
	<path id="Vector" d="M255.95 169.78C256.07 171.31 255.79 170.88 257.04 171.53C258.57 172.35 258.07 171.38 260.67 173.97L262.99 176.92C263.46 177.67 263.74 178.04 264.12 178.64C264.15 178.7 264.21 178.83 264.27 178.89C264.3 178.98 264.37 179.08 264.43 179.14C265.52 181.08 265.4 181.11 267.34 180.67C267.34 176.16 266.24 170 260.92 168.84C259.45 168.56 257.17 169.19 255.95 169.78Z" fill="#663300" fill-opacity="1.000000" fill-rule="evenodd"/>
	<path id="Vector" d="M194.04 434.35L193.63 434.35L193.98 434.82L194.04 434.35Z" fill="#000000" fill-opacity="1.000000" fill-rule="evenodd"/>
	<path id="Vector" d="M254.32 463.05L254.73 463.05L254.38 462.58L254.32 463.05Z" fill="#000000" fill-opacity="1.000000" fill-rule="evenodd"/>
	<path id="Vector" d="M319.01 231.53C314.22 227.93 309.87 227.03 305.24 228.65C301.11 230.12 297.89 233.13 296.17 238.45C293.66 246.24 300.42 253.47 306.15 252.57C309.28 252.06 310.28 250.66 312.03 250.88C311.97 253.72 306.53 256.2 301.02 253.91C298.54 252.88 296.82 251.16 295.63 249.44C294.19 247.34 294.48 246.9 293.97 245.52C293.54 244.33 294.04 245.12 293.16 244.05C290.31 246.02 288 246.9 285.62 249.87C281.14 255.48 280.83 263.21 285.02 268.78C287.59 272.19 290.69 271.75 294.26 271.06C295.79 267.87 298.61 261.74 302.05 261.99C300.58 264.96 298.48 265.77 297.04 269.15C295.38 273.07 296.7 275.48 295.91 277.32L294.22 277.14C293.69 275.82 293.82 275.04 293.5 273.63C292.16 273.44 291.09 273.88 289.72 273.63L283.18 269.81C282.24 268.9 282.36 268.31 281.3 267.24C278.1 268.62 276.35 272.1 276.26 276.32C276.2 280.14 276.92 282.27 279.26 285.34C280.67 284.46 281.11 282.58 283.36 280.04C285.56 277.57 285.81 276.95 287.15 279.83C284.49 281.45 282.99 281.96 281.33 286.12C280.92 287.12 280.2 289.31 280.48 290.62C281.02 292.94 286.65 299.17 288.68 300.3C292.28 302.33 291.63 301.11 296.63 299.26C297.67 296.85 299.39 294.07 299.76 291.5C300.14 288.87 298.54 286.74 299.23 285.68C302.61 285.77 301.8 292.82 299.39 297.57C301.74 297.92 299.95 297.39 302.39 297.29C303.14 297.26 304.4 297.45 305.15 297.51C308.72 297.73 307.65 297.89 310.53 299.29C313.41 295.01 309.84 294.1 309.81 291.28C311.85 291.25 312.53 293.13 312.94 294.63C313.72 297.29 313.22 297.39 312.1 300.26C314.29 302.77 314.85 302.46 317.67 302.08C319.01 299.33 322.46 295.23 325.9 296.76C324.58 299.04 321.71 297.73 319.51 302.11C322.61 302.74 326.37 303.58 328.18 306.34L329.5 308.43C329.59 308.37 329.62 308.62 329.72 308.72C332.44 307.28 334.73 309.12 337.17 307.37C339.98 305.37 340.3 303.18 340.14 299.98C337.57 298.79 336.04 299.45 333.22 297.51C327.65 293.66 324.58 284.49 327.4 281.61C328.97 282.36 328.68 282.05 328.78 283.61C328.84 284.4 328.72 285.3 328.78 286.09C328.84 287.78 329.31 288.81 329.97 290.22C331.09 292.63 333.13 295.44 336.85 296.76C345.18 299.73 349.25 292.41 351.85 286.99C348.15 286.56 345.15 287.24 341.61 283.96C339.48 281.99 337.79 278.61 339.11 275.54L340.99 275.7C340.83 278.51 340.8 279.98 342.77 281.96C350.25 289.44 369.84 280.48 357.79 265.15C356.42 263.39 353.79 261.86 352.38 261.39C350.31 260.73 346.96 259.79 344.77 259.54C343.96 262.02 341.08 271.81 338.2 271.94C336.01 272.03 335.51 266.93 335.04 265.02C332.03 253.1 328.53 256.04 325.52 255.95C323.9 255.88 318.57 256.04 317.82 254.35C316.85 252.32 323.86 246.12 324.99 244.08C321.11 241.27 313.72 237.1 316.2 231.88L319.01 231.53ZM316.85 263.02C312.41 261.17 311.53 252.69 315.54 253C316.51 254.98 313.72 254.98 314.94 258.39C315.76 260.67 317.85 260.8 316.85 263.02ZM319.39 265.55C320.39 263.11 323.05 262.99 325.46 263.58C326.59 263.86 328.12 264.37 329.31 264.99C331.06 265.9 331.09 265.99 330.41 267.68C328.72 267.65 326.31 266.15 324.27 265.59C320.3 264.49 322.02 266.68 319.39 265.55ZM310.81 286.27C307.59 285.4 304.68 287.34 304.46 284.21C308.37 284.43 312.47 284.43 314.54 280.61C319.36 271.63 315.38 271.91 316.79 268.78C319.76 269.59 319.61 272.82 319.01 275.54C317.04 284.9 309.72 283.36 314.82 288.9C318.17 292.5 320.7 291.28 322.89 292.19C321.77 297.57 311.31 290.84 310.81 286.27Z" fill="#E4658E" fill-opacity="1.000000" fill-rule="evenodd"/>
	<path id="Vector" d="M282.11 250.88L279.98 255.88C280.26 257.35 279.79 258.64 279.89 260.42C279.95 261.92 280.42 263.58 280.2 265.02C276.23 268.03 274.16 270.31 274.01 276.6C273.91 280.48 275.07 285.68 279.01 287.96C278.98 292.35 282.02 298.42 285.99 301.39C291.47 305.43 287.9 302.33 290 305.43C292.94 305.34 296.32 298.98 303.83 299.67C306.34 299.89 306.99 299.83 309.37 301.24C315.85 305.12 312.19 313.5 302.02 316.82C289.25 320.99 287.59 312.69 282.8 310.16C280.86 309.12 273.41 301.58 271.53 299.17C270.31 297.57 268.84 295.73 267.18 295.45C267.12 295.51 266.68 295.1 267.09 297.04C267.53 299.04 274.51 305.77 276.35 307.34C277.48 308.31 278.89 309 279.86 310.03C281.24 311.56 280.99 311.53 282.64 312.91C283.55 313.66 284.46 314.63 285.62 315.73L288.87 318.45L292.88 320.17C294.63 319.89 295.63 320.8 299.98 319.73C301.61 321.39 300.17 321.83 306.15 324.08C308.81 325.09 311 324.43 313.07 324.3C313.91 325.05 316.95 330.75 323.52 331.31C332.91 332.13 347.03 324.33 342.42 313.85C341.2 311.09 339.98 311.28 338.45 309.31C339.86 307.37 340.52 307.75 341.64 304.96C342.71 302.39 341.99 301.58 342.27 299.51C350.88 297.17 351.81 291.88 353.82 286.43C355.91 285.68 358.89 284.21 360.64 282.52C361.24 281.96 361.05 282.08 361.45 281.61L362.42 280.61C362.49 280.55 362.58 280.42 362.71 280.36L363.55 278.39L363.61 276.45C363.74 275.6 363.9 275.19 363.86 274.19C363.65 268.47 359.55 264.71 359.33 263.33C358.89 260.48 361.36 262.86 357.07 255.91C355.45 253.29 353.04 251.88 351.69 249.84C354.73 248.59 358.39 250.44 359.26 246.71C357.07 243.49 350.41 243.05 346.68 242.21C348.22 239.7 355.35 234.44 357.7 232.78C363.18 228.97 368.25 228.81 369.62 226.27C368.87 224.08 367.21 224.37 366.96 222.05L365.84 221.58C363.96 223.14 359.45 224.21 353.07 228.9L341.24 238.7C340.11 237.48 340.01 233.91 335.6 229.37C334.44 228.18 328.06 221.36 327.37 221.55C324.02 222.36 326.65 229.56 326.78 232.41C325.93 232.28 325.09 232.28 324.15 232.16C320.26 231.56 322.61 230.16 316.76 227.37C309.56 223.96 302.61 225.62 297.35 231.28C293.57 235.35 294.01 239.89 293.04 242.33C289.91 242.77 286.56 245.4 284.49 247.78C283.9 248.56 282.86 250.31 282.11 250.88ZM340.36 246.34C342.42 246.99 342.64 245.62 344.11 244.12C347.46 244.9 353.1 245.09 355.76 246.96C354.54 246.87 350.44 247.46 348.97 247.75C347.71 250.88 349.19 250.53 352.82 254.32C354.01 255.57 356.85 259.11 356.92 260.64C353.07 259.39 346.56 257.1 343.11 257.6C341.08 264.37 341.74 262.93 338.76 269.15C337.64 268.18 337.14 262.36 334.1 256.92C332.41 253.88 331.72 253.41 328.25 253.76C326.49 253.94 322.42 253.88 320.45 253.35C322.27 250.72 326.9 246.62 327.71 244.05C325.96 240.8 318.36 239.14 318.32 234.32C321.64 233.66 326.37 235.63 329.22 234.13C330.25 231.38 327.59 230.28 328.43 225.68C332.03 228.12 335.35 232.66 337.23 235.35C337.6 235.88 337.35 235.54 337.79 236.07C342.39 241.58 336.23 241.14 336.38 245.49C337.48 245.46 337.6 244.9 339.8 242.55C342.77 239.36 346.87 236.48 350.09 233.63C353.94 230.25 360.86 225.24 365.24 224.4C365.84 224.93 366.34 225.09 366.78 226.02C365.81 226.68 363.93 227.12 363.05 227.53C356.57 230.37 351.5 234.73 345.96 239.55C344.21 240.99 340.05 243.58 340.36 246.34ZM316.17 232C313.69 237.26 321.08 241.39 324.96 244.21C323.83 246.24 316.82 252.44 317.79 254.47C318.54 256.17 323.86 256.01 325.49 256.07C328.5 256.17 332.03 253.22 335.01 265.15C335.48 267.06 335.98 272.16 338.17 272.06C341.05 271.94 343.9 262.14 344.74 259.67C346.96 259.92 350.28 260.86 352.35 261.52C353.76 261.99 356.38 263.52 357.76 265.24C369.81 280.58 350.22 289.56 342.74 282.05C340.77 280.08 340.8 278.61 340.95 275.79L339.08 275.63C337.73 278.7 339.42 282.05 341.58 284.05C345.12 287.31 348.09 286.65 351.81 287.09C349.25 292.5 345.18 299.83 336.82 296.85C333.1 295.54 331.06 292.72 329.94 290.31C329.28 288.9 328.81 287.87 328.75 286.18C328.72 285.4 328.81 284.49 328.75 283.71C328.62 282.11 328.93 282.42 327.37 281.7C324.55 284.62 327.62 293.76 333.19 297.6C336.01 299.58 337.54 298.92 340.11 300.08C340.27 303.27 339.95 305.46 337.14 307.46C334.66 309.22 332.38 307.37 329.69 308.81C329.62 308.72 329.56 308.47 329.47 308.53L328.15 306.43C326.34 303.68 322.58 302.83 319.48 302.21C321.67 297.79 324.55 299.14 325.87 296.85C322.42 295.32 318.98 299.42 317.64 302.17C314.82 302.55 314.26 302.86 312.06 300.36C313.16 297.48 313.66 297.39 312.91 294.73C312.47 293.22 311.81 291.35 309.78 291.38C309.81 294.19 313.38 295.13 310.5 299.39C307.62 297.98 308.68 297.82 305.12 297.6C304.33 297.57 303.11 297.35 302.36 297.39C299.92 297.48 301.7 298.01 299.36 297.67C301.77 292.91 302.58 285.87 299.2 285.77C298.51 286.84 300.11 288.97 299.73 291.6C299.39 294.16 297.64 296.95 296.6 299.36C291.63 301.17 292.25 302.39 288.65 300.39C286.65 299.26 280.99 293.04 280.45 290.72C280.14 289.4 280.89 287.21 281.3 286.21C282.99 282.02 284.46 281.55 287.12 279.92C285.77 277.07 285.52 277.7 283.33 280.14C281.08 282.68 280.64 284.55 279.23 285.43C276.92 282.36 276.17 280.23 276.23 276.42C276.32 272.19 278.07 268.68 281.27 267.34C282.33 268.37 282.24 268.97 283.14 269.91L289.72 273.72C291.09 273.97 292.16 273.54 293.5 273.72C293.82 275.1 293.69 275.91 294.22 277.23L295.91 277.42C296.7 275.57 295.38 273.16 297.04 269.25C298.48 265.87 300.58 265.05 302.05 262.08C298.61 261.83 295.79 267.96 294.29 271.16C290.72 271.85 287.62 272.28 285.05 268.87C280.86 263.3 281.17 255.57 285.65 249.97C288.03 246.99 290.34 246.12 293.19 244.15C294.07 245.21 293.57 244.43 294.01 245.62C294.51 246.99 294.26 247.43 295.66 249.53C296.82 251.25 298.54 252.97 301.05 254.01C306.56 256.29 312 253.82 312.06 250.97C310.31 250.75 309.31 252.16 306.18 252.66C300.45 253.57 293.69 246.34 296.2 238.54C297.92 233.22 301.14 230.22 305.27 228.75C309.91 227.12 314.26 228.03 319.01 231.63L316.17 232ZM314.82 304.52C321.67 303.36 334.13 307.81 322.71 316.92C320.01 319.07 316.23 320.89 313.57 321.83C309.44 323.27 306.06 322.42 302.27 319.54C303.36 318.61 316.01 314.82 314.82 304.52ZM315.73 323.74C317.07 321.8 326.06 320.86 329.87 310.81C331.78 310.53 333.44 310.03 335.63 310.84C346.74 314.94 339.76 328.09 326.71 329.15C322.39 329.53 317.29 327.53 315.73 323.74Z" fill="#663300" fill-opacity="1.000000" fill-rule="evenodd"/>
	<path id="Vector" d="M340.36 246.34C340.05 243.58 344.21 240.99 345.93 239.48C351.47 234.66 356.54 230.31 363.02 227.46C363.93 227.06 365.77 226.62 366.74 225.96C366.31 225.02 365.84 224.87 365.21 224.33C360.83 225.18 353.91 230.19 350.06 233.57C346.84 236.42 342.74 239.3 339.76 242.49C337.6 244.8 337.48 245.4 336.35 245.43C336.2 241.08 342.36 241.52 337.76 236.01C337.32 235.48 337.57 235.82 337.2 235.29C335.32 232.63 332 228.06 328.4 225.62C327.53 230.22 330.22 231.31 329.19 234.07C326.34 235.54 321.61 233.6 318.29 234.26C318.32 239.11 325.93 240.77 327.68 243.99C326.87 246.56 322.24 250.66 320.42 253.29C322.36 253.82 326.43 253.88 328.22 253.69C331.69 253.35 332.38 253.82 334.07 256.85C337.1 262.3 337.6 268.12 338.73 269.09C341.71 262.86 341.05 264.3 343.08 257.54C346.53 257.07 353.07 259.33 356.89 260.58C356.85 259.01 353.97 255.51 352.78 254.26C349.19 250.47 347.68 250.81 348.94 247.68C350.41 247.4 354.51 246.81 355.73 246.9C353.07 245.02 347.43 244.87 344.08 244.05C342.64 245.62 342.42 247.03 340.36 246.34Z" fill="#C0D810" fill-opacity="1.000000" fill-rule="evenodd"/>
	<path id="Vector" d="M315.73 323.74C317.29 327.53 322.39 329.5 326.68 329.15C339.73 328.09 346.74 314.94 335.6 310.84C333.41 310.03 331.75 310.53 329.84 310.81C326.06 320.86 317.07 321.8 315.73 323.74Z" fill="#F6B096" fill-opacity="1.000000" fill-rule="evenodd"/>
	<path id="Vector" d="M314.82 304.52C315.98 314.82 303.33 318.64 302.27 319.51C306.06 322.39 309.41 323.27 313.57 321.8C316.23 320.86 320.01 319.04 322.71 316.88C334.13 307.78 321.67 303.36 314.82 304.52Z" fill="#F6B096" fill-opacity="1.000000" fill-rule="evenodd"/>
	<path id="Vector" d="M304.43 284.21C304.65 287.34 307.56 285.4 310.78 286.27C311.28 290.84 321.77 297.57 322.86 292.19C320.7 291.28 318.14 292.5 314.79 288.9C309.69 283.4 317.01 284.9 318.98 275.54C319.54 272.82 319.7 269.56 316.76 268.78C315.35 271.91 319.33 271.63 314.51 280.61C312.47 284.43 308.37 284.43 304.43 284.21Z" fill="#663300" fill-opacity="1.000000" fill-rule="evenodd"/>
	<path id="Vector" d="M319.39 265.55C322.02 266.68 320.3 264.46 324.27 265.59C326.31 266.15 328.72 267.65 330.41 267.68C331.1 265.99 331.06 265.9 329.31 264.99C328.12 264.37 326.59 263.86 325.46 263.58C323.05 262.99 320.39 263.14 319.39 265.55Z" fill="#663300" fill-opacity="1.000000" fill-rule="evenodd"/>
	<path id="Vector" d="M316.85 263.02C317.85 260.77 315.79 260.67 314.94 258.39C313.72 254.98 316.51 254.98 315.54 253C311.53 252.72 312.41 261.17 316.85 263.02Z" fill="#663300" fill-opacity="1.000000" fill-rule="evenodd"/>
	<path id="Vector" d="M171.38 232.47C176.45 235.85 180.11 244.12 195.7 248.22C198.17 248.87 196.54 248.84 198.29 249.66L204.84 251.22C205.62 251.35 207.5 251.66 208.31 251.81C210.66 252.28 212.88 252.72 215.48 252.72C214.88 253.22 215.48 252.85 214.48 253.35L199.3 262.42C198.08 259.86 198.61 253.94 187.97 253.94C187.06 252.07 186.24 249.84 183.58 248.22C180.14 246.12 178.7 248.84 175.82 249.09C175.82 246.12 174.6 243.05 173.88 240.52L171.38 232.47Z" fill="#000000" fill-opacity="1.000000" fill-rule="evenodd"/>
	<path id="Vector" d="M181.11 249.87C183.68 249.87 185.09 252.22 185.99 254.72C187.18 258.01 186.37 258.64 186.37 262.42L188 262.42C188.75 259.64 188.81 263.93 188.81 255.95C194.38 255.95 196.89 258.89 197.29 264.05L192.19 267.43C191.66 267.84 187.5 270.12 186.37 270.12C177.39 270.12 178.58 263.65 177.98 260.7L176.85 253.69C176.6 251.19 178.29 249.87 181.11 249.87Z" fill="#990000" fill-opacity="1.000000" fill-rule="evenodd"/>
	<path id="Vector" d="M110.31 154.38L111.35 159.01L115.73 164.37C116.79 165.18 117.76 165.43 118.86 166.09C122.11 168.09 130.63 171.91 133.29 168.84C134.13 167.87 134.16 166.24 133.85 165.24C132.57 161.02 133.38 163.08 131.22 158.98C129.34 155.41 128.53 152.85 125.4 150.25C121.33 146.87 116.13 144.55 112.19 149.37C111.38 150.31 110.31 153.22 110.31 154.38Z" fill="#663300" fill-opacity="1.000000" fill-rule="evenodd"/>
	<path id="Vector" d="M116.89 148.97C119.26 148.97 121.39 150.34 123.11 151.69C128.81 156.2 126.56 155.35 130.66 162.11C135.2 169.65 126.28 168.15 119.55 164.24C118.36 163.55 117.32 162.8 116.35 161.86C109.28 155.07 114.19 148.97 116.89 148.97Z" fill="#663300" fill-opacity="1.000000" fill-rule="evenodd"/>
	<path id="Vector" d="M275.23 207.9C277.85 210.75 282.33 209.69 285.46 208.59C287.03 208.03 288.93 207.78 290.41 207.06C295.32 204.55 297.89 198.17 294.63 194.19C290.75 189.44 283.18 193.35 280.01 196.26L274.76 201.92C272.82 203.43 273.72 206.27 275.23 207.9Z" fill="#663300" fill-opacity="1.000000" fill-rule="evenodd"/>
	<path id="Vector" d="M279.8 206.99C277.7 206.99 276.89 205.93 276.17 204.55C276.54 202.36 278.32 201.36 279.55 199.83C282.02 197.04 289 191.75 292.66 194.94C293.38 195.57 294.35 198.26 294.22 199.23L292.03 203.02C291.63 203.36 290.03 204.21 289.47 204.49C288.47 204.99 281.8 206.99 279.8 206.99Z" fill="#663300" fill-opacity="1.000000" fill-rule="evenodd"/>
	<path id="Vector" d="M232.07 199.7C232.47 198.2 233.19 198.11 234.13 196.92C238.36 191.69 241.17 191.19 246.21 191.19C249 191.19 251.66 194.82 252.88 197.04C253.85 198.79 254.16 199.58 254.32 202.08C254.54 205.62 255.88 217.01 251.35 218.14C250.03 218.48 248.4 218.26 247.03 218.26C248.37 212.44 249.91 210.81 247.59 204.33C245.9 199.61 242.55 197.61 237.73 197.61C235.57 197.67 233.54 198.92 232.07 199.7Z" fill="#FFFFFF" fill-opacity="1.000000" fill-rule="evenodd"/>
	<path id="Vector" d="M227.62 217.51L224.8 217.51C225.96 212.69 226.31 212.53 227.65 208.65C228.28 206.93 227.78 207.34 228.87 205.84C231.35 202.39 237.07 197.89 241.77 200.55C242.33 200.86 242.43 200.95 242.93 201.39C247.34 205.15 247.43 211.22 245.34 216.23C244.9 217.29 244.96 216.63 244.62 217.92C241.58 217.92 240.83 218.98 242.14 216.35C243.08 214.47 243.24 213.16 243.15 211.38C242.96 207.03 240.86 201.45 235.51 203.99C232.35 205.46 230.47 208.75 229.22 211.88C228.72 213.19 227.62 216.26 227.62 217.51Z" fill="#00CCFF" fill-opacity="1.000000" fill-rule="evenodd"/>
	<path id="Vector" d="M176.23 184.33C177.42 182.55 178.92 181.52 180.67 180.3C184.84 177.35 187.18 175.88 190.97 179.73L193.07 182.11C193.19 182.3 193.29 182.39 193.41 182.58C195.67 186.31 196.1 194.04 195.04 197.82C195.04 197.89 194.98 197.98 194.98 198.04L194.66 198.73C194.38 199.42 194.29 199.7 194.13 200.23C193.57 202.24 193.1 203.55 192.38 205.37C191.63 207.24 188.31 213.91 186.78 213.91C184.84 213.91 184.3 212.85 182.33 212.69C183.49 211.09 184.4 212.13 186.78 205.4C188.31 201.08 188.44 195.73 186.59 191.44C185.62 189.22 184.34 185.81 181.24 184.65C179.8 184.08 177.29 183.93 176.23 184.33Z" fill="#FFFFFF" fill-opacity="1.000000" fill-rule="evenodd"/>
	<path id="Vector" d="M168.97 203.74L167.37 202.89C167.46 201.64 167.56 202.05 167.68 201.64C167.71 201.55 167.75 201.45 167.81 201.36L168.65 199.36C168.84 198.89 168.84 198.92 169.09 198.17C170.63 193.35 172.35 186.34 178.29 186.34C185.65 186.34 186.87 198.07 184.59 205.59C184.02 207.46 182.27 210.5 180.33 211.03C178.83 209.25 179.95 211.38 181.64 206.68C182.71 203.68 184.55 198.11 181.89 194.91C179.83 192.44 177.67 191.97 174.57 193.94C171.78 195.66 169.03 200.99 168.97 203.74Z" fill="#00CCFF" fill-opacity="1.000000" fill-rule="evenodd"/>
	<path id="Vector" d="M230.41 220.61C230.41 220.61 234.19 220.99 235.23 224.71C235.76 226.65 235.95 227.59 235.79 228.18C235.29 230.47 234.57 230.63 233.94 228.4C233.72 227.59 233.22 226.56 232.07 225.49C228.94 222.68 226.43 222.43 226.4 221.46C226.34 220.49 230.41 220.61 230.41 220.61Z" fill="#FFFFFF" fill-opacity="1.000000" fill-rule="evenodd"/>
	<path id="Vector" d="M193.72 362.52C188.19 370.72 179.17 374.51 175.51 372.5C171.85 370.5 170.34 360.92 173.94 351.78C177.51 342.64 186.68 338.83 192.16 341.8C197.64 344.77 199.26 354.32 193.72 362.52Z" stroke="#663300" stroke-opacity="1.000000" stroke-width="1.417300" stroke-linejoin="round"/>
	<path id="Vector" d="M192.16 341.8C197.64 344.77 199.26 354.32 193.72 362.52C188.19 370.72 179.17 374.51 175.51 372.5C171.85 370.5 170.34 360.92 173.94 351.78C177.51 342.64 186.68 338.83 192.16 341.8Z" fill="#FFFFFF" fill-opacity="1.000000" fill-rule="evenodd"/>
	<path id="Vector" d="M169.75 406.71C173.6 397.6 171.88 387.96 168.18 385.99C164.52 383.99 155.67 388 149.97 395.98C144.27 403.99 146.06 413.75 151.53 416.7C157.01 419.67 165.9 415.82 169.75 406.71Z" stroke="#663300" stroke-opacity="1.000000" stroke-width="1.417300" stroke-linejoin="round"/>
	<path id="Vector" d="M151.53 416.7C157.01 419.67 165.9 415.82 169.75 406.71C173.6 397.6 171.88 387.96 168.18 385.99C164.52 383.99 155.67 388 149.97 395.98C144.27 403.99 146.06 413.75 151.53 416.7Z" fill="#FFFFFF" fill-opacity="1.000000" fill-rule="evenodd"/>
	<path id="Vector" d="M197.23 389.81C187.37 389.12 179.58 383.21 179.45 379.04C179.33 374.88 186.9 368.78 196.63 367.34C206.34 365.87 214.26 371.91 214.41 378.1C214.57 384.3 207.12 390.5 197.23 389.81Z" stroke="#663300" stroke-opacity="1.000000" stroke-width="1.417300" stroke-linejoin="round"/>
	<path id="Vector" d="M214.41 378.1C214.57 384.3 207.12 390.5 197.23 389.81C187.37 389.12 179.58 383.21 179.45 379.04C179.33 374.88 186.9 368.78 196.63 367.34C206.34 365.87 214.26 371.91 214.41 378.1Z" fill="#FFFFFF" fill-opacity="1.000000" fill-rule="evenodd"/>
	<path id="Vector" d="M147 391.16C156.79 389.94 164.27 383.61 164.18 379.45C164.05 375.29 156.2 369.59 146.4 368.68C136.6 367.75 129.06 374.19 129.22 380.39C129.37 386.59 137.17 392.38 147 391.16Z" stroke="#663300" stroke-opacity="1.000000" stroke-width="1.417300" stroke-linejoin="round"/>
	<path id="Vector" d="M129.22 380.39C129.37 386.59 137.17 392.38 147 391.16C156.79 389.94 164.27 383.61 164.18 379.45C164.05 375.29 156.2 369.59 146.4 368.68C136.6 367.75 129.06 374.19 129.22 380.39Z" fill="#FFFFFF" fill-opacity="1.000000" fill-rule="evenodd"/>
	<path id="Vector" d="M175.35 406.56C171.03 397.67 172.25 387.96 175.79 385.77C179.36 383.58 188.4 387.09 194.51 394.79C200.64 402.46 199.39 412.32 194.07 415.57C188.78 418.83 179.67 415.45 175.35 406.56Z" stroke="#663300" stroke-opacity="1.000000" stroke-width="1.417300" stroke-linejoin="round"/>
	<path id="Vector" d="M194.07 415.57C188.78 418.83 179.67 415.45 175.35 406.56C171.03 397.67 172.25 387.96 175.79 385.77C179.36 383.58 188.4 387.09 194.51 394.79C200.64 402.46 199.39 412.32 194.07 415.57Z" fill="#FFFFFF" fill-opacity="1.000000" fill-rule="evenodd"/>
	<path id="Vector" d="M149.06 363.71C155.04 371.59 164.24 374.91 167.78 372.72C171.35 370.53 172.32 360.89 168.22 351.94C164.15 342.99 154.82 339.67 149.5 342.93C144.21 346.18 143.08 355.82 149.06 363.71Z" stroke="#663300" stroke-opacity="1.000000" stroke-width="1.417300" stroke-linejoin="round"/>
	<path id="Vector" d="M149.5 342.93C144.21 346.18 143.08 355.82 149.06 363.71C155.04 371.59 164.24 374.91 167.78 372.72C171.35 370.53 172.32 360.89 168.22 351.94C164.15 342.99 154.82 339.67 149.5 342.93Z" fill="#FFFFFF" fill-opacity="1.000000" fill-rule="evenodd"/>
	<path id="Vector" d="M181.74 384.58C178.76 390.06 171.94 392.06 166.49 389.12C161.02 386.15 159.01 379.33 161.96 373.88C164.9 368.43 171.72 366.4 177.2 369.34C182.68 372.32 184.68 379.14 181.74 384.58Z" stroke="#663300" stroke-opacity="1.000000" stroke-width="1.417300" stroke-linejoin="round"/>
	<path id="Vector" d="M177.2 369.34C182.68 372.32 184.68 379.14 181.74 384.58C178.76 390.06 171.94 392.06 166.49 389.12C161.02 386.15 159.01 379.33 161.96 373.88C164.9 368.43 171.72 366.4 177.2 369.34Z" fill="#FECC00" fill-opacity="1.000000" fill-rule="evenodd"/>
</svg>
