<svg width="221.000000" height="49.825577" viewBox="0 0 221 49.8256" fill="none" xmlns="http://www.w3.org/2000/svg" xmlns:xlink="http://www.w3.org/1999/xlink">
	<desc>
			Created with Pixso.
	</desc>
	<defs/>
	<path id="Vector" d="M1.94 45.8L5.1 45.78L5.1 40.68L2.84 40.68C2.44 40.68 2.25 40.88 2.25 41.27L2.25 44.58C2.25 45.08 2.14 45.49 1.94 45.8ZM5.96 46.82L1.16 46.82L1.16 47.75C1.16 47.92 1.11 48.06 1 48.18C0.89 48.3 0.76 48.36 0.59 48.36C0.43 48.36 0.29 48.3 0.17 48.18C0.05 48.06 0 47.92 0 47.75L0 46.52C0 46.18 0.12 45.95 0.38 45.85C0.69 45.7 0.89 45.53 0.98 45.32C1.06 45.11 1.1 44.84 1.1 44.51L1.1 41.11C1.1 40.13 1.63 39.64 2.68 39.64L5.76 39.64C6.1 39.64 6.26 39.86 6.26 40.3L6.26 45.78C6.54 45.78 6.73 45.8 6.84 45.83C7.03 45.9 7.13 46.06 7.13 46.3L7.13 47.75C7.13 47.92 7.07 48.07 6.94 48.18C6.81 48.3 6.66 48.36 6.49 48.36C6.33 48.36 6.2 48.3 6.11 48.18C6.01 48.06 5.96 47.92 5.96 47.75L5.96 46.82L5.96 46.82Z" fill="#663300" fill-opacity="1.000000" fill-rule="nonzero"/>
	<path id="Vector" d="M8.76 42.8L12.73 42.8C12.73 42.19 12.59 41.69 12.28 41.29C11.95 40.84 11.48 40.62 10.88 40.62C10.28 40.62 9.78 40.83 9.37 41.26C8.97 41.69 8.76 42.2 8.76 42.8ZM10.87 45.86C11.58 45.86 12.25 45.62 12.88 45.14C13.05 45 13.2 44.93 13.32 44.93C13.64 44.93 13.8 45.1 13.8 45.43C13.8 45.53 13.72 45.67 13.56 45.85C13.26 46.18 12.84 46.44 12.33 46.63C11.85 46.8 11.37 46.89 10.88 46.89C9.84 46.89 9.03 46.52 8.43 45.78C7.87 45.08 7.59 44.21 7.59 43.16C7.59 42.17 7.89 41.33 8.48 40.65C9.1 39.93 9.9 39.57 10.88 39.57C11.76 39.57 12.49 39.91 13.08 40.58C13.63 41.23 13.91 42 13.91 42.89C13.91 43.42 13.65 43.68 13.13 43.68L8.77 43.68C8.77 44.28 8.97 44.79 9.38 45.22C9.79 45.65 10.29 45.86 10.87 45.86Z" fill="#663300" fill-opacity="1.000000" fill-rule="nonzero"/>
	<path id="Vector" d="M16.15 40.68L14.96 40.68C14.82 40.68 14.69 40.64 14.57 40.54C14.44 40.44 14.38 40.32 14.38 40.18C14.38 39.82 14.58 39.64 14.96 39.64L18.56 39.64C18.93 39.64 19.11 39.82 19.11 40.18C19.11 40.51 18.94 40.68 18.61 40.68L17.32 40.68L17.32 46.33C17.32 46.5 17.26 46.64 17.14 46.75C17.02 46.85 16.87 46.9 16.7 46.9C16.34 46.9 16.15 46.71 16.15 46.3L16.15 40.68Z" fill="#663300" fill-opacity="1.000000" fill-rule="nonzero"/>
	<path id="Vector" d="M19.62 43.24C19.62 42.25 19.9 41.4 20.46 40.71C21.06 39.96 21.83 39.58 22.8 39.58C23.19 39.58 23.59 39.65 23.98 39.77C24.51 39.94 24.77 40.19 24.77 40.49C24.77 40.82 24.62 40.98 24.34 40.98C24.14 40.98 23.93 40.92 23.69 40.8C23.46 40.68 23.17 40.62 22.85 40.62C22.21 40.62 21.69 40.9 21.3 41.47C20.96 41.98 20.79 42.57 20.79 43.23C20.79 43.98 20.94 44.59 21.25 45.06C21.61 45.62 22.14 45.9 22.85 45.9C23.12 45.9 23.44 45.81 23.8 45.64C24.15 45.47 24.35 45.38 24.4 45.38C24.74 45.38 24.91 45.56 24.91 45.9C24.91 46.11 24.78 46.3 24.51 46.46C24.07 46.75 23.52 46.9 22.86 46.9C21.82 46.9 21.02 46.54 20.44 45.82C19.89 45.15 19.62 44.29 19.62 43.24Z" fill="#663300" fill-opacity="1.000000" fill-rule="nonzero"/>
	<path id="Vector" d="M25.93 46.3L25.93 40.15C25.93 39.77 26.12 39.58 26.5 39.58C26.9 39.58 27.1 39.78 27.1 40.18L27.1 42.48L30.02 39.78C30.16 39.65 30.33 39.58 30.51 39.58C30.86 39.58 31.03 39.76 31.03 40.11C31.03 40.26 30.94 40.41 30.78 40.56L28.11 42.96L31.03 45.85C31.19 46 31.27 46.2 31.27 46.42C31.27 46.74 31.1 46.9 30.77 46.9C30.56 46.9 30.36 46.8 30.17 46.61L27.11 43.51L27.11 46.29C27.11 46.69 26.91 46.89 26.51 46.89C26.35 46.89 26.22 46.83 26.1 46.71C25.99 46.6 25.93 46.45 25.93 46.3Z" fill="#663300" fill-opacity="1.000000" fill-rule="nonzero"/>
	<path id="Vector" d="M33.08 44.9L36.86 40C37.08 39.72 37.3 39.58 37.52 39.58C37.88 39.58 38.07 39.76 38.07 40.12L38.07 46.35C38.07 46.5 38.01 46.63 37.89 46.74C37.77 46.85 37.64 46.9 37.5 46.9C37.34 46.9 37.2 46.85 37.08 46.75C36.96 46.65 36.9 46.52 36.9 46.37L36.9 41.63L33.07 46.6C32.92 46.79 32.72 46.9 32.5 46.9C32.11 46.9 31.92 46.72 31.92 46.35L31.92 40.15C31.92 39.99 31.98 39.85 32.09 39.74C32.2 39.63 32.34 39.58 32.5 39.58C32.66 39.58 32.81 39.63 32.92 39.74C33.03 39.85 33.08 39.99 33.08 40.15L33.08 44.9Z" fill="#663300" fill-opacity="1.000000" fill-rule="nonzero"/>
	<path id="Vector" d="M40.9 37.73C40.9 37.45 41.06 37.31 41.38 37.31C41.53 37.31 41.75 37.44 42.02 37.7C42.28 37.96 42.52 38.09 42.72 38.09C42.92 38.09 43.16 37.96 43.43 37.7C43.7 37.44 43.91 37.31 44.06 37.31C44.37 37.31 44.53 37.45 44.53 37.73C44.53 38.08 44.31 38.39 43.87 38.67C43.48 38.92 43.09 39.04 42.71 39.04C42.34 39.04 41.95 38.92 41.55 38.67C41.12 38.39 40.9 38.08 40.9 37.73ZM40.83 44.88L44.58 39.99C44.8 39.72 45.02 39.58 45.24 39.58C45.61 39.58 45.79 39.76 45.79 40.12L45.79 46.35C45.79 46.5 45.73 46.63 45.61 46.74C45.49 46.85 45.36 46.9 45.22 46.9C45.06 46.9 44.92 46.85 44.8 46.75C44.68 46.65 44.61 46.52 44.61 46.37L44.61 41.63L40.8 46.6C40.64 46.79 40.45 46.9 40.22 46.9C39.83 46.9 39.65 46.72 39.65 46.35L39.65 40.15C39.65 39.99 39.7 39.85 39.82 39.74C39.93 39.63 40.07 39.58 40.24 39.58C40.41 39.58 40.54 39.63 40.66 39.74C40.77 39.85 40.83 39.99 40.83 40.15L40.83 44.88L40.83 44.88Z" fill="#663300" fill-opacity="1.000000" fill-rule="nonzero"/>
	<path id="Vector" d="M51.16 46.19L51.16 40.09C51.16 39.92 51.21 39.78 51.32 39.67C51.43 39.55 51.57 39.49 51.73 39.49C52.13 39.49 52.33 39.69 52.33 40.09L52.33 45.78L55.63 45.78L55.63 40.09C55.63 39.93 55.68 39.78 55.79 39.67C55.9 39.55 56.04 39.49 56.2 39.49C56.6 39.49 56.8 39.69 56.8 40.09L56.8 45.78C57.08 45.78 57.27 45.8 57.36 45.83C57.54 45.9 57.62 46.06 57.62 46.3L57.62 47.75C57.62 47.92 57.57 48.07 57.46 48.18C57.34 48.3 57.2 48.36 57.03 48.36C56.87 48.36 56.74 48.29 56.62 48.17C56.51 48.05 56.46 47.91 56.46 47.75L56.46 46.82L51.74 46.82C51.56 46.82 51.42 46.76 51.32 46.64C51.21 46.52 51.16 46.36 51.16 46.19Z" fill="#663300" fill-opacity="1.000000" fill-rule="nonzero"/>
	<path id="Vector" d="M59.27 42.8L63.24 42.8C63.24 42.19 63.1 41.69 62.79 41.29C62.46 40.84 61.99 40.62 61.39 40.62C60.79 40.62 60.28 40.83 59.88 41.26C59.48 41.69 59.27 42.2 59.27 42.8ZM61.38 45.86C62.09 45.86 62.76 45.62 63.38 45.14C63.56 45 63.71 44.93 63.83 44.93C64.15 44.93 64.31 45.1 64.31 45.43C64.31 45.53 64.23 45.67 64.07 45.85C63.77 46.18 63.35 46.44 62.83 46.63C62.36 46.8 61.88 46.89 61.39 46.89C60.35 46.89 59.53 46.52 58.94 45.78C58.38 45.08 58.1 44.21 58.1 43.16C58.1 42.17 58.4 41.33 58.98 40.65C59.61 39.93 60.41 39.57 61.39 39.57C62.27 39.57 63 39.91 63.59 40.58C64.14 41.23 64.42 42 64.42 42.89C64.42 43.42 64.16 43.68 63.64 43.68L59.28 43.68C59.28 44.28 59.48 44.79 59.89 45.22C60.29 45.65 60.79 45.86 61.38 45.86Z" fill="#663300" fill-opacity="1.000000" fill-rule="nonzero"/>
	<path id="Vector" d="M70.34 43.52L66.76 43.52L66.76 46.3C66.76 46.69 66.56 46.9 66.16 46.9C66.01 46.9 65.87 46.84 65.76 46.72C65.65 46.6 65.59 46.45 65.59 46.3L65.59 40.21C65.59 40.03 65.64 39.89 65.75 39.76C65.85 39.64 65.99 39.58 66.16 39.58C66.56 39.58 66.76 39.78 66.76 40.18L66.76 42.48L70.34 42.48L70.34 40.21C70.34 40.03 70.39 39.88 70.5 39.76C70.6 39.64 70.74 39.58 70.91 39.58C71.31 39.58 71.51 39.78 71.51 40.18L71.51 46.3C71.51 46.7 71.31 46.9 70.91 46.9C70.75 46.9 70.62 46.84 70.51 46.72C70.4 46.6 70.34 46.45 70.34 46.3L70.34 43.52Z" fill="#663300" fill-opacity="1.000000" fill-rule="nonzero"/>
	<path id="Vector" d="M74.15 40.68L72.96 40.68C72.81 40.68 72.68 40.64 72.56 40.54C72.44 40.44 72.38 40.32 72.38 40.18C72.38 39.82 72.57 39.64 72.96 39.64L76.56 39.64C76.93 39.64 77.11 39.82 77.11 40.18C77.11 40.51 76.94 40.68 76.61 40.68L75.32 40.68L75.32 46.33C75.32 46.5 75.26 46.64 75.14 46.75C75.02 46.85 74.87 46.9 74.7 46.9C74.33 46.9 74.15 46.71 74.15 46.3L74.15 40.68Z" fill="#663300" fill-opacity="1.000000" fill-rule="nonzero"/>
	<path id="Vector" d="M79.16 45.93L79.16 49.11C79.16 49.58 78.97 49.82 78.59 49.82C78.42 49.82 78.27 49.75 78.16 49.61C78.05 49.47 77.99 49.31 77.99 49.14L77.99 40.21C77.99 40.03 78.04 39.88 78.15 39.76C78.25 39.64 78.39 39.58 78.56 39.58C78.74 39.58 78.88 39.63 78.99 39.73C79.1 39.84 79.16 40.11 79.16 40.54C79.48 39.9 80.14 39.58 81.13 39.58C82.16 39.58 82.94 39.94 83.47 40.67C83.93 41.31 84.17 42.15 84.17 43.2C84.17 44.26 83.93 45.12 83.45 45.77C82.9 46.52 82.12 46.9 81.09 46.9C80.28 46.9 79.63 46.57 79.16 45.93ZM79.04 43.23C79.04 43.94 79.21 44.53 79.53 45.02C79.91 45.58 80.43 45.87 81.1 45.87C82.36 45.87 83 44.98 83 43.2C83 42.48 82.87 41.9 82.62 41.46C82.29 40.9 81.79 40.62 81.13 40.62C80.44 40.62 79.91 40.89 79.53 41.44C79.21 41.92 79.04 42.51 79.04 43.23Z" fill="#663300" fill-opacity="1.000000" fill-rule="nonzero"/>
	<path id="Vector" d="M90.36 45.93L90.36 49.11C90.36 49.58 90.17 49.82 89.79 49.82C89.62 49.82 89.48 49.75 89.36 49.61C89.25 49.47 89.19 49.31 89.19 49.14L89.19 40.21C89.19 40.03 89.25 39.88 89.35 39.76C89.46 39.64 89.59 39.58 89.77 39.58C89.94 39.58 90.08 39.63 90.2 39.73C90.31 39.84 90.36 40.11 90.36 40.54C90.68 39.9 91.34 39.58 92.33 39.58C93.36 39.58 94.14 39.94 94.67 40.67C95.14 41.31 95.37 42.15 95.37 43.2C95.37 44.26 95.13 45.12 94.65 45.77C94.11 46.52 93.32 46.9 92.29 46.9C91.47 46.9 90.83 46.57 90.36 45.93ZM90.24 43.23C90.24 43.94 90.4 44.53 90.73 45.02C91.11 45.58 91.63 45.87 92.3 45.87C93.56 45.87 94.2 44.98 94.2 43.2C94.2 42.48 94.07 41.9 93.81 41.46C93.49 40.9 92.99 40.62 92.32 40.62C91.64 40.62 91.11 40.89 90.73 41.44C90.4 41.92 90.24 42.51 90.24 43.23Z" fill="#663300" fill-opacity="1.000000" fill-rule="nonzero"/>
	<path id="Vector" d="M101.43 40.54C101.43 40.11 101.49 39.83 101.6 39.73C101.72 39.63 101.84 39.58 101.99 39.58C102.35 39.58 102.54 39.78 102.54 40.18L102.54 46.3C102.54 46.7 102.35 46.9 101.98 46.9C101.82 46.9 101.7 46.85 101.59 46.75C101.48 46.66 101.42 46.51 101.4 46.32C101.41 46.4 101.42 46.23 101.42 45.82C100.91 46.54 100.25 46.9 99.47 46.9C98.77 46.9 98.14 46.67 97.59 46.23C97.03 45.79 96.66 45.22 96.45 44.53C96.35 44.16 96.29 43.73 96.29 43.23C96.29 42.64 96.38 42.12 96.56 41.66C96.81 41.05 97.18 40.55 97.66 40.19C98.16 39.78 98.74 39.58 99.39 39.58C100.2 39.58 100.88 39.9 101.43 40.54ZM97.48 43.31C97.48 43.95 97.62 44.52 97.93 45C98.28 45.57 98.76 45.86 99.38 45.86C100.08 45.86 100.61 45.59 100.96 45.04C101.26 44.59 101.41 43.99 101.41 43.25C101.41 42.53 101.27 41.93 100.98 41.46C100.63 40.89 100.11 40.61 99.44 40.61C98.78 40.61 98.27 40.9 97.92 41.5C97.62 42 97.48 42.6 97.48 43.31Z" fill="#663300" fill-opacity="1.000000" fill-rule="nonzero"/>
	<path id="Vector" d="M106.12 45.96C106.49 45.96 106.8 45.85 107.03 45.64C107.26 45.42 107.38 45.13 107.38 44.76C107.38 44.24 107.23 43.88 106.95 43.71C106.76 43.6 106.46 43.54 106.03 43.53C105.6 43.52 105.33 43.47 105.21 43.39C105.09 43.3 105.02 43.18 105.02 43.02C105.02 42.87 105.08 42.75 105.2 42.65C105.31 42.55 105.58 42.49 106.02 42.49C106.46 42.48 106.77 42.39 106.95 42.21C107.13 42.03 107.22 41.82 107.22 41.56C107.22 41.25 107.12 41 106.92 40.83C106.71 40.65 106.45 40.56 106.13 40.56C105.85 40.56 105.64 40.58 105.51 40.62C105.37 40.65 105.17 40.76 104.91 40.96C104.66 41.15 104.46 41.25 104.34 41.25C104.22 41.25 104.11 41.2 104.01 41.1C103.92 41.01 103.86 40.9 103.86 40.78C103.86 40.63 103.94 40.48 104.09 40.35C104.64 39.83 105.32 39.58 106.13 39.58C106.78 39.58 107.29 39.74 107.68 40.07C108.1 40.41 108.31 40.89 108.31 41.52C108.31 42.15 108.06 42.62 107.56 42.95C108.22 43.25 108.55 43.84 108.55 44.7C108.55 45.41 108.33 45.96 107.88 46.33C107.44 46.71 106.85 46.9 106.12 46.9C105.7 46.9 105.28 46.83 104.85 46.7C104.37 46.56 104 46.36 103.74 46.1C103.63 45.98 103.57 45.84 103.57 45.69C103.57 45.56 103.61 45.44 103.7 45.34C103.79 45.24 103.9 45.19 104.03 45.19C104.18 45.19 104.31 45.23 104.42 45.32C104.94 45.75 105.51 45.96 106.12 45.96Z" fill="#663300" fill-opacity="1.000000" fill-rule="nonzero"/>
	<path id="Vector" d="M110.82 43.5L110.82 45.83L112.06 45.83C112.98 45.83 113.44 45.45 113.44 44.68C113.44 44.29 113.3 43.99 113.05 43.79C112.79 43.6 112.46 43.49 112.06 43.49L110.82 43.49L110.82 43.5ZM110.82 40.63L110.82 42.58L111.9 42.58C112.21 42.58 112.47 42.49 112.67 42.31C112.87 42.13 112.96 41.89 112.96 41.57C112.96 40.94 112.64 40.63 112 40.63L110.82 40.63ZM114.6 44.69C114.6 46.11 113.82 46.82 112.27 46.82L110.28 46.82C109.88 46.82 109.68 46.63 109.68 46.24L109.68 40.2C109.68 39.83 109.87 39.65 110.26 39.65L112.06 39.65C112.64 39.65 113.12 39.79 113.49 40.07C113.9 40.38 114.11 40.83 114.11 41.39C114.11 42.1 113.84 42.6 113.3 42.92C114.17 43.22 114.6 43.8 114.6 44.69Z" fill="#663300" fill-opacity="1.000000" fill-rule="nonzero"/>
	<path id="Vector" d="M116.92 44.9L120.69 40C120.91 39.72 121.13 39.58 121.35 39.58C121.72 39.58 121.9 39.76 121.9 40.12L121.9 46.35C121.9 46.5 121.84 46.63 121.73 46.74C121.61 46.85 121.48 46.9 121.33 46.9C121.17 46.9 121.03 46.85 120.91 46.75C120.79 46.65 120.73 46.52 120.73 46.37L120.73 41.63L116.91 46.6C116.75 46.79 116.56 46.9 116.33 46.9C115.94 46.9 115.75 46.72 115.75 46.35L115.75 40.15C115.75 39.99 115.81 39.85 115.92 39.74C116.04 39.63 116.17 39.58 116.34 39.58C116.5 39.58 116.64 39.63 116.75 39.74C116.86 39.85 116.92 39.99 116.92 40.15L116.92 44.9Z" fill="#663300" fill-opacity="1.000000" fill-rule="nonzero"/>
	<path id="Vector" d="M124.54 40.68L123.35 40.68C123.21 40.68 123.08 40.64 122.95 40.54C122.83 40.44 122.77 40.32 122.77 40.18C122.77 39.82 122.96 39.64 123.35 39.64L126.95 39.64C127.32 39.64 127.5 39.82 127.5 40.18C127.5 40.51 127.33 40.68 127 40.68L125.71 40.68L125.71 46.33C125.71 46.5 125.65 46.64 125.53 46.75C125.41 46.85 125.26 46.9 125.09 46.9C124.73 46.9 124.54 46.71 124.54 46.3L124.54 40.68Z" fill="#663300" fill-opacity="1.000000" fill-rule="nonzero"/>
	<path id="Vector" d="M129.54 44.9L133.31 40C133.53 39.72 133.75 39.58 133.97 39.58C134.34 39.58 134.52 39.76 134.52 40.12L134.52 46.35C134.52 46.5 134.46 46.63 134.35 46.74C134.23 46.85 134.09 46.9 133.95 46.9C133.79 46.9 133.65 46.85 133.53 46.75C133.41 46.65 133.35 46.52 133.35 46.37L133.35 41.63L129.53 46.6C129.37 46.79 129.17 46.9 128.95 46.9C128.56 46.9 128.37 46.72 128.37 46.35L128.37 40.15C128.37 39.99 128.43 39.85 128.54 39.74C128.66 39.63 128.79 39.58 128.95 39.58C129.12 39.58 129.26 39.63 129.37 39.74C129.48 39.85 129.54 39.99 129.54 40.15L129.54 44.9Z" fill="#663300" fill-opacity="1.000000" fill-rule="nonzero"/>
	<path id="Vector" d="M139.4 42.96L139.4 40.63L138.35 40.63C137.42 40.63 136.96 41.02 136.96 41.8C136.96 42.57 137.42 42.95 138.35 42.95L139.4 42.95L139.4 42.96ZM140.03 39.65C140.39 39.65 140.57 39.84 140.57 40.22L140.57 46.27C140.57 46.44 140.52 46.6 140.41 46.72C140.31 46.84 140.17 46.9 140 46.9C139.83 46.9 139.69 46.84 139.57 46.73C139.46 46.61 139.4 46.47 139.4 46.29L139.4 43.99L138.69 43.99L136.75 46.51C136.55 46.76 136.36 46.89 136.16 46.89C136.01 46.89 135.89 46.85 135.78 46.77C135.67 46.68 135.62 46.58 135.62 46.45C135.62 46.25 135.7 46.03 135.87 45.82L137.35 43.88C136.32 43.57 135.8 42.88 135.8 41.81C135.8 40.36 136.56 39.64 138.09 39.64L140.03 39.64L140.03 39.65Z" fill="#663300" fill-opacity="1.000000" fill-rule="nonzero"/>
	<path id="Vector" d="M147.09 44.9L150.87 40C151.08 39.72 151.3 39.58 151.53 39.58C151.89 39.58 152.07 39.76 152.07 40.12L152.07 46.35C152.07 46.5 152.02 46.63 151.9 46.74C151.78 46.85 151.65 46.9 151.5 46.9C151.34 46.9 151.21 46.85 151.09 46.75C150.97 46.65 150.9 46.52 150.9 46.37L150.9 41.63L147.08 46.6C146.92 46.79 146.73 46.9 146.5 46.9C146.12 46.9 145.93 46.72 145.93 46.35L145.93 40.15C145.93 39.99 145.98 39.85 146.09 39.74C146.21 39.63 146.35 39.58 146.51 39.58C146.67 39.58 146.81 39.63 146.92 39.74C147.03 39.85 147.09 39.99 147.09 40.15L147.09 44.9Z" fill="#663300" fill-opacity="1.000000" fill-rule="nonzero"/>
	<path id="Vector" d="M157.43 46.3L157.43 40.15C157.43 39.77 157.62 39.58 158 39.58C158.4 39.58 158.6 39.78 158.6 40.18L158.6 42.48L161.52 39.78C161.67 39.65 161.83 39.58 162.02 39.58C162.36 39.58 162.53 39.76 162.53 40.11C162.53 40.26 162.45 40.41 162.28 40.56L159.62 42.96L162.54 45.85C162.69 46 162.77 46.2 162.77 46.42C162.77 46.74 162.61 46.9 162.27 46.9C162.06 46.9 161.86 46.8 161.67 46.61L158.61 43.51L158.61 46.29C158.61 46.69 158.41 46.89 158.01 46.89C157.85 46.89 157.72 46.83 157.61 46.71C157.49 46.6 157.43 46.45 157.43 46.3Z" fill="#663300" fill-opacity="1.000000" fill-rule="nonzero"/>
	<path id="Vector" d="M166.07 46.9C165.11 46.9 164.33 46.52 163.73 45.77C163.19 45.08 162.92 44.24 162.92 43.25C162.92 42.26 163.19 41.41 163.73 40.71C164.32 39.96 165.1 39.58 166.07 39.58C167.05 39.58 167.84 39.96 168.43 40.71C168.96 41.4 169.23 42.25 169.23 43.25C169.23 44.25 168.96 45.09 168.42 45.77C167.82 46.52 167.05 46.9 166.07 46.9ZM166.07 45.86C166.76 45.86 167.28 45.58 167.62 45.03C167.91 44.57 168.05 43.97 168.05 43.25C168.05 42.56 167.91 41.96 167.6 41.48C167.24 40.91 166.73 40.62 166.07 40.62C165.38 40.62 164.87 40.9 164.52 41.47C164.23 41.95 164.08 42.55 164.08 43.26C164.08 43.97 164.23 44.57 164.52 45.03C164.88 45.58 165.4 45.86 166.07 45.86Z" fill="#663300" fill-opacity="1.000000" fill-rule="nonzero"/>
	<path id="Vector" d="M171.63 45.93L171.63 49.11C171.63 49.58 171.44 49.82 171.06 49.82C170.89 49.82 170.75 49.75 170.63 49.61C170.52 49.47 170.46 49.31 170.46 49.14L170.46 40.21C170.46 40.03 170.51 39.88 170.62 39.76C170.72 39.64 170.86 39.58 171.03 39.58C171.21 39.58 171.35 39.63 171.46 39.73C171.57 39.84 171.63 40.11 171.63 40.54C171.95 39.9 172.61 39.58 173.6 39.58C174.63 39.58 175.41 39.94 175.93 40.67C176.4 41.31 176.63 42.15 176.63 43.2C176.63 44.26 176.39 45.12 175.92 45.77C175.37 46.52 174.58 46.9 173.56 46.9C172.75 46.9 172.1 46.57 171.63 45.93ZM171.52 43.23C171.52 43.94 171.68 44.53 172 45.02C172.38 45.58 172.91 45.87 173.57 45.87C174.84 45.87 175.47 44.98 175.47 43.2C175.47 42.48 175.34 41.9 175.09 41.46C174.76 40.9 174.26 40.62 173.6 40.62C172.91 40.62 172.38 40.89 172 41.44C171.68 41.92 171.52 42.51 171.52 43.23Z" fill="#663300" fill-opacity="1.000000" fill-rule="nonzero"/>
	<path id="Vector" d="M179.05 45.93L179.05 49.11C179.05 49.58 178.86 49.82 178.48 49.82C178.3 49.82 178.16 49.75 178.05 49.61C177.94 49.47 177.88 49.31 177.88 49.14L177.88 40.21C177.88 40.03 177.93 39.88 178.04 39.76C178.14 39.64 178.28 39.58 178.45 39.58C178.62 39.58 178.76 39.63 178.88 39.73C178.99 39.84 179.05 40.11 179.05 40.54C179.37 39.9 180.02 39.58 181.02 39.58C182.05 39.58 182.82 39.94 183.35 40.67C183.82 41.31 184.06 42.15 184.06 43.2C184.06 44.26 183.82 45.12 183.34 45.77C182.79 46.52 182.01 46.9 180.98 46.9C180.16 46.9 179.51 46.57 179.05 45.93ZM178.93 43.23C178.93 43.94 179.09 44.53 179.41 45.02C179.79 45.58 180.32 45.87 180.98 45.87C182.25 45.87 182.88 44.98 182.88 43.2C182.88 42.48 182.76 41.9 182.5 41.46C182.17 40.9 181.68 40.62 181.01 40.62C180.32 40.62 179.79 40.89 179.41 41.44C179.09 41.92 178.93 42.51 178.93 43.23Z" fill="#663300" fill-opacity="1.000000" fill-rule="nonzero"/>
	<path id="Vector" d="M186.1 42.8L190.07 42.8C190.07 42.19 189.92 41.69 189.62 41.29C189.28 40.84 188.81 40.62 188.21 40.62C187.61 40.62 187.11 40.83 186.7 41.26C186.3 41.69 186.1 42.2 186.1 42.8ZM188.2 45.86C188.91 45.86 189.58 45.62 190.21 45.14C190.38 45 190.53 44.93 190.65 44.93C190.97 44.93 191.13 45.1 191.13 45.43C191.13 45.53 191.05 45.67 190.9 45.85C190.59 46.18 190.18 46.44 189.66 46.63C189.19 46.8 188.7 46.89 188.21 46.89C187.18 46.89 186.36 46.52 185.77 45.78C185.2 45.08 184.93 44.21 184.93 43.16C184.93 42.17 185.22 41.33 185.81 40.65C186.43 39.93 187.23 39.57 188.22 39.57C189.09 39.57 189.83 39.91 190.41 40.58C190.96 41.23 191.24 42 191.24 42.89C191.24 43.42 190.98 43.68 190.47 43.68L186.1 43.68C186.1 44.28 186.31 44.79 186.72 45.22C187.11 45.65 187.61 45.86 188.2 45.86Z" fill="#663300" fill-opacity="1.000000" fill-rule="nonzero"/>
	<path id="Vector" d="M192.42 46.3L192.42 40.15C192.42 39.77 192.61 39.58 192.99 39.58C193.39 39.58 193.59 39.78 193.59 40.18L193.59 42.48L196.5 39.78C196.65 39.65 196.82 39.58 197 39.58C197.34 39.58 197.51 39.76 197.51 40.11C197.51 40.26 197.43 40.41 197.26 40.56L194.6 42.96L197.52 45.85C197.68 46 197.76 46.2 197.76 46.42C197.76 46.74 197.59 46.9 197.26 46.9C197.05 46.9 196.84 46.8 196.65 46.61L193.59 43.51L193.59 46.29C193.59 46.69 193.39 46.89 192.99 46.89C192.84 46.89 192.71 46.83 192.59 46.71C192.47 46.6 192.42 46.45 192.42 46.3Z" fill="#663300" fill-opacity="1.000000" fill-rule="nonzero"/>
	<path id="Vector" d="M198.4 46.19L198.4 40.09C198.4 39.92 198.45 39.78 198.56 39.67C198.67 39.55 198.81 39.49 198.97 39.49C199.37 39.49 199.57 39.69 199.57 40.09L199.57 45.78L202.87 45.78L202.87 40.09C202.87 39.93 202.92 39.78 203.03 39.67C203.14 39.55 203.28 39.49 203.44 39.49C203.84 39.49 204.04 39.69 204.04 40.09L204.04 45.78C204.33 45.78 204.52 45.8 204.61 45.83C204.78 45.9 204.87 46.06 204.87 46.3L204.87 47.75C204.87 47.92 204.81 48.07 204.7 48.18C204.58 48.3 204.44 48.36 204.27 48.36C204.11 48.36 203.98 48.29 203.87 48.17C203.76 48.05 203.7 47.91 203.7 47.75L203.7 46.82L198.98 46.82C198.8 46.82 198.66 46.76 198.56 46.64C198.45 46.52 198.4 46.36 198.4 46.19Z" fill="#663300" fill-opacity="1.000000" fill-rule="nonzero"/>
	<path id="Vector" d="M206.87 44.9L210.64 40C210.86 39.72 211.08 39.58 211.3 39.58C211.66 39.58 211.85 39.76 211.85 40.12L211.85 46.35C211.85 46.5 211.79 46.63 211.68 46.74C211.55 46.85 211.42 46.9 211.28 46.9C211.12 46.9 210.98 46.85 210.86 46.75C210.74 46.65 210.68 46.52 210.68 46.37L210.68 41.63L206.86 46.6C206.7 46.79 206.5 46.9 206.28 46.9C205.89 46.9 205.7 46.72 205.7 46.35L205.7 40.15C205.7 39.99 205.76 39.85 205.87 39.74C205.98 39.63 206.12 39.58 206.28 39.58C206.45 39.58 206.59 39.63 206.7 39.74C206.81 39.85 206.87 39.99 206.87 40.15L206.87 44.9Z" fill="#663300" fill-opacity="1.000000" fill-rule="nonzero"/>
	<path id="Vector" d="M214.6 44.9L218.37 40C218.59 39.72 218.81 39.58 219.03 39.58C219.4 39.58 219.58 39.76 219.58 40.12L219.58 46.35C219.58 46.5 219.52 46.63 219.41 46.74C219.29 46.85 219.15 46.9 219.01 46.9C218.85 46.9 218.71 46.85 218.59 46.75C218.47 46.65 218.41 46.52 218.41 46.37L218.41 41.63L214.59 46.6C214.43 46.79 214.24 46.9 214.01 46.9C213.62 46.9 213.43 46.72 213.43 46.35L213.43 40.15C213.43 39.99 213.49 39.85 213.6 39.74C213.72 39.63 213.85 39.58 214.01 39.58C214.18 39.58 214.32 39.63 214.43 39.74C214.54 39.85 214.6 39.99 214.6 40.15L214.6 44.9Z" fill="#663300" fill-opacity="1.000000" fill-rule="nonzero"/>
	<path id="Vector" d="M117.26 26.11C119.1 26.11 120.62 25.29 120.62 23.23C120.62 21.48 119.63 20.23 117.81 20.23C115.55 20.23 115.22 22.23 115.22 24.11C115.22 25.87 115.5 26.11 117.26 26.11ZM102.99 21.81C102.5 21.81 101.3 21.81 100.93 22.2C100.62 22.54 100.62 23.49 100.62 23.92C100.62 24.57 100.63 25.86 101.16 26.34C101.51 26.66 102.16 26.7 102.62 26.7C104.45 26.7 106.42 25.91 106.42 23.81C106.42 23.4 106.34 22.97 106.08 22.64C105.46 21.88 103.88 21.81 102.99 21.81ZM102.03 15.6C101.74 15.6 100.93 15.6 100.71 15.82C100.46 16.07 100.48 17.03 100.48 17.34C100.48 17.79 100.46 19.03 100.84 19.36C101.13 19.61 101.9 19.61 102.25 19.61C103.12 19.61 104.5 19.53 105.13 18.84C105.45 18.49 105.54 18.02 105.54 17.57C105.54 17.08 105.44 16.65 105.06 16.32C104.35 15.69 102.92 15.6 102.03 15.6ZM89.19 24.31C91.48 24.31 92.19 20.65 92.19 18.89C92.19 16.87 91.43 14.16 88.97 14.16C86.57 14.16 85.83 16.61 85.83 18.63C85.83 19.91 86.09 21.29 86.7 22.43C87.12 23.22 87.79 24.02 88.7 24.25C88.85 24.29 89.02 24.31 89.19 24.31ZM30.07 20.42C28.45 20.42 26.79 21.26 26.79 23.08C26.79 24.66 27.93 25.2 29.38 25.2C31.12 25.2 32.19 24.46 32.19 22.64C32.19 21.19 31.58 20.42 30.07 20.42ZM211.86 23.17C211.86 23.51 211.86 23.84 211.86 24.17C211.86 24.96 211.86 25.74 211.86 26.52C212.41 26.51 212.98 26.52 213.51 26.56L214.16 26.61L214.1 27.26C214.07 27.64 214.03 28.04 214.03 28.42L214.03 29.06L213.39 29.06C212.41 29.06 211.43 29.08 210.46 29.12C209.7 29.15 208.92 29.19 208.17 29.28L207.44 29.37L207.44 28.64C207.44 28.22 207.4 27.78 207.34 27.37L207.25 26.75L207.86 26.64C208.31 26.55 208.77 26.54 209.23 26.5C209.29 24.62 209.29 22.7 209.3 20.82C209.31 20.08 209.32 19.33 209.32 18.59C209.32 17.64 209.33 16.67 209.3 15.71C209.17 15.71 209.05 15.71 208.93 15.71C208.6 15.71 208.26 15.71 207.93 15.67L207.36 15.6L207.36 15.03C207.36 14.48 207.36 13.93 207.33 13.37L207.28 12.61L208.04 12.69C208.59 12.75 209.15 12.79 209.7 12.79C210.28 12.79 210.85 12.71 211.43 12.65L212.2 12.57L212.15 13.35C212.06 14.49 212.03 15.66 211.98 16.81C211.96 17.57 211.93 18.34 211.91 19.11C212.41 18.7 212.9 18.25 213.36 17.82C214 17.21 214.62 16.59 215.22 15.94C215.59 15.53 216.01 15.07 216.34 14.62C216.4 14.32 216.41 13.96 216.41 13.67L216.41 12.9L217.17 13.03C217.61 13.11 218.18 13.13 218.64 13.13C218.96 13.13 219.28 13.1 219.6 13.1L220.34 13.1L220.23 13.84C220.2 14.08 220.17 14.31 220.17 14.55C220.17 14.77 220.2 15.01 220.23 15.22L220.32 15.77L219.79 15.94C219.43 16.06 219.02 16.12 218.64 16.12C218.54 16.12 218.43 16.11 218.34 16.1C217.57 17 216.68 17.89 215.83 18.71C215.08 19.44 214.21 20.26 213.34 20.93C213.94 21.77 214.72 22.64 215.36 23.36C215.91 23.97 216.47 24.58 217.06 25.15C217.38 25.48 217.77 25.87 218.14 26.16C218.4 26.21 218.67 26.22 218.93 26.22C219.17 26.22 219.73 26.21 219.93 26.11L221 25.58L220.86 26.76C220.81 27.28 220.8 27.78 220.8 28.31L220.8 28.8L220.32 28.93C219.75 29.08 219.2 29.21 218.61 29.21C218.1 29.21 217.6 29.12 217.1 29.01L216.94 28.97L216.81 28.86C215.69 27.82 214.6 26.5 213.62 25.33C213.03 24.62 212.44 23.91 211.86 23.17ZM201.76 26.13C201.82 24.37 201.81 22.59 201.81 20.84C201.81 20.33 201.82 19.81 201.82 19.29C201.72 19.41 201.63 19.54 201.54 19.66C200.79 20.69 200.05 21.72 199.32 22.75C198.55 23.85 197.74 25 197.01 26.16C197.43 26.15 197.84 26.15 198.26 26.15L198.97 26.15L198.9 26.86C198.86 27.26 198.79 27.67 198.79 28.08L198.79 28.71L198.17 28.73C197.15 28.76 196.11 28.82 195.1 28.9C194.3 28.96 193.49 29.03 192.7 29.16L191.95 29.29L191.95 28.53C191.95 28.1 191.96 27.66 191.86 27.24L191.71 26.57L192.38 26.45C192.87 26.37 193.37 26.29 193.87 26.23C193.87 24.56 193.85 22.87 193.84 21.19C193.83 20.02 193.82 18.86 193.81 17.69C193.8 17.18 193.8 16.65 193.78 16.14C193.3 16.12 192.81 16.09 192.34 16.03L191.67 15.95L191.78 15.28C191.85 14.84 191.88 14.4 191.88 13.96L191.88 13.24L192.58 13.31C193.85 13.43 195.15 13.5 196.42 13.5C196.86 13.5 197.3 13.5 197.73 13.46L198.43 13.4L198.43 14.1C198.43 14.57 198.43 15.1 198.34 15.56L198.26 15.97L197.85 16.06C197.47 16.14 196.9 16.15 196.38 16.15C196.37 16.55 196.37 16.95 196.37 17.33C196.37 18.28 196.37 19.23 196.37 20.18C196.37 21.15 196.38 22.12 196.39 23.09C196.5 22.94 196.61 22.78 196.71 22.64C197.38 21.68 198.04 20.72 198.7 19.76C199.57 18.5 200.43 17.24 201.27 15.96C200.86 15.92 200.45 15.88 200.05 15.82L199.44 15.73L199.5 15.12C199.54 14.68 199.57 14.22 199.57 13.78L199.57 13.05L200.3 13.14C201.59 13.31 202.96 13.36 204.26 13.36C204.68 13.36 205.11 13.36 205.53 13.32L206.23 13.26L206.23 13.97C206.23 14.25 206.19 14.53 206.19 14.81C206.19 14.97 206.23 15.13 206.23 15.29L206.23 15.89L205.63 15.93C205.23 15.97 204.82 15.99 204.41 16C204.34 17.62 204.33 19.25 204.31 20.87C204.3 21.99 204.29 23.11 204.29 24.23C204.29 24.78 204.28 25.4 204.29 25.98C204.68 25.97 205.06 25.97 205.45 25.97L206.16 25.97L206.09 26.68C206.05 27.09 206.02 27.52 206.02 27.94L206.02 28.56L205.4 28.58C203.78 28.64 202.03 28.79 200.43 29.02L199.69 29.12L199.69 28.38C199.69 28 199.65 27.55 199.57 27.17L199.4 26.51L200.07 26.38C200.6 26.28 201.19 26.19 201.76 26.13ZM178.9 26.71C178.9 25.87 178.91 25.04 178.92 24.2C178.68 24.56 178.44 24.9 178.2 25.25C177.79 25.83 177.37 26.42 176.93 27L177.3 26.93C177.81 26.84 178.36 26.76 178.9 26.71ZM176.66 27.35C176.11 28.06 175.53 28.75 174.95 29.4L174.83 29.53L174.65 29.59C174.21 29.72 173.75 29.76 173.29 29.76C172.63 29.76 171.98 29.67 171.34 29.52L170.84 29.41L170.84 28.89C170.84 28.61 170.88 28.33 170.88 28.05C170.88 27.88 170.88 27.7 170.85 27.53L170.69 26.56L171.64 26.8C172.1 26.92 172.77 26.96 173.25 26.96C173.3 26.96 173.38 26.96 173.44 26.96C173.74 26.68 174.05 26.3 174.31 26.01C174.83 25.4 175.34 24.76 175.83 24.12C176.37 23.42 177.04 22.54 177.5 21.72C176.56 20.73 175.65 19.68 174.8 18.62C174.34 18.05 173.89 17.46 173.47 16.86C173.07 16.87 172.66 16.89 172.28 16.93L171.58 16.98L171.58 16.28C171.58 15.76 171.58 15.23 171.54 14.71L171.5 14.11L172.08 14.02C172.94 13.88 174.03 13.86 174.9 13.86L175.67 13.86L175.54 14.62C175.51 14.8 175.52 14.99 175.52 15.17C175.52 15.29 175.51 15.43 175.53 15.56C175.8 16.07 176.18 16.59 176.52 17.04C177.06 17.76 177.63 18.46 178.22 19.14C178.45 19.41 178.69 19.68 178.93 19.94C178.93 19.47 178.92 19.01 178.91 18.54C178.9 18.05 178.89 17.56 178.87 17.07C178.36 17.07 177.83 17.04 177.34 16.96L176.7 16.85L176.81 16.21C176.9 15.7 177.02 15.16 177.06 14.65L177.12 13.99L177.78 14.06C178.88 14.18 180.02 14.2 181.13 14.2C181.69 14.2 182.26 14.2 182.81 14.17L183.59 14.11L183.5 14.89C183.46 15.19 183.43 15.53 183.43 15.84C183.43 16.03 183.47 16.21 183.47 16.39L183.47 16.97L182.9 17.04C182.47 17.08 182.05 17.12 181.63 17.14C181.6 17.65 181.59 18.18 181.58 18.7C181.57 19.22 181.55 19.74 181.54 20.26C181.92 19.91 182.28 19.56 182.62 19.2C183.34 18.48 184.03 17.72 184.7 16.95C185.13 16.44 185.58 15.9 185.97 15.35C186.03 15.06 186.04 14.69 186.04 14.4L186.04 13.63L186.8 13.76C187.24 13.84 187.81 13.86 188.27 13.86C188.59 13.86 188.91 13.83 189.22 13.83L189.97 13.83L189.86 14.57C189.83 14.81 189.79 15.04 189.79 15.28C189.79 15.5 189.83 15.73 189.86 15.95L189.95 16.5L189.42 16.67C189.06 16.79 188.65 16.85 188.26 16.85C188.16 16.85 188.06 16.84 187.96 16.83C187.19 17.75 186.32 18.66 185.48 19.51C184.73 20.27 183.85 21.15 182.97 21.83C183.55 22.65 184.34 23.5 184.97 24.18C185.52 24.77 186.09 25.35 186.67 25.91C187 26.23 187.39 26.61 187.76 26.9C188.02 26.95 188.29 26.96 188.56 26.96C188.79 26.96 189.35 26.94 189.55 26.84L190.62 26.31L190.49 27.49C190.43 28.01 190.42 28.52 190.42 29.04L190.42 29.54L189.94 29.66C189.37 29.82 188.81 29.94 188.23 29.94C187.72 29.94 187.21 29.86 186.72 29.74L186.55 29.71L186.43 29.59C185.91 29.11 185.42 28.57 184.95 28.04C184.35 27.36 183.76 26.66 183.19 25.96C182.61 25.26 182.04 24.56 181.49 23.84C181.48 24.75 181.48 25.65 181.48 26.57C181.94 26.58 182.41 26.61 182.87 26.67L183.51 26.75L183.42 27.39C183.36 27.85 183.35 28.29 183.35 28.74L183.35 29.37L182.73 29.39C181.1 29.44 179.34 29.6 177.72 29.82L176.99 29.93L176.99 29.18C176.99 28.67 176.95 28.25 176.8 27.76L176.66 27.35ZM166.17 2.19C166.17 3.29 165.36 4.2 164.24 4.2C163.06 4.2 162.23 3.18 162.23 2.04C162.23 0.91 163 0 164.16 0C165.38 0 166.17 1.04 166.17 2.19ZM156.49 2.04C156.49 0.95 157.32 0.03 158.42 0.03C159.59 0.03 160.47 0.99 160.47 2.15C160.47 3.28 159.7 4.23 158.53 4.23C157.33 4.23 156.49 3.19 156.49 2.04ZM166.29 7.98C166.1 7.98 165.92 7.98 165.75 7.98C164.6 7.98 163.44 8.05 162.3 8.12C161.17 8.19 160.02 8.28 158.9 8.42C158.89 9.03 158.89 9.64 158.89 10.25C158.88 12.56 158.88 14.87 158.88 17.19C159.25 17.2 159.63 17.21 160 17.21C160.41 17.21 161.57 17.2 162.11 17.09C162.18 16.64 162.21 16.08 162.24 15.67C162.28 15.13 162.33 14.54 162.33 14L162.33 13.35L162.97 13.35C163.42 13.35 163.98 13.37 164.41 13.48L164.95 13.62L164.9 14.17C164.72 16.26 164.65 18.35 164.65 20.44C164.65 21.36 164.65 22.27 164.68 23.18L164.7 23.52L164.42 23.72C164.13 23.94 163.7 24 163.34 24C163.09 24 162.83 23.97 162.59 23.91L162.13 23.79L162.11 23.31C162.08 22.68 162.08 22.07 162.05 21.44C162.04 21.15 162.02 20.39 161.95 19.91C161.64 19.9 161.27 19.92 161.03 19.92C160.28 19.92 159.54 19.94 158.8 19.95C158.77 20.5 158.77 21.06 158.77 21.61C158.76 23.83 158.77 26.05 158.77 28.27C159.16 28.33 159.57 28.37 159.95 28.41C160.81 28.5 161.67 28.56 162.53 28.61C163.5 28.67 164.47 28.71 165.44 28.71C165.77 28.71 166.21 28.72 166.6 28.68C166.69 27.93 166.73 27.14 166.79 26.42C166.85 25.5 166.91 24.58 166.96 23.65L167.02 22.86L167.78 23.07C168.13 23.17 168.72 23.23 169.08 23.23L169.8 23.23L169.72 23.95C169.54 25.68 169.43 27.39 169.43 29.14C169.43 29.9 169.43 30.67 169.47 31.43L169.51 32.21L168.73 32.09C166.23 31.71 163.59 31.57 161.07 31.46C158.59 31.35 156.1 31.3 153.62 31.25L152.91 31.24L152.99 30.54C153.06 29.95 153.13 29.37 153.13 28.77L153.13 28.13L153.78 28.13C154.49 28.13 155.2 28.15 155.91 28.16C156.02 25.07 156.04 21.97 156.04 18.88C156.04 18.18 156.04 17.49 156.03 16.79C156.02 14.05 156 11.28 155.89 8.53C155.51 8.55 155.14 8.56 154.77 8.56C154.35 8.56 153.91 8.57 153.49 8.52L152.8 8.44L152.92 7.77C153.02 7.2 153.06 6.7 153.06 6.12L153.06 5.47L153.7 5.47C156.04 5.47 158.39 5.38 160.73 5.26C163.31 5.11 165.96 4.94 168.52 4.59L169.28 4.49L169.25 5.26C169.22 6.12 169.21 6.98 169.21 7.84C169.21 9.76 169.29 11.66 169.4 13.58L169.43 14.21L168.81 14.27C168.36 14.31 167.9 14.34 167.45 14.41L166.71 14.52L166.71 13.74C166.71 12.75 166.64 11.73 166.56 10.75C166.52 10.1 166.46 9.45 166.38 8.8C166.37 8.55 166.33 8.26 166.29 7.98ZM143.44 9.61C142.11 11.59 140.31 13.35 137.79 13.35C135.27 13.35 133.32 11.64 132.08 9.58L131.89 9.26L132.07 8.94C132.31 8.51 132.74 8.14 133.13 7.85L133.74 7.39L134.09 8.08C134.8 9.47 136.17 10.78 137.82 10.78C139.44 10.78 140.8 9.44 141.52 8.1L142.02 7.15L142.62 8.05C142.81 8.33 143.03 8.54 143.29 8.74L143.77 9.12L143.44 9.61ZM143.34 17.47C143.27 19.09 143.26 20.72 143.24 22.34C143.23 23.46 143.22 24.57 143.22 25.69C143.22 26.25 143.2 26.86 143.22 27.45C143.61 27.44 143.99 27.44 144.38 27.44L145.09 27.44L145.02 28.15C144.98 28.56 144.95 28.99 144.95 29.41L144.95 30.03L144.33 30.05C142.71 30.11 140.95 30.26 139.36 30.49L138.62 30.59L138.62 29.85C138.62 29.47 138.58 29.01 138.49 28.64L138.33 27.98L139 27.85C139.54 27.75 140.14 27.66 140.7 27.6C140.76 25.84 140.75 24.06 140.75 22.31C140.75 21.8 140.76 21.28 140.76 20.75C140.67 20.88 140.58 21.01 140.49 21.13C139.74 22.15 139 23.19 138.27 24.22C137.5 25.32 136.69 26.47 135.95 27.62C136.37 27.62 136.79 27.62 137.2 27.62L137.92 27.62L137.84 28.33C137.8 28.73 137.74 29.14 137.74 29.55L137.74 30.17L137.12 30.19C136.09 30.23 135.06 30.29 134.04 30.37C133.25 30.43 132.43 30.5 131.64 30.63L130.89 30.75L130.89 30C130.89 29.57 130.9 29.12 130.8 28.71L130.65 28.04L131.32 27.92C131.81 27.84 132.31 27.76 132.81 27.71C132.81 26.03 132.79 24.35 132.78 22.67C132.77 21.5 132.76 20.33 132.75 19.16C132.74 18.65 132.74 18.13 132.72 17.61C132.24 17.6 131.75 17.57 131.28 17.51L130.61 17.43L130.72 16.76C130.79 16.32 130.82 15.88 130.82 15.43L130.82 14.72L131.52 14.79C132.79 14.91 134.09 14.97 135.36 14.97C135.8 14.97 136.23 14.97 136.67 14.93L137.37 14.87L137.37 15.58C137.37 16.04 137.37 16.57 137.28 17.03L137.2 17.44L136.79 17.53C136.41 17.62 135.84 17.63 135.32 17.63C135.31 18.02 135.31 18.41 135.31 18.81C135.31 19.75 135.31 20.7 135.31 21.65C135.31 22.62 135.32 23.59 135.33 24.56C135.43 24.41 135.54 24.26 135.65 24.11C136.32 23.16 136.98 22.2 137.64 21.24C138.5 19.98 139.37 18.71 140.2 17.43C139.79 17.4 139.38 17.35 138.99 17.29L138.37 17.2L138.44 16.58C138.48 16.14 138.5 15.69 138.5 15.25L138.5 14.52L139.23 14.61C140.52 14.78 141.9 14.83 143.2 14.83C143.62 14.83 144.05 14.83 144.46 14.79L145.17 14.73L145.17 15.44C145.17 15.72 145.13 16 145.13 16.28C145.13 16.44 145.17 16.6 145.17 16.76L145.17 17.36L144.57 17.4C144.16 17.43 143.74 17.45 143.34 17.47ZM97.94 16.06C97.56 16.09 97.17 16.13 96.81 16.18L96.08 16.27L96.08 15.54C96.08 15.12 96.1 14.6 95.96 14.19L95.72 13.45L96.5 13.35C98.19 13.13 99.92 12.98 101.62 12.98C104.64 12.98 108.15 13.53 108.15 17.3C108.15 18.49 107.78 19.56 107.01 20.36C108.33 21.08 109.18 22.42 109.18 24.03C109.18 24.5 109.1 24.97 108.93 25.42C107.74 28.65 102.98 29.31 100.03 29.31C98.92 29.31 97.79 29.24 96.68 29.17L96.07 29.12L96.07 28.53C96.07 28.19 96.08 27.4 95.99 27.09L95.74 26.26L96.61 26.26C97.1 26.26 97.64 26.27 98.15 26.24C98.22 25.36 98.2 24.4 98.2 23.56C98.2 22.76 98.19 21.96 98.18 21.16C98.15 20.02 98.11 18.88 98.05 17.74C98.04 17.21 98.01 16.62 97.94 16.06ZM89.19 27.07C84.88 27.07 83.29 22.04 83.29 18.48C83.29 14.84 84.92 11.43 89.01 11.43C93.38 11.43 94.62 15.29 94.62 19.03C94.62 21.8 93.93 25.44 91.09 26.69C90.48 26.95 89.84 27.07 89.19 27.07ZM77.81 25.9C77.88 24.71 77.88 23.5 77.87 22.3C77.18 22.28 76.48 22.29 75.8 22.29C74.78 22.29 73.7 22.27 72.66 22.32C72.66 22.43 72.66 22.54 72.66 22.65C72.65 23.12 72.65 23.6 72.65 24.07C72.65 24.75 72.64 25.45 72.66 26.14C73.18 26.12 73.69 26.1 74.21 26.1L75 26.1L74.86 26.86C74.78 27.3 74.72 27.73 74.72 28.19L74.72 28.81L74.09 28.84C72.47 28.89 70.66 29.01 69.06 29.28L68.31 29.4L68.31 28.64C68.31 28.19 68.26 27.68 68.12 27.25L67.9 26.55L68.62 26.42C69.1 26.34 69.59 26.26 70.08 26.21C70.09 25.39 70.11 24.57 70.11 23.75C70.11 22.66 70.1 21.58 70.09 20.49C70.08 19.07 70.08 17.61 70.03 16.18C69.55 16.16 69.07 16.13 68.59 16.08L67.92 16L68.03 15.34C68.09 14.89 68.17 14.42 68.17 13.96L68.17 13.26L68.86 13.32C70.28 13.42 71.73 13.5 73.15 13.5C73.53 13.5 73.93 13.51 74.3 13.47L75.01 13.4L75.01 14.11C75.01 14.3 75.05 14.5 75.05 14.7C75.05 14.98 75.01 15.26 74.96 15.54L74.89 15.97L74.47 16.06C74.09 16.14 73.54 16.15 73.14 16.16C73 16.17 72.86 16.18 72.71 16.18C72.68 16.84 72.7 17.57 72.7 18.18C72.7 18.64 72.7 19.09 72.7 19.54C72.7 19.59 72.7 19.66 72.7 19.73C73.54 19.76 74.38 19.78 75.22 19.78C76.08 19.78 77 19.78 77.88 19.72C77.88 18.5 77.87 17.27 77.83 16.06C77.31 16.04 76.78 16 76.29 15.91L75.65 15.81L75.75 15.17C75.82 14.74 75.81 14.23 75.81 13.8L75.81 13.07L76.54 13.16C77.85 13.32 79.23 13.37 80.54 13.37C80.96 13.37 81.39 13.38 81.81 13.34L82.51 13.28L82.51 13.99C82.51 14.45 82.51 14.91 82.55 15.37L82.6 16.01L81.96 16.07C81.55 16.1 81.13 16.11 80.71 16.11C80.64 17.67 80.63 19.25 80.6 20.82C80.57 22.48 80.53 24.15 80.52 25.82C80.94 25.82 81.36 25.84 81.77 25.89L82.46 25.99L82.31 26.68C82.23 27.03 82.22 27.56 82.22 27.93L82.22 28.56L81.59 28.58C79.91 28.63 78 28.66 76.34 28.94L75.59 29.07L75.59 28.31C75.59 27.84 75.55 27.41 75.43 26.96L75.25 26.28L75.94 26.16C76.55 26.05 77.18 25.96 77.81 25.9ZM62.63 26.13C62.69 24.37 62.69 22.59 62.69 20.84C62.69 20.33 62.69 19.81 62.69 19.29C62.6 19.41 62.51 19.54 62.42 19.66C61.67 20.69 60.93 21.72 60.2 22.75C59.43 23.85 58.62 25 57.88 26.16C58.3 26.15 58.72 26.15 59.14 26.15L59.85 26.15L59.78 26.86C59.73 27.26 59.67 27.67 59.67 28.08L59.67 28.71L59.05 28.73C58.02 28.76 56.99 28.82 55.97 28.9C55.18 28.96 54.36 29.03 53.58 29.16L52.83 29.28L52.83 28.53C52.83 28.1 52.83 27.66 52.73 27.24L52.58 26.57L53.25 26.45C53.74 26.37 54.24 26.29 54.74 26.23C54.74 24.56 54.72 22.87 54.71 21.19C54.7 20.02 54.69 18.86 54.68 17.69C54.67 17.18 54.67 16.65 54.65 16.14C54.17 16.12 53.68 16.09 53.21 16.03L52.54 15.95L52.65 15.28C52.72 14.84 52.75 14.4 52.75 13.96L52.75 13.24L53.46 13.31C54.72 13.43 56.02 13.5 57.29 13.5C57.73 13.5 58.17 13.5 58.6 13.46L59.3 13.4L59.3 14.1C59.3 14.57 59.3 15.1 59.21 15.56L59.13 15.97L58.72 16.06C58.34 16.14 57.77 16.15 57.25 16.15C57.24 16.55 57.24 16.95 57.24 17.33C57.24 18.28 57.24 19.23 57.24 20.18C57.24 21.15 57.25 22.12 57.26 23.09C57.37 22.94 57.48 22.78 57.58 22.64C58.25 21.68 58.91 20.72 59.58 19.76C60.44 18.5 61.3 17.24 62.14 15.96C61.73 15.92 61.32 15.88 60.92 15.82L60.31 15.72L60.37 15.11C60.41 14.67 60.44 14.22 60.44 13.78L60.44 13.04L61.17 13.14C62.46 13.31 63.83 13.35 65.14 13.35C65.55 13.35 65.99 13.36 66.4 13.32L67.1 13.25L67.1 13.96C67.1 14.25 67.07 14.53 67.07 14.81C67.07 14.97 67.1 15.13 67.1 15.28L67.1 15.89L66.5 15.93C66.1 15.96 65.69 15.98 65.28 15.99C65.21 17.61 65.2 19.25 65.18 20.86C65.17 21.98 65.16 23.1 65.16 24.22C65.16 24.78 65.15 25.39 65.16 25.98C65.54 25.97 65.93 25.97 66.32 25.97L67.03 25.97L66.96 26.68C66.92 27.09 66.89 27.52 66.89 27.93L66.89 28.56L66.27 28.58C64.65 28.63 62.9 28.78 61.3 29.01L60.56 29.12L60.56 28.37C60.56 27.99 60.53 27.54 60.44 27.17L60.27 26.5L60.94 26.38C61.47 26.28 62.06 26.19 62.63 26.13ZM41.23 16.31C40.69 16.28 40.12 16.21 39.65 16.14L39 16.04L39.12 15.39C39.18 15 39.25 14.5 39.25 14.11L39.25 13.4L39.96 13.46C42.09 13.65 44.26 13.72 46.41 13.72C47.76 13.72 49.19 13.71 50.52 13.54L51.25 13.45L51.25 15.96L50.83 16.12C50.5 16.24 49.99 16.31 49.53 16.35C49.46 18.08 49.43 19.84 49.41 21.58C49.39 22.63 49.38 23.69 49.38 24.75C49.38 25.15 49.37 25.56 49.39 25.98C49.83 25.98 50.28 25.99 50.72 26.01L51.33 26.05L51.33 26.66C51.33 27.13 51.29 27.6 51.26 28.07L51.22 28.65L50.63 28.66C48.98 28.72 47.23 28.73 45.6 28.99L44.85 29.1L44.85 28.35C44.85 27.94 44.83 27.44 44.75 27.04L44.63 26.41L45.26 26.28C45.75 26.18 46.28 26.11 46.79 26.06C46.87 24.37 46.88 22.65 46.88 20.95C46.88 19.46 46.89 17.91 46.81 16.41C46.19 16.43 45.55 16.42 44.95 16.42C44.55 16.42 44.13 16.42 43.72 16.41C43.73 16.8 43.72 17.19 43.72 17.57C43.72 20.24 43.57 24.16 42.61 26.6C41.74 28.78 40.25 29.29 38 29.29L37.23 29.29L37.35 28.55C37.43 28.04 37.45 27.54 37.45 27.03L37.45 26.27L38.2 26.39C38.37 26.42 38.52 26.42 38.69 26.42C38.93 26.42 39.16 26.37 39.37 26.26C41.26 25.25 41.24 19.59 41.24 17.61C41.23 17.17 41.24 16.74 41.23 16.31ZM32.18 18.66C32.22 18 32.26 17.33 32.26 16.68C32.26 16.04 32.25 14.8 31.74 14.32C31.36 13.97 30.66 13.94 30.19 13.94C28.78 13.94 27.99 14.36 27.61 15.81L27.52 16.19L27.15 16.28C26.95 16.33 26.75 16.34 26.55 16.34C25.92 16.34 25.23 16.22 24.62 16.06L24.14 15.93L24.14 15.44C24.14 15.18 24.18 14.92 24.18 14.66C24.18 14.37 24.15 14.08 24.11 13.79L23.99 12.84L24.92 13.09C25.26 13.18 25.65 13.25 26.02 13.31C26.99 11.79 28.78 11.19 30.57 11.19C33.82 11.19 35.08 13.19 35.08 16.29C35.08 16.54 35.07 16.78 35.06 17.04C35.01 17.75 34.93 18.48 34.87 19.2C34.78 20.44 34.75 21.69 34.75 22.94C34.75 23.29 34.72 24.86 35.01 25.1C35.08 25.15 35.23 25.16 35.31 25.16C35.45 25.16 35.58 25.14 35.71 25.11L36.6 24.89L36.51 25.8C36.48 26.11 36.48 26.42 36.48 26.73C36.48 26.89 36.47 27.08 36.5 27.23L36.66 28L35.87 28C34.39 28 33.26 27.64 32.73 26.57C31.75 27.35 30.4 27.64 29.15 27.64C26.35 27.64 24.05 26.21 24.05 23.23C24.05 22.43 24.23 21.64 24.61 20.93C25.65 18.99 27.77 18.18 29.88 18.18C30.79 18.17 31.5 18.3 32.18 18.66ZM5.85 12.42C5.85 12.51 5.85 12.6 5.84 12.69C5.82 14.62 5.82 16.55 5.82 18.48C5.82 19.13 5.82 19.77 5.82 20.41C5.82 22.15 5.83 23.9 5.85 25.64C5.86 26.64 5.87 27.65 5.9 28.65C6.6 28.65 7.31 28.63 7.99 28.55L8.72 28.46L8.72 29.19C8.72 29.78 8.72 30.24 8.85 30.81L9.02 31.51L8.3 31.59C6.9 31.76 5.48 31.82 4.07 31.82C3.03 31.82 1.99 31.78 0.95 31.75L0.25 31.72L0.34 31.02C0.37 30.78 0.4 30.53 0.4 30.29C0.4 30.03 0.37 29.76 0.31 29.51L0.11 28.63L1.01 28.73C1.35 28.77 1.73 28.76 2.08 28.76C2.43 28.76 2.84 28.76 3.23 28.73C3.23 25.31 3.2 21.9 3.17 18.48C3.15 15.24 3.12 11.99 3.04 8.75C2.94 8.75 2.84 8.75 2.74 8.75C2.17 8.75 1.58 8.72 1 8.68L0.4 8.63L0.4 8.04C0.4 7.86 0.44 7.69 0.44 7.52C0.44 7.09 0.35 6.59 0.3 6.16L0.21 5.4L0.98 5.44C2.13 5.5 3.28 5.59 4.43 5.59C5.89 5.59 7.31 5.44 8.75 5.22L9.49 5.11L9.49 5.86C9.49 6.41 9.51 6.94 9.57 7.5L9.62 8.06L9.07 8.18C8.59 8.29 7.98 8.34 7.41 8.38C7.62 9.18 7.88 10 8.12 10.77C8.61 12.33 9.12 13.88 9.64 15.43C10.32 17.44 11 19.45 11.71 21.46C12.29 19.47 12.85 17.48 13.41 15.49C14.1 13.08 14.77 10.66 15.46 8.24C15.22 8.24 14.97 8.24 14.73 8.23C14.55 8.23 14.37 8.23 14.19 8.2C14.17 8.2 14.14 8.19 14.11 8.19L13.57 8.1L13.57 7.56C13.57 7.09 13.61 6.49 13.51 6.03L13.34 5.19L14.19 5.26C15.02 5.32 15.85 5.37 16.68 5.37C18.3 5.37 19.86 5.18 21.46 4.97L22.11 4.88L22.43 7.84L21.87 7.97C21.18 8.12 20.38 8.2 19.64 8.25C19.59 10.22 19.58 12.2 19.58 14.18C19.58 15.88 19.59 17.58 19.61 19.27C19.63 21.12 19.66 22.96 19.71 24.8C19.74 25.98 19.77 27.16 19.84 28.34C20.59 28.38 21.33 28.44 22.08 28.5L22.78 28.56L22.66 29.26C22.59 29.61 22.56 30.01 22.56 30.36C22.56 30.53 22.59 30.67 22.59 30.83L22.59 31.53L21.9 31.48C20.58 31.37 19.26 31.3 17.94 31.3C16.86 31.3 15.78 31.34 14.7 31.41L13.92 31.45L14.02 30.68C14.05 30.45 14.09 30.19 14.09 29.95C14.09 29.7 14.05 29.44 14.05 29.18L14.05 28.68L14.53 28.56C15.26 28.37 16.02 28.31 16.77 28.29C16.83 26.9 16.85 25.51 16.87 24.13C16.9 21.82 16.92 19.53 16.92 17.22C16.92 15.67 16.92 14.11 16.9 12.55C16.46 14.07 16.02 15.6 15.59 17.13C15.05 19.04 14.52 20.96 13.98 22.88C13.68 23.95 13.39 25.04 13.07 26.1L12.95 26.49L12.54 26.55C12.19 26.6 11.84 26.63 11.49 26.63C11.24 26.63 10.99 26.63 10.74 26.58L10.35 26.5L10.24 26.11C9.97 25.08 9.59 24 9.27 22.98C8.66 21.06 8.04 19.15 7.42 17.24C6.9 15.64 6.38 14.02 5.85 12.42ZM122.78 25.75L123.18 25.68C123.7 25.59 124.24 25.52 124.78 25.46C124.78 24.06 124.82 22.65 124.82 21.24C124.82 20.75 124.82 20.26 124.81 19.76C124.8 18.47 124.81 17.12 124.74 15.81C124.23 15.81 123.71 15.78 123.22 15.7L122.58 15.59L122.69 14.95C122.78 14.44 122.9 13.9 122.94 13.4L123 12.73L123.65 12.8C124.76 12.92 125.89 12.94 127 12.94C127.56 12.94 128.13 12.94 128.69 12.91L129.47 12.86L129.38 13.63C129.34 13.94 129.31 14.27 129.31 14.58C129.31 14.77 129.35 14.95 129.35 15.13L129.35 15.71L128.78 15.78C128.36 15.82 127.94 15.86 127.52 15.88C127.45 17.41 127.44 18.96 127.42 20.49C127.39 22.1 127.37 23.71 127.37 25.31C127.83 25.33 128.29 25.36 128.75 25.42L129.39 25.5L129.31 26.14C129.25 26.6 129.24 27.03 129.24 27.49L129.24 28.11L128.62 28.13C126.99 28.19 125.23 28.34 123.61 28.57L122.88 28.67L122.88 27.93C122.88 27.42 122.84 27 122.69 26.5L122.58 26.15C121.65 27.7 119.89 28.5 117.71 28.5C116.09 28.5 114.45 28.49 112.82 28.52C112.38 28.52 111.93 28.53 111.5 28.61L110.74 28.74L110.74 27.97C110.74 27.57 110.76 26.9 110.68 26.52L110.55 25.89L111.17 25.76C111.59 25.67 112.14 25.63 112.65 25.61C112.67 25.08 112.68 24.55 112.7 24.03C112.72 22.88 112.74 21.73 112.76 20.59C112.79 18.87 112.83 17.14 112.84 15.42C112.31 15.4 111.78 15.39 111.27 15.29L110.64 15.17L110.76 14.54C110.83 14.13 110.85 13.56 110.85 13.14L110.85 12.41L111.58 12.5C112.89 12.66 114.31 12.71 115.62 12.71C116.21 12.71 116.79 12.69 117.37 12.64L118.07 12.58L118.07 13.29C118.07 13.67 118.09 14.25 118.17 14.63L118.31 15.35L117.58 15.4C116.9 15.45 116.18 15.47 115.48 15.47C115.43 16.08 115.42 16.71 115.41 17.3C115.4 17.72 115.39 18.13 115.38 18.54C116.21 18 117.21 17.75 118.23 17.75C121.43 17.75 123.29 20.3 123.29 23.32C123.28 24.26 123.1 25.07 122.78 25.75Z" fill="#CC0955" fill-opacity="1.000000" fill-rule="evenodd"/>
</svg>
