<svg width="73.361572" height="52.214600" viewBox="0 0 73.3616 52.2146" fill="none" xmlns="http://www.w3.org/2000/svg" xmlns:xlink="http://www.w3.org/1999/xlink">
	<desc>
			Created with Pixso.
	</desc>
	<defs/>
	<path id="Vector" d="M52.43 4.51C51.07 8.97 51.25 14.07 49.14 18.3C45.79 25 41.67 13.91 39.3 11.63C36.47 8.92 31.92 5.9 28.63 8.82C25.35 11.72 24.82 17.41 23.79 21.42C23.02 24.42 21.86 31.93 17.84 32.44C13.67 32.97 10.47 25.15 5.91 27.64C2.25 29.63 0.35 37.2 0.06 40.96C-0.19 44.14 0.07 52.29 4.84 52.21C5.56 52.2 6.83 51.63 7.69 50.91C8.11 50.63 8.48 50.23 8.8 49.69C10.68 46.47 7.22 38.37 12.17 37.31C17.15 36.23 19.27 44.06 23.53 45.48C28.25 47.04 31.38 41.15 31.72 36.97C31.95 34.19 29.14 26.68 31.7 24.24C35.1 20.98 40.21 28.78 42.26 30.34C45.48 32.78 50.74 35.63 53.77 31.5C56.83 27.33 55.91 21.72 57.48 17.03C58.07 15.3 58.79 13.36 60.8 12.97C63.16 12.52 64.26 15.21 65.72 16.73C67.28 18.35 68.97 20.23 71.3 18.81C73.07 17.72 73.66 15.74 73.21 13.88C71.6 7.17 56.07 -7.36 52.43 4.51Z" fill="#CC0955" fill-opacity="1.000000" fill-rule="nonzero"/>
</svg>
