<svg width="49.000000" height="49.000000" viewBox="0 0 49 49" fill="none" xmlns="http://www.w3.org/2000/svg" xmlns:xlink="http://www.w3.org/1999/xlink">
	<desc>
			Created with Pixso.
	</desc>
	<defs/>
	<path id="Vector" d="M32.73 15.13L26.97 1.58C26.07 -0.53 23.05 -0.53 22.15 1.58L16.53 14.86C16.26 15.49 15.76 15.99 15.13 16.26L1.58 22.02C-0.53 22.92 -0.53 25.94 1.58 26.84L14.86 32.46C15.49 32.73 15.99 33.23 16.26 33.86L22.02 47.41C22.92 49.52 25.94 49.52 26.84 47.41L32.46 34.13C32.73 33.5 33.23 33 33.86 32.73L47.41 26.97C49.52 26.07 49.52 23.05 47.41 22.15L34.13 16.53C33.5 16.26 33 15.76 32.73 15.13Z" fill="#F6B096" fill-opacity="1.000000" fill-rule="nonzero"/>
</svg>
