<svg width="84.153809" height="63.877441" viewBox="0 0 84.1538 63.8774" fill="none" xmlns="http://www.w3.org/2000/svg" xmlns:xlink="http://www.w3.org/1999/xlink">
	<desc>
			Created with Pixso.
	</desc>
	<defs/>
	<path id="Vector" d="M39.49 13.3C38.42 13.2 37.39 12.89 36.34 12.54C36.05 13.47 35.78 14.39 35.52 15.32C35 17.06 32.24 16.03 32.86 14.29C33.19 13.4 33.5 12.52 33.83 11.63C32.86 11.28 31.87 10.93 30.89 10.7C29.32 10.35 29.49 8.16 31.13 8.18C32.35 8.2 33.69 8.26 34.98 8.39C35.52 6.88 36.07 5.39 36.61 3.89C37.1 2.52 39.06 3.35 38.67 4.69C38.25 6.07 37.84 7.44 37.43 8.82C38.6 9.11 39.72 9.48 40.68 10.16C42.12 11.15 41.16 13.47 39.49 13.3ZM22.24 6.94C21.27 6.28 20.16 5.89 18.99 5.62C19.4 4.24 19.81 2.87 20.22 1.49C20.61 0.15 18.66 -0.66 18.16 0.68C17.63 2.19 17.07 3.68 16.54 5.19C15.22 5.06 13.9 5 12.67 4.98C11.02 4.94 10.86 7.13 12.42 7.5C13.41 7.73 14.4 8.06 15.37 8.43C15.06 9.32 14.73 10.2 14.4 11.09C13.78 12.83 16.52 13.86 17.05 12.12C17.32 11.19 17.61 10.27 17.88 9.34C18.91 9.69 19.96 10 21.03 10.1C22.69 10.24 23.66 7.95 22.24 6.94ZM58.63 13.84C57.69 13.18 56.55 12.78 55.38 12.5C55.79 11.11 56.2 9.75 56.62 8.37C57.01 7.02 55.05 6.22 54.56 7.56C54.02 9.07 53.47 10.55 52.93 12.06C51.61 11.94 50.3 11.88 49.08 11.86C47.43 11.81 47.27 14 48.83 14.37C49.82 14.6 50.81 14.95 51.78 15.3C51.45 16.19 51.12 17.08 50.81 17.97C50.19 19.7 52.93 20.73 53.47 19C53.73 18.07 54.02 17.14 54.29 16.21C55.32 16.56 56.37 16.87 57.44 16.98C59.09 17.12 60.05 14.83 58.63 13.84ZM79.96 18.15C79.01 17.49 77.88 17.1 76.71 16.81C77.12 15.43 77.53 14.06 77.94 12.68C78.33 11.34 76.38 10.53 75.88 11.88C75.35 13.38 74.79 14.87 74.26 16.38C72.94 16.25 71.62 16.19 70.41 16.17C68.76 16.13 68.59 18.32 70.16 18.69C71.15 18.92 72.14 19.27 73.1 19.62C72.77 20.51 72.46 21.39 72.14 22.28C71.52 24.02 74.26 25.05 74.79 23.31C75.06 22.39 75.35 21.46 75.61 20.53C76.64 20.88 77.69 21.19 78.76 21.29C80.41 21.46 81.38 19.14 79.96 18.15ZM43.01 36.53C41.94 36.43 40.91 36.12 39.86 35.77C39.59 36.69 39.3 37.62 39.04 38.55C38.52 40.29 35.76 39.25 36.38 37.52C36.71 36.63 37.02 35.74 37.35 34.86C36.38 34.51 35.39 34.15 34.41 33.93C32.84 33.58 33.01 31.39 34.65 31.41C35.87 31.43 37.21 31.49 38.5 31.61C39.04 30.11 39.59 28.62 40.13 27.11C40.62 25.75 42.58 26.58 42.19 27.92C41.77 29.3 41.36 30.66 40.95 32.05C42.12 32.34 43.24 32.71 44.2 33.39C45.62 34.4 44.68 36.69 43.01 36.53ZM25.74 30.19C24.79 29.53 23.66 29.14 22.49 28.85C22.9 27.46 23.31 26.1 23.72 24.72C24.11 23.38 22.16 22.57 21.66 23.91C21.13 25.42 20.57 26.91 20.04 28.41C18.72 28.29 17.4 28.23 16.19 28.21C14.54 28.17 14.38 30.36 15.94 30.73C16.93 30.95 17.9 31.31 18.89 31.66C18.56 32.54 18.25 33.43 17.92 34.32C17.3 36.05 20.04 37.09 20.57 35.35C20.84 34.42 21.13 33.49 21.4 32.56C22.43 32.92 23.48 33.23 24.55 33.33C26.21 33.47 27.16 31.18 25.74 30.19ZM62.13 37.07C61.18 36.41 60.05 36.01 58.88 35.72C59.29 34.34 59.7 32.98 60.11 31.59C60.51 30.25 58.55 29.45 58.06 30.79C57.52 32.3 56.97 33.78 56.43 35.29C55.11 35.17 53.8 35.1 52.58 35.08C50.93 35.04 50.77 37.23 52.33 37.6C53.32 37.83 54.31 38.18 55.28 38.53C54.95 39.42 54.64 40.31 54.31 41.2C53.69 42.93 56.43 43.96 56.97 42.23C57.23 41.3 57.52 40.37 57.79 39.44C58.82 39.79 59.87 40.1 60.94 40.2C62.61 40.37 63.57 38.06 62.13 37.07ZM83.46 41.4C82.51 40.74 81.38 40.35 80.2 40.06C80.62 38.68 81.03 37.31 81.44 35.93C81.83 34.59 79.87 33.78 79.38 35.12C78.85 36.63 78.29 38.12 77.75 39.63C76.44 39.5 75.12 39.44 73.91 39.42C72.26 39.38 72.09 41.57 73.66 41.94C74.65 42.17 75.63 42.52 76.6 42.87C76.27 43.76 75.96 44.64 75.63 45.53C75.02 47.27 77.75 48.3 78.29 46.56C78.56 45.63 78.85 44.71 79.11 43.78C80.14 44.13 81.19 44.44 82.26 44.54C83.93 44.68 84.88 42.39 83.46 41.4ZM28.15 52.94C27.08 52.84 26.05 52.53 25 52.18C24.71 53.11 24.44 54.04 24.18 54.97C23.66 56.7 20.9 55.67 21.52 53.93C21.85 53.05 22.16 52.16 22.49 51.27C21.52 50.92 20.53 50.57 19.54 50.34C17.98 49.99 18.14 47.8 19.79 47.82C21.01 47.84 22.34 47.91 23.64 48.03C24.18 46.52 24.73 45.04 25.27 43.53C25.76 42.17 27.72 42.99 27.32 44.33C26.91 45.72 26.5 47.08 26.09 48.46C27.26 48.75 28.37 49.12 29.34 49.81C30.76 50.82 29.82 53.13 28.15 52.94ZM10.88 46.6C9.93 45.94 8.8 45.55 7.63 45.26C8.04 43.88 8.45 42.52 8.86 41.13C9.25 39.79 7.3 38.99 6.8 40.33C6.27 41.84 5.73 43.34 5.18 44.85C3.86 44.73 2.54 44.66 1.33 44.64C-0.32 44.6 -0.48 46.79 1.08 47.16C2.07 47.39 3.06 47.74 4.02 48.09C3.69 48.98 3.39 49.87 3.06 50.76C2.44 52.49 5.18 53.52 5.71 51.79C5.98 50.86 6.27 49.93 6.54 49C7.56 49.35 8.61 49.66 9.68 49.76C11.35 49.91 12.3 47.6 10.88 46.6ZM47.29 53.5C46.34 52.84 45.21 52.45 44.04 52.16C44.45 50.78 44.86 49.41 45.27 48.03C45.66 46.69 43.71 45.88 43.22 47.22C42.68 48.73 42.12 50.22 41.59 51.73C40.27 51.6 38.95 51.54 37.74 51.52C36.09 51.48 35.93 53.67 37.49 54.04C38.48 54.27 39.47 54.62 40.44 54.97C40.11 55.85 39.8 56.74 39.47 57.63C38.85 59.37 41.59 60.4 42.12 58.66C42.39 57.73 42.68 56.81 42.95 55.88C43.98 56.23 45.03 56.54 46.1 56.64C47.74 56.78 48.71 54.49 47.29 53.5ZM68.59 57.82C67.65 57.16 66.52 56.76 65.34 56.47C65.75 55.09 66.17 53.73 66.58 52.35C66.97 51 65.01 50.2 64.52 51.54C63.98 53.05 63.43 54.53 62.89 56.04C61.58 55.92 60.26 55.85 59.04 55.83C57.4 55.79 57.23 57.98 58.8 58.35C59.79 58.58 60.77 58.93 61.74 59.28C61.41 60.17 61.1 61.06 60.77 61.95C60.16 63.68 62.89 64.71 63.43 62.98C63.72 62.05 63.98 61.12 64.25 60.19C65.28 60.54 66.33 60.85 67.4 60.96C69.07 61.12 70.04 58.81 68.59 57.82Z" fill="#FFFFFF" fill-opacity="1.000000" fill-rule="nonzero"/>
</svg>
