<svg width="132.113770" height="131.021484" viewBox="0 0 132.114 131.021" fill="none" xmlns="http://www.w3.org/2000/svg" xmlns:xlink="http://www.w3.org/1999/xlink">
	<desc>
			Created with Pixso.
	</desc>
	<defs/>
	<path id="Vector" d="M88.16 21.92C112.43 34.04 122.21 63.37 110 87.44C97.78 111.51 68.21 121.2 43.94 109.09C19.67 96.98 9.9 67.65 22.11 43.58C34.32 19.51 63.89 9.81 88.16 21.92Z" fill="#0455BF" fill-opacity="1.000000" fill-rule="evenodd"/>
	<mask id="mask385_1221" mask-type="alpha" maskUnits="userSpaceOnUse" x="0.000000" y="0.001465" width="132.111328" height="131.019165">
		<path id="Vector" d="M88.16 21.93C112.43 34.04 122.21 63.37 109.99 87.44C97.78 111.5 68.21 121.2 43.94 109.09C19.67 96.98 9.89 67.65 22.11 43.58C34.32 19.51 63.89 9.81 88.16 21.93Z" fill="#000000" fill-opacity="1.000000" fill-rule="evenodd"/>
	</mask>
	<g mask="url(#mask385_1221)">
		<path id="Vector" d="M82.32 16.81C80.67 15.29 77.89 15.63 76.14 17.01C74.39 18.4 73.45 20.55 72.75 22.67C72.04 24.78 71.48 27 70.24 28.84C67.71 32.58 62.84 34.21 60.58 38.3C59.89 39.55 59.57 41 59.8 42.41C60.42 45.9 63.72 46.8 66.56 46.41C68.58 46.12 70.47 45.3 72.44 44.74C76.52 43.59 80.92 43.77 84.95 45.12C87.48 45.96 87.55 49.52 85.1 50.54C83.92 51.02 82.78 51.62 81.74 52.37C78.9 54.41 76.9 57.97 77.73 61.34C78.31 63.66 80.09 65.47 81.79 67.17C85.56 70.92 89.36 74.66 93.13 78.4C95.4 80.64 98.11 83.07 101.51 82.1C103.65 81.5 105.19 79.65 105.78 77.52C106.87 73.71 105.31 69.97 103.6 66.58C102.03 63.47 100.24 60.33 100.42 56.74C100.49 55.32 100.93 53.94 101.76 52.8C104.27 49.38 108.04 50.58 111.42 50.08C117.07 49.23 120.95 43.47 121.42 37.81C121.89 32.15 119.72 26.64 117.36 21.47L82.32 16.81Z" fill="#03A678" fill-opacity="1.000000" fill-rule="nonzero"/>
	</g>
	<mask id="mask385_1225" mask-type="alpha" maskUnits="userSpaceOnUse" x="0.000000" y="0.001465" width="132.111328" height="131.019165">
		<path id="Vector" d="M88.16 21.93C112.43 34.04 122.21 63.37 109.99 87.44C97.78 111.5 68.21 121.2 43.94 109.09C19.67 96.98 9.89 67.65 22.11 43.58C34.32 19.51 63.89 9.81 88.16 21.93Z" fill="#000000" fill-opacity="1.000000" fill-rule="evenodd"/>
	</mask>
	<g mask="url(#mask385_1225)">
		<path id="Vector" d="M6.62 60.85C7.18 65.85 7.76 70.95 10.01 75.44C12.25 79.94 16.53 83.79 21.59 84.09C25.32 84.32 28.88 82.64 32.54 81.93C36.21 81.21 40.76 81.85 42.46 85.17C43.7 87.6 42.94 90.52 42.87 93.24C42.62 102.43 50.25 109.69 57.28 115.67C59.62 117.68 62.04 119.72 64.91 120.87C67.78 122.01 71.27 122.15 73.85 120.44C76.29 118.82 77.5 115.84 77.68 112.93C77.86 110.03 77.13 107.17 76.41 104.36C74.93 98.52 73.45 92.7 71.97 86.87C70.67 81.73 68.5 75.71 63.29 74.5C59.23 73.55 55.04 76.09 50.92 75.48C47.87 75.01 45.18 72.69 44.33 69.73C43.48 66.78 44.53 63.4 46.88 61.41C48.3 60.21 50.13 59.51 51.54 58.28C52.94 57.04 53.83 54.84 52.75 53.32C50.78 50.58 45.69 53.42 43.25 51.1C42.09 49.99 42.08 48.11 42.65 46.62C43.21 45.13 44.24 43.86 44.96 42.43C47.83 36.79 45.45 29.63 40.99 25.12C36.53 20.59 30.45 18.12 24.53 15.75L6.62 60.85Z" fill="#03A678" fill-opacity="1.000000" fill-rule="nonzero"/>
	</g>
</svg>
